STARTFONT 2.1
FONT -FontForge-NanumGothic-Book-R-Normal--20-190-75-75-P-188-ISO10646-1
SIZE 19 75 75
FONTBOUNDINGBOX 20 20 0 -4
COMMENT "Generated by fontforge, http://fontforge.sourceforge.net"
COMMENT "Copyright (c) 2011 NHN Corporation. All rights reserved. Font designed by Sandoll Communications Inc."
STARTPROPERTIES 41
FOUNDRY "FontForge"
FAMILY_NAME "NanumGothic"
WEIGHT_NAME "Book"
SLANT "R"
SETWIDTH_NAME "Normal"
ADD_STYLE_NAME ""
PIXEL_SIZE 20
POINT_SIZE 190
RESOLUTION_X 75
RESOLUTION_Y 75
SPACING "P"
AVERAGE_WIDTH 188
CHARSET_REGISTRY "ISO10646"
CHARSET_ENCODING "1"
FONTNAME_REGISTRY ""
CHARSET_COLLECTIONS "ISO8859-5 JISX0208.1997 KSC5601.1992 BIG5 ISO10646-1"
FONT_NAME "NanumGothic"
FACE_NAME "NanumGothic"
COPYRIGHT "Copyright (c) 2011 NHN Corporation. All rights reserved. Font designed by Sandoll Communications Inc."
FONT_VERSION "3.020;PS 1;hotconv 1.0.57;makeotf.lib2.0.21895"
FONT_ASCENT 16
FONT_DESCENT 4
UNDERLINE_POSITION -6
UNDERLINE_THICKNESS 2
X_HEIGHT 9
CAP_HEIGHT 13
DEFAULT_CHAR 1
RAW_ASCENT 800
RAW_DESCENT 200
NORM_SPACE 6
RELATIVE_WEIGHT 40
RELATIVE_SETWIDTH 50
SUPERSCRIPT_X 0
SUPERSCRIPT_Y 10
SUPERSCRIPT_SIZE 12
SUBSCRIPT_X 0
SUBSCRIPT_Y 2
SUBSCRIPT_SIZE 12
FIGURE_WIDTH 12
AVG_LOWERCASE_WIDTH 136
AVG_UPPERCASE_WIDTH 153
ENDPROPERTIES
CHARS 19135
STARTCHAR uni0000
ENCODING 0
SWIDTH 280 0
DWIDTH 6 0
BBX 1 1 0 0
BITMAP
00
ENDCHAR
STARTCHAR uni0000.dup1
ENCODING 1
SWIDTH 280 0
DWIDTH 6 0
BBX 1 1 0 0
BITMAP
00
ENDCHAR
STARTCHAR uni0000.dup2
ENCODING 2
SWIDTH 280 0
DWIDTH 6 0
BBX 1 1 0 0
BITMAP
00
ENDCHAR
STARTCHAR uni0000.dup3
ENCODING 3
SWIDTH 280 0
DWIDTH 6 0
BBX 1 1 0 0
BITMAP
00
ENDCHAR
STARTCHAR uni0000.dup4
ENCODING 4
SWIDTH 280 0
DWIDTH 6 0
BBX 1 1 0 0
BITMAP
00
ENDCHAR
STARTCHAR uni0000.dup5
ENCODING 5
SWIDTH 280 0
DWIDTH 6 0
BBX 1 1 0 0
BITMAP
00
ENDCHAR
STARTCHAR uni0000.dup6
ENCODING 6
SWIDTH 280 0
DWIDTH 6 0
BBX 1 1 0 0
BITMAP
00
ENDCHAR
STARTCHAR uni0000.dup7
ENCODING 7
SWIDTH 280 0
DWIDTH 6 0
BBX 1 1 0 0
BITMAP
00
ENDCHAR
STARTCHAR uni0000.dup8
ENCODING 8
SWIDTH 280 0
DWIDTH 6 0
BBX 1 1 0 0
BITMAP
00
ENDCHAR
STARTCHAR uni0000.dup9
ENCODING 9
SWIDTH 280 0
DWIDTH 6 0
BBX 1 1 0 0
BITMAP
00
ENDCHAR
STARTCHAR uni0000.dup10
ENCODING 10
SWIDTH 280 0
DWIDTH 6 0
BBX 1 1 0 0
BITMAP
00
ENDCHAR
STARTCHAR uni0000.dup11
ENCODING 11
SWIDTH 280 0
DWIDTH 6 0
BBX 1 1 0 0
BITMAP
00
ENDCHAR
STARTCHAR uni0000.dup12
ENCODING 12
SWIDTH 280 0
DWIDTH 6 0
BBX 1 1 0 0
BITMAP
00
ENDCHAR
STARTCHAR uni0000.dup13
ENCODING 13
SWIDTH 280 0
DWIDTH 6 0
BBX 1 1 0 0
BITMAP
00
ENDCHAR
STARTCHAR uni0000.dup14
ENCODING 14
SWIDTH 280 0
DWIDTH 6 0
BBX 1 1 0 0
BITMAP
00
ENDCHAR
STARTCHAR uni0000.dup15
ENCODING 15
SWIDTH 280 0
DWIDTH 6 0
BBX 1 1 0 0
BITMAP
00
ENDCHAR
STARTCHAR uni0000.dup16
ENCODING 16
SWIDTH 280 0
DWIDTH 6 0
BBX 1 1 0 0
BITMAP
00
ENDCHAR
STARTCHAR uni0000.dup17
ENCODING 17
SWIDTH 280 0
DWIDTH 6 0
BBX 1 1 0 0
BITMAP
00
ENDCHAR
STARTCHAR uni0000.dup18
ENCODING 18
SWIDTH 280 0
DWIDTH 6 0
BBX 1 1 0 0
BITMAP
00
ENDCHAR
STARTCHAR uni0000.dup19
ENCODING 19
SWIDTH 280 0
DWIDTH 6 0
BBX 1 1 0 0
BITMAP
00
ENDCHAR
STARTCHAR uni0000.dup20
ENCODING 20
SWIDTH 280 0
DWIDTH 6 0
BBX 1 1 0 0
BITMAP
00
ENDCHAR
STARTCHAR uni0000.dup21
ENCODING 21
SWIDTH 280 0
DWIDTH 6 0
BBX 1 1 0 0
BITMAP
00
ENDCHAR
STARTCHAR uni0000.dup22
ENCODING 22
SWIDTH 280 0
DWIDTH 6 0
BBX 1 1 0 0
BITMAP
00
ENDCHAR
STARTCHAR uni0000.dup23
ENCODING 23
SWIDTH 280 0
DWIDTH 6 0
BBX 1 1 0 0
BITMAP
00
ENDCHAR
STARTCHAR uni0000.dup24
ENCODING 24
SWIDTH 280 0
DWIDTH 6 0
BBX 1 1 0 0
BITMAP
00
ENDCHAR
STARTCHAR uni0000.dup25
ENCODING 25
SWIDTH 280 0
DWIDTH 6 0
BBX 1 1 0 0
BITMAP
00
ENDCHAR
STARTCHAR uni0000.dup26
ENCODING 26
SWIDTH 280 0
DWIDTH 6 0
BBX 1 1 0 0
BITMAP
00
ENDCHAR
STARTCHAR uni0000.dup27
ENCODING 27
SWIDTH 280 0
DWIDTH 6 0
BBX 1 1 0 0
BITMAP
00
ENDCHAR
STARTCHAR uni0000.dup28
ENCODING 28
SWIDTH 280 0
DWIDTH 6 0
BBX 1 1 0 0
BITMAP
00
ENDCHAR
STARTCHAR uni0000.dup29
ENCODING 29
SWIDTH 280 0
DWIDTH 6 0
BBX 1 1 0 0
BITMAP
00
ENDCHAR
STARTCHAR uni0000.dup30
ENCODING 30
SWIDTH 280 0
DWIDTH 6 0
BBX 1 1 0 0
BITMAP
00
ENDCHAR
STARTCHAR uni0000.dup31
ENCODING 31
SWIDTH 280 0
DWIDTH 6 0
BBX 1 1 0 0
BITMAP
00
ENDCHAR
STARTCHAR uni0000.dup32
ENCODING 32
SWIDTH 280 0
DWIDTH 6 0
BBX 1 1 0 0
BITMAP
00
ENDCHAR
STARTCHAR exclam
ENCODING 33
SWIDTH 424 0
DWIDTH 8 0
BBX 2 15 3 -1
BITMAP
C0
40
40
40
40
40
40
40
40
40
40
00
00
40
C0
ENDCHAR
STARTCHAR quotedbl
ENCODING 34
SWIDTH 430 0
DWIDTH 9 0
BBX 4 5 2 9
BITMAP
D0
D0
D0
D0
D0
ENDCHAR
STARTCHAR numbersign
ENCODING 35
SWIDTH 606 0
DWIDTH 12 0
BBX 10 15 1 -1
BITMAP
0880
1980
1980
1100
1100
FFC0
1100
1100
3300
FFC0
2200
2200
2200
2200
2200
ENDCHAR
STARTCHAR dollar
ENCODING 36
SWIDTH 606 0
DWIDTH 12 0
BBX 8 18 2 -3
BITMAP
08
3F
68
C8
88
C8
68
38
1C
0E
0B
09
09
09
0A
FC
08
08
ENDCHAR
STARTCHAR percent
ENCODING 37
SWIDTH 1090 0
DWIDTH 22 0
BBX 16 15 3 -1
BITMAP
7818
CC10
8420
8420
8440
84C0
CC80
799E
0133
0221
0621
0421
0C21
0833
101E
ENDCHAR
STARTCHAR ampersand
ENCODING 38
SWIDTH 727 0
DWIDTH 15 0
BBX 13 15 1 -1
BITMAP
0F00
3180
2080
2080
3080
1100
1E00
1C10
6610
4310
C1B0
C0E0
4060
61B0
1F18
ENDCHAR
STARTCHAR quotesingle
ENCODING 39
SWIDTH 303 0
DWIDTH 6 0
BBX 2 5 2 9
BITMAP
C0
C0
C0
C0
C0
ENDCHAR
STARTCHAR parenleft
ENCODING 40
SWIDTH 363 0
DWIDTH 7 0
BBX 5 20 2 -4
BITMAP
08
10
20
20
60
40
40
40
C0
C0
C0
C0
40
40
40
60
20
30
10
08
ENDCHAR
STARTCHAR parenright
ENCODING 41
SWIDTH 363 0
DWIDTH 7 0
BBX 4 20 1 -4
BITMAP
80
40
40
20
20
30
10
10
10
10
10
10
10
10
30
20
20
40
40
80
ENDCHAR
STARTCHAR asterisk
ENCODING 42
SWIDTH 606 0
DWIDTH 12 0
BBX 8 8 2 3
BITMAP
08
08
CB
7E
18
3C
26
22
ENDCHAR
STARTCHAR plus
ENCODING 43
SWIDTH 654 0
DWIDTH 13 0
BBX 11 11 1 1
BITMAP
0400
0400
0400
0400
0400
FFE0
0400
0400
0400
0400
0400
ENDCHAR
STARTCHAR comma
ENCODING 44
SWIDTH 303 0
DWIDTH 6 0
BBX 2 4 2 -4
BITMAP
C0
C0
80
80
ENDCHAR
STARTCHAR hyphen
ENCODING 45
SWIDTH 363 0
DWIDTH 7 0
BBX 5 1 1 6
BITMAP
F8
ENDCHAR
STARTCHAR period
ENCODING 46
SWIDTH 303 0
DWIDTH 6 0
BBX 2 2 2 -1
BITMAP
C0
C0
ENDCHAR
STARTCHAR slash
ENCODING 47
SWIDTH 375 0
DWIDTH 8 0
BBX 7 15 0 -1
BITMAP
02
02
06
04
0C
08
08
18
10
30
20
20
60
40
C0
ENDCHAR
STARTCHAR zero
ENCODING 48
SWIDTH 606 0
DWIDTH 12 0
BBX 10 15 1 -1
BITMAP
1E00
2180
6080
40C0
C0C0
C040
C040
C040
C040
C0C0
40C0
4080
6080
3100
1E00
ENDCHAR
STARTCHAR one
ENCODING 49
SWIDTH 606 0
DWIDTH 12 0
BBX 4 15 3 -1
BITMAP
10
30
50
90
10
10
10
10
10
10
10
10
10
10
10
ENDCHAR
STARTCHAR two
ENCODING 50
SWIDTH 606 0
DWIDTH 12 0
BBX 9 15 1 -1
BITMAP
3E00
4300
0180
0180
0180
0180
0100
0200
0600
0C00
1800
3000
2000
4000
FF80
ENDCHAR
STARTCHAR three
ENCODING 51
SWIDTH 606 0
DWIDTH 12 0
BBX 9 15 1 -1
BITMAP
3E00
4380
0080
0080
0080
0180
0300
3C00
0300
0080
0080
0080
0180
0300
FE00
ENDCHAR
STARTCHAR four
ENCODING 52
SWIDTH 606 0
DWIDTH 12 0
BBX 10 15 1 -1
BITMAP
0300
0700
0500
0900
1900
1100
2100
6100
4100
8100
FFC0
0100
0100
0100
0100
ENDCHAR
STARTCHAR five
ENCODING 53
SWIDTH 606 0
DWIDTH 12 0
BBX 9 15 2 -1
BITMAP
FF00
C000
C000
C000
C000
C000
FC00
8300
0100
0180
0180
0180
0100
0200
FC00
ENDCHAR
STARTCHAR six
ENCODING 54
SWIDTH 606 0
DWIDTH 12 0
BBX 10 15 1 -1
BITMAP
0F80
1800
2000
6000
4000
4000
DF00
E180
C0C0
C040
4040
4040
60C0
2180
1F00
ENDCHAR
STARTCHAR seven
ENCODING 55
SWIDTH 606 0
DWIDTH 12 0
BBX 10 15 1 -1
BITMAP
FFC0
0080
0180
0180
0100
0300
0200
0600
0400
0C00
0C00
0800
1800
1000
3000
ENDCHAR
STARTCHAR eight
ENCODING 56
SWIDTH 606 0
DWIDTH 12 0
BBX 10 15 1 -1
BITMAP
1F00
6180
4080
40C0
4080
6180
3F00
1E00
6180
40C0
C040
C040
C0C0
6180
1F00
ENDCHAR
STARTCHAR nine
ENCODING 57
SWIDTH 606 0
DWIDTH 12 0
BBX 10 15 1 -1
BITMAP
1E00
6180
4080
C0C0
C0C0
C0C0
40C0
61C0
3EC0
00C0
0080
0080
0180
0300
7C00
ENDCHAR
STARTCHAR colon
ENCODING 58
SWIDTH 303 0
DWIDTH 6 0
BBX 2 11 2 1
BITMAP
C0
C0
00
00
00
00
00
00
00
C0
C0
ENDCHAR
STARTCHAR semicolon
ENCODING 59
SWIDTH 303 0
DWIDTH 6 0
BBX 2 13 2 -1
BITMAP
C0
C0
00
00
00
00
00
00
00
C0
C0
80
80
ENDCHAR
STARTCHAR less
ENCODING 60
SWIDTH 547 0
DWIDTH 11 0
BBX 8 20 2 -4
BITMAP
01
03
06
04
08
18
30
60
C0
80
80
C0
60
30
18
08
04
06
03
01
ENDCHAR
STARTCHAR equal
ENCODING 61
SWIDTH 654 0
DWIDTH 13 0
BBX 11 5 1 4
BITMAP
FFE0
0000
0000
0000
FFE0
ENDCHAR
STARTCHAR greater
ENCODING 62
SWIDTH 547 0
DWIDTH 11 0
BBX 9 20 1 -4
BITMAP
8000
C000
6000
3000
1000
0800
0C00
0600
0300
0180
0180
0300
0600
0C00
0800
1000
3000
6000
C000
8000
ENDCHAR
STARTCHAR question
ENCODING 63
SWIDTH 545 0
DWIDTH 11 0
BBX 7 15 2 -1
BITMAP
F8
06
02
02
02
06
04
08
10
30
30
00
00
30
30
ENDCHAR
STARTCHAR at
ENCODING 64
SWIDTH 872 0
DWIDTH 17 0
BBX 15 15 1 -1
BITMAP
07E0
1818
200C
63D6
4672
CC32
8822
9822
D866
D844
48C8
6774
300C
1838
07E0
ENDCHAR
STARTCHAR A
ENCODING 65
SWIDTH 727 0
DWIDTH 15 0
BBX 13 15 1 -1
BITMAP
0700
0700
0500
0D80
0880
1880
10C0
1040
3060
2060
7FE0
4030
C010
C018
8018
ENDCHAR
STARTCHAR B
ENCODING 66
SWIDTH 606 0
DWIDTH 12 0
BBX 9 15 2 -1
BITMAP
FC00
8300
8300
8100
8100
8300
8600
FC00
8300
8100
8180
8180
8100
8300
FC00
ENDCHAR
STARTCHAR C
ENCODING 67
SWIDTH 672 0
DWIDTH 13 0
BBX 11 15 1 -1
BITMAP
07E0
1800
3000
6000
4000
4000
C000
C000
C000
4000
4000
6000
3000
1800
07E0
ENDCHAR
STARTCHAR D
ENCODING 68
SWIDTH 727 0
DWIDTH 15 0
BBX 11 15 2 -1
BITMAP
FE00
8380
80C0
8040
8060
8060
8020
8020
8020
8060
8060
8040
8080
8300
FC00
ENDCHAR
STARTCHAR E
ENCODING 69
SWIDTH 576 0
DWIDTH 12 0
BBX 8 15 2 -1
BITMAP
FF
80
80
80
80
80
80
FE
80
80
80
80
80
80
FF
ENDCHAR
STARTCHAR F
ENCODING 70
SWIDTH 503 0
DWIDTH 10 0
BBX 7 15 2 -1
BITMAP
FE
80
80
80
80
80
80
FE
80
80
80
80
80
80
80
ENDCHAR
STARTCHAR G
ENCODING 71
SWIDTH 797 0
DWIDTH 16 0
BBX 12 15 2 -1
BITMAP
0FE0
3800
6000
4000
C000
8000
8000
83F0
8030
8030
C030
C030
6030
3830
0FC0
ENDCHAR
STARTCHAR H
ENCODING 72
SWIDTH 727 0
DWIDTH 15 0
BBX 11 15 2 -1
BITMAP
C060
C060
C060
C060
C060
C060
C060
FFE0
C060
C060
C060
C060
C060
C060
C060
ENDCHAR
STARTCHAR I
ENCODING 73
SWIDTH 242 0
DWIDTH 5 0
BBX 1 15 2 -1
BITMAP
80
80
80
80
80
80
80
80
80
80
80
80
80
80
80
ENDCHAR
STARTCHAR J
ENCODING 74
SWIDTH 363 0
DWIDTH 7 0
BBX 6 15 0 -1
BITMAP
0C
0C
0C
0C
0C
0C
0C
0C
0C
0C
0C
0C
08
18
F0
ENDCHAR
STARTCHAR K
ENCODING 75
SWIDTH 641 0
DWIDTH 13 0
BBX 10 15 2 -1
BITMAP
C0C0
C180
C300
C600
CC00
C800
D800
F800
EC00
C600
C200
C300
C180
C080
C0C0
ENDCHAR
STARTCHAR L
ENCODING 76
SWIDTH 484 0
DWIDTH 10 0
BBX 7 15 2 -1
BITMAP
80
80
80
80
80
80
80
80
80
80
80
80
80
80
FE
ENDCHAR
STARTCHAR M
ENCODING 77
SWIDTH 969 0
DWIDTH 19 0
BBX 15 15 2 -1
BITMAP
C006
A00E
A00A
B00A
901A
9012
8832
8822
8C22
8462
8642
82C2
8282
8382
8182
ENDCHAR
STARTCHAR N
ENCODING 78
SWIDTH 727 0
DWIDTH 15 0
BBX 11 15 2 -1
BITMAP
C060
E060
A060
B060
9060
9860
8860
8C60
8660
8260
8360
8160
81E0
80E0
80E0
ENDCHAR
STARTCHAR O
ENCODING 79
SWIDTH 787 0
DWIDTH 16 0
BBX 13 15 1 -1
BITMAP
0FC0
1860
2030
6018
4018
4008
C008
C008
C008
4008
4018
6018
3030
1860
0FC0
ENDCHAR
STARTCHAR P
ENCODING 80
SWIDTH 577 0
DWIDTH 12 0
BBX 9 15 2 -1
BITMAP
FE00
8300
8180
8180
8180
8180
8100
8300
FE00
8000
8000
8000
8000
8000
8000
ENDCHAR
STARTCHAR Q
ENCODING 81
SWIDTH 787 0
DWIDTH 16 0
BBX 13 18 1 -4
BITMAP
0FC0
1860
2030
6018
4008
4008
C008
C008
C008
4008
4008
6018
2030
1860
0FC0
0040
0020
0030
ENDCHAR
STARTCHAR R
ENCODING 82
SWIDTH 622 0
DWIDTH 12 0
BBX 10 15 2 -1
BITMAP
FE00
C300
C180
C180
C180
C180
C100
C300
FC00
C600
C200
C300
C180
C180
C0C0
ENDCHAR
STARTCHAR S
ENCODING 83
SWIDTH 545 0
DWIDTH 11 0
BBX 9 15 1 -1
BITMAP
1F00
6000
4000
C000
C000
6000
3800
0C00
0700
0100
0180
0180
0100
C300
3C00
ENDCHAR
STARTCHAR T
ENCODING 84
SWIDTH 545 0
DWIDTH 11 0
BBX 11 15 0 -1
BITMAP
FFE0
0400
0400
0400
0400
0400
0400
0400
0400
0400
0400
0400
0400
0400
0400
ENDCHAR
STARTCHAR U
ENCODING 85
SWIDTH 727 0
DWIDTH 15 0
BBX 11 15 2 -1
BITMAP
8060
8060
8060
8060
8060
8060
8060
8060
8060
8060
8060
C040
40C0
6180
1F00
ENDCHAR
STARTCHAR V
ENCODING 86
SWIDTH 666 0
DWIDTH 13 0
BBX 12 15 1 -1
BITMAP
8030
8030
C020
4060
4040
6040
20C0
3080
3080
1180
1900
0B00
0A00
0E00
0600
ENDCHAR
STARTCHAR W
ENCODING 87
SWIDTH 1029 0
DWIDTH 21 0
BBX 19 15 1 -1
BITMAP
80C020
80E060
C0A040
C1A040
4120C0
4130C0
611080
231080
221980
320900
360900
140900
140F00
1C0600
0C0600
ENDCHAR
STARTCHAR X
ENCODING 88
SWIDTH 666 0
DWIDTH 13 0
BBX 12 15 1 -1
BITMAP
C020
6060
20C0
3080
1980
0B00
0E00
0600
0F00
1900
1180
20C0
6040
C060
8030
ENDCHAR
STARTCHAR Y
ENCODING 89
SWIDTH 666 0
DWIDTH 13 0
BBX 12 15 1 -1
BITMAP
8030
C060
6040
20C0
3080
1900
0B00
0E00
0600
0400
0400
0400
0400
0400
0400
ENDCHAR
STARTCHAR Z
ENCODING 90
SWIDTH 545 0
DWIDTH 11 0
BBX 9 15 1 -1
BITMAP
FF80
0180
0100
0300
0600
0400
0C00
0800
1800
3000
2000
6000
4000
C000
FF80
ENDCHAR
STARTCHAR bracketleft
ENCODING 91
SWIDTH 363 0
DWIDTH 7 0
BBX 3 20 3 -4
BITMAP
E0
80
80
80
80
80
80
80
80
80
80
80
80
80
80
80
80
80
80
E0
ENDCHAR
STARTCHAR backslash
ENCODING 92
SWIDTH 966 0
DWIDTH 19 0
BBX 17 15 1 -1
BITMAP
60C100
20C100
21C300
214200
214200
316200
FFFF80
122600
122400
122400
1A3400
0E1C00
0C1800
0C1800
0C1800
ENDCHAR
STARTCHAR bracketright
ENCODING 93
SWIDTH 363 0
DWIDTH 7 0
BBX 4 20 1 -4
BITMAP
F0
30
30
30
30
30
30
30
30
30
30
30
30
30
30
30
30
30
30
F0
ENDCHAR
STARTCHAR asciicircum
ENCODING 94
SWIDTH 654 0
DWIDTH 13 0
BBX 10 9 2 5
BITMAP
0C00
1C00
1600
3200
2300
6100
4180
C080
80C0
ENDCHAR
STARTCHAR underscore
ENCODING 95
SWIDTH 545 0
DWIDTH 11 0
BBX 11 1 0 -4
BITMAP
FFE0
ENDCHAR
STARTCHAR grave
ENCODING 96
SWIDTH 242 0
DWIDTH 5 0
BBX 3 3 1 11
BITMAP
80
C0
60
ENDCHAR
STARTCHAR a
ENCODING 97
SWIDTH 545 0
DWIDTH 11 0
BBX 8 11 1 -1
BITMAP
3E
43
01
01
3F
61
C1
C1
C3
C7
7D
ENDCHAR
STARTCHAR b
ENCODING 98
SWIDTH 606 0
DWIDTH 12 0
BBX 9 16 2 -1
BITMAP
8000
8000
8000
8000
8000
BE00
E300
C180
8180
8080
8080
8080
8180
C100
E300
BE00
ENDCHAR
STARTCHAR c
ENCODING 99
SWIDTH 484 0
DWIDTH 10 0
BBX 8 11 1 -1
BITMAP
1F
30
40
C0
C0
C0
C0
C0
40
30
1F
ENDCHAR
STARTCHAR d
ENCODING 100
SWIDTH 606 0
DWIDTH 12 0
BBX 10 16 1 -1
BITMAP
00C0
00C0
00C0
00C0
00C0
3EC0
61C0
41C0
C0C0
C0C0
C0C0
C0C0
C0C0
41C0
63C0
1EC0
ENDCHAR
STARTCHAR e
ENCODING 101
SWIDTH 545 0
DWIDTH 11 0
BBX 9 11 1 -1
BITMAP
1E00
6300
4180
C180
C080
FF80
C000
C000
4000
6100
3E00
ENDCHAR
STARTCHAR f
ENCODING 102
SWIDTH 363 0
DWIDTH 7 0
BBX 6 16 1 -1
BITMAP
1C
30
20
20
20
FC
20
20
20
20
20
20
20
20
20
20
ENDCHAR
STARTCHAR g
ENCODING 103
SWIDTH 606 0
DWIDTH 12 0
BBX 10 14 1 -4
BITMAP
3EC0
61C0
40C0
C0C0
C0C0
C0C0
C0C0
40C0
61C0
1E80
0080
0180
0300
7E00
ENDCHAR
STARTCHAR h
ENCODING 104
SWIDTH 606 0
DWIDTH 12 0
BBX 8 16 2 -1
BITMAP
80
80
80
80
80
BE
C3
C1
81
81
81
81
81
81
81
81
ENDCHAR
STARTCHAR i
ENCODING 105
SWIDTH 242 0
DWIDTH 5 0
BBX 1 16 2 -1
BITMAP
80
80
00
00
00
80
80
80
80
80
80
80
80
80
80
80
ENDCHAR
STARTCHAR j
ENCODING 106
SWIDTH 269 0
DWIDTH 5 0
BBX 4 19 0 -4
BITMAP
30
30
00
00
00
30
30
30
30
30
30
30
30
30
30
30
30
30
E0
ENDCHAR
STARTCHAR k
ENCODING 107
SWIDTH 520 0
DWIDTH 10 0
BBX 8 16 2 -1
BITMAP
80
80
80
80
80
82
84
8C
98
B0
B0
D0
88
8C
86
83
ENDCHAR
STARTCHAR l
ENCODING 108
SWIDTH 242 0
DWIDTH 5 0
BBX 1 16 2 -1
BITMAP
80
80
80
80
80
80
80
80
80
80
80
80
80
80
80
80
ENDCHAR
STARTCHAR m
ENCODING 109
SWIDTH 908 0
DWIDTH 18 0
BBX 14 11 2 -1
BITMAP
BC78
C28C
C304
8304
8304
8304
8304
8304
8304
8304
8304
ENDCHAR
STARTCHAR n
ENCODING 110
SWIDTH 606 0
DWIDTH 12 0
BBX 8 11 2 -1
BITMAP
BE
E3
C1
81
81
81
81
81
81
81
81
ENDCHAR
STARTCHAR o
ENCODING 111
SWIDTH 606 0
DWIDTH 12 0
BBX 10 11 1 -1
BITMAP
1F00
6180
40C0
C0C0
C040
8040
C040
C0C0
40C0
6180
1E00
ENDCHAR
STARTCHAR p
ENCODING 112
SWIDTH 606 0
DWIDTH 12 0
BBX 9 14 2 -4
BITMAP
BE00
C300
C100
8180
8180
8180
8180
8180
C100
E300
BC00
8000
8000
8000
ENDCHAR
STARTCHAR q
ENCODING 113
SWIDTH 606 0
DWIDTH 12 0
BBX 10 14 1 -4
BITMAP
1EC0
61C0
40C0
40C0
C0C0
C0C0
C0C0
40C0
60C0
21C0
1EC0
00C0
00C0
00C0
ENDCHAR
STARTCHAR r
ENCODING 114
SWIDTH 363 0
DWIDTH 7 0
BBX 5 11 2 -1
BITMAP
98
A0
C0
C0
80
80
80
80
80
80
80
ENDCHAR
STARTCHAR s
ENCODING 115
SWIDTH 424 0
DWIDTH 8 0
BBX 7 11 1 -1
BITMAP
7C
C0
80
C0
60
38
0C
06
06
04
F8
ENDCHAR
STARTCHAR t
ENCODING 116
SWIDTH 363 0
DWIDTH 7 0
BBX 6 14 1 -1
BITMAP
20
20
20
FC
20
20
20
20
20
20
20
20
20
1C
ENDCHAR
STARTCHAR u
ENCODING 117
SWIDTH 606 0
DWIDTH 12 0
BBX 8 11 2 -1
BITMAP
81
81
81
81
81
81
81
81
C3
C7
7D
ENDCHAR
STARTCHAR v
ENCODING 118
SWIDTH 484 0
DWIDTH 10 0
BBX 8 11 1 -1
BITMAP
81
81
C3
42
42
66
24
24
3C
18
18
ENDCHAR
STARTCHAR w
ENCODING 119
SWIDTH 848 0
DWIDTH 17 0
BBX 17 11 0 -1
BITMAP
C0C180
414100
614100
614300
236200
222200
322600
163400
141400
1C1C00
0C1800
ENDCHAR
STARTCHAR x
ENCODING 120
SWIDTH 510 0
DWIDTH 10 0
BBX 8 11 1 -1
BITMAP
C3
42
26
34
18
18
3C
24
62
C3
81
ENDCHAR
STARTCHAR y
ENCODING 121
SWIDTH 464 0
DWIDTH 9 0
BBX 8 14 1 -4
BITMAP
83
83
C2
46
44
64
2C
38
18
18
10
10
20
E0
ENDCHAR
STARTCHAR z
ENCODING 122
SWIDTH 484 0
DWIDTH 10 0
BBX 8 11 1 -1
BITMAP
FF
03
06
04
08
18
30
20
60
C0
FF
ENDCHAR
STARTCHAR braceleft
ENCODING 123
SWIDTH 303 0
DWIDTH 6 0
BBX 5 20 1 -4
BITMAP
18
20
20
20
20
20
20
20
60
C0
C0
60
20
20
20
20
20
20
20
18
ENDCHAR
STARTCHAR bar
ENCODING 124
SWIDTH 242 0
DWIDTH 5 0
BBX 1 18 2 -3
BITMAP
80
80
80
80
80
80
80
80
80
80
80
80
80
80
80
80
80
80
ENDCHAR
STARTCHAR braceright
ENCODING 125
SWIDTH 303 0
DWIDTH 6 0
BBX 5 20 0 -4
BITMAP
E0
20
30
30
30
30
30
30
10
18
18
10
30
30
30
30
30
30
20
E0
ENDCHAR
STARTCHAR asciitilde
ENCODING 126
SWIDTH 654 0
DWIDTH 13 0
BBX 10 3 2 5
BITMAP
7000
8CC0
0780
ENDCHAR
STARTCHAR uni0000.dup33
ENCODING 160
SWIDTH 280 0
DWIDTH 6 0
BBX 1 1 0 0
BITMAP
00
ENDCHAR
STARTCHAR exclamdown
ENCODING 161
SWIDTH 302 0
DWIDTH 6 0
BBX 2 15 2 -1
BITMAP
C0
C0
00
00
C0
C0
C0
C0
C0
C0
C0
C0
C0
C0
C0
ENDCHAR
STARTCHAR cent
ENCODING 162
SWIDTH 940 0
DWIDTH 19 0
BBX 11 16 4 -2
BITMAP
0040
1F80
3080
4140
4140
C200
8200
8400
8400
C460
4840
6840
3080
1F00
2000
2000
ENDCHAR
STARTCHAR sterling
ENCODING 163
SWIDTH 940 0
DWIDTH 19 0
BBX 11 14 4 -1
BITMAP
0F00
1880
10C0
30C0
3000
1000
1000
FFC0
1800
0800
7820
8860
9E40
71C0
ENDCHAR
STARTCHAR currency
ENCODING 164
SWIDTH 838 0
DWIDTH 17 0
BBX 15 14 1 -1
BITMAP
8002
CFE6
7038
2018
4008
4004
4004
4004
4004
4008
2018
3038
4FE4
8002
ENDCHAR
STARTCHAR yen
ENCODING 165
SWIDTH 940 0
DWIDTH 19 0
BBX 11 14 4 -1
BITMAP
C060
4040
60C0
2180
3100
FFE0
0A00
0E00
FFE0
0400
0400
0400
0400
0400
ENDCHAR
STARTCHAR section
ENCODING 167
SWIDTH 346 0
DWIDTH 7 0
BBX 5 16 1 -2
BITMAP
70
88
80
C0
60
F0
90
88
88
48
38
10
18
08
88
70
ENDCHAR
STARTCHAR dieresis
ENCODING 168
SWIDTH 540 0
DWIDTH 11 0
BBX 7 2 2 12
BITMAP
C6
C6
ENDCHAR
STARTCHAR copyright
ENCODING 169
SWIDTH 855 0
DWIDTH 17 0
BBX 16 15 1 -1
BITMAP
07E0
1838
200C
47C4
8C62
9832
9001
9001
9001
9832
8C62
47C4
600C
1838
07E0
ENDCHAR
STARTCHAR ordfeminine
ENCODING 170
SWIDTH 541 0
DWIDTH 11 0
BBX 7 8 2 6
BITMAP
78
44
1C
64
84
5C
20
FE
ENDCHAR
STARTCHAR guillemotleft
ENCODING 171
SWIDTH 940 0
DWIDTH 19 0
BBX 15 14 2 -1
BITMAP
0044
0088
0310
0460
1880
2300
4400
C400
2200
1980
0440
0330
0088
0046
ENDCHAR
STARTCHAR logicalnot
ENCODING 172
SWIDTH 940 0
DWIDTH 19 0
BBX 17 6 1 -3
BITMAP
FFFF80
000080
000080
000080
000080
000080
ENDCHAR
STARTCHAR uni00AD
ENCODING 173
SWIDTH 410 0
DWIDTH 8 0
BBX 6 1 1 6
BITMAP
FC
ENDCHAR
STARTCHAR registered
ENCODING 174
SWIDTH 940 0
DWIDTH 19 0
BBX 16 17 1 -2
BITMAP
01C0
0E30
180C
27C6
47E2
4631
4631
8621
87C1
86C1
4661
4621
6632
2616
180C
0F70
0080
ENDCHAR
STARTCHAR degree
ENCODING 176
SWIDTH 446 0
DWIDTH 9 0
BBX 5 4 2 10
BITMAP
70
88
88
70
ENDCHAR
STARTCHAR plusminus
ENCODING 177
SWIDTH 567 0
DWIDTH 11 0
BBX 10 13 1 0
BITMAP
0800
0800
0800
0800
FFC0
0800
0800
0800
0800
0800
0000
0000
FFC0
ENDCHAR
STARTCHAR uni00B2
ENCODING 178
SWIDTH 410 0
DWIDTH 8 0
BBX 3 5 3 10
BITMAP
40
A0
20
C0
C0
ENDCHAR
STARTCHAR uni00B3
ENCODING 179
SWIDTH 428 0
DWIDTH 9 0
BBX 3 5 3 10
BITMAP
C0
20
40
20
E0
ENDCHAR
STARTCHAR acute
ENCODING 180
SWIDTH 324 0
DWIDTH 6 0
BBX 3 4 2 11
BITMAP
60
40
C0
80
ENDCHAR
STARTCHAR paragraph
ENCODING 182
SWIDTH 605 0
DWIDTH 12 0
BBX 8 16 2 -2
BITMAP
7F
F9
F9
F9
F9
F9
79
09
09
09
09
09
09
09
09
09
ENDCHAR
STARTCHAR periodcentered
ENCODING 183
SWIDTH 290 0
DWIDTH 6 0
BBX 2 2 2 6
BITMAP
C0
C0
ENDCHAR
STARTCHAR cedilla
ENCODING 184
SWIDTH 317 0
DWIDTH 6 0
BBX 4 4 1 -4
BITMAP
40
70
10
F0
ENDCHAR
STARTCHAR uni00B9
ENCODING 185
SWIDTH 405 0
DWIDTH 8 0
BBX 2 5 3 10
BITMAP
40
C0
40
40
40
ENDCHAR
STARTCHAR ordmasculine
ENCODING 186
SWIDTH 541 0
DWIDTH 11 0
BBX 7 8 2 6
BITMAP
78
44
84
84
44
6C
10
FE
ENDCHAR
STARTCHAR guillemotright
ENCODING 187
SWIDTH 940 0
DWIDTH 19 0
BBX 14 14 2 -1
BITMAP
8400
6200
1180
0C40
0220
0198
0044
0044
0188
0230
0C40
1180
6200
8400
ENDCHAR
STARTCHAR onequarter
ENCODING 188
SWIDTH 737 0
DWIDTH 15 0
BBX 11 16 2 -2
BITMAP
2000
C000
2020
2040
2080
2100
2200
0400
0800
1040
20C0
4140
8240
83E0
0040
0040
ENDCHAR
STARTCHAR onehalf
ENCODING 189
SWIDTH 705 0
DWIDTH 14 0
BBX 11 16 2 -2
BITMAP
4000
C000
4020
4040
4080
4100
4200
0400
0800
11C0
2220
4220
8040
0080
0300
03E0
ENDCHAR
STARTCHAR threequarters
ENCODING 190
SWIDTH 746 0
DWIDTH 15 0
BBX 11 16 2 -2
BITMAP
F000
9000
1020
7040
1040
9080
F100
0200
0400
0840
10C0
2140
4140
83E0
0040
0040
ENDCHAR
STARTCHAR questiondown
ENCODING 191
SWIDTH 540 0
DWIDTH 11 0
BBX 7 15 2 -1
BITMAP
18
18
00
00
18
18
30
20
40
C0
80
80
C0
E2
3E
ENDCHAR
STARTCHAR Agrave
ENCODING 192
SWIDTH 654 0
DWIDTH 13 0
BBX 13 17 0 -1
BITMAP
0C00
0600
0200
0200
0700
0500
0D80
0C80
0880
18C0
1040
3060
3FE0
2020
6030
4010
C018
ENDCHAR
STARTCHAR Aacute
ENCODING 193
SWIDTH 654 0
DWIDTH 13 0
BBX 13 17 0 -1
BITMAP
0180
0300
0200
0200
0700
0500
0D80
0C80
0880
18C0
1040
3060
3FE0
2020
6030
4010
C018
ENDCHAR
STARTCHAR Acircumflex
ENCODING 194
SWIDTH 654 0
DWIDTH 13 0
BBX 13 17 0 -1
BITMAP
0700
0D80
0880
0200
0700
0500
0D80
0C80
0880
18C0
1040
3060
3FE0
2020
6030
4010
C018
ENDCHAR
STARTCHAR AE
ENCODING 198
SWIDTH 846 0
DWIDTH 17 0
BBX 15 14 1 -1
BITMAP
0FFE
1F00
1900
1100
3100
3100
31FC
2100
6100
7F00
6100
4100
C100
C1FE
ENDCHAR
STARTCHAR Ccedilla
ENCODING 199
SWIDTH 571 0
DWIDTH 11 0
BBX 10 17 1 -4
BITMAP
0700
1FC0
6000
4000
C000
8000
8000
8000
8000
C000
4000
7000
1FC0
0600
0700
0300
0E00
ENDCHAR
STARTCHAR Egrave
ENCODING 200
SWIDTH 519 0
DWIDTH 10 0
BBX 8 17 1 -1
BITMAP
30
10
08
FF
C0
C0
C0
C0
C0
FF
C0
C0
C0
C0
C0
C0
FF
ENDCHAR
STARTCHAR Eacute
ENCODING 201
SWIDTH 519 0
DWIDTH 10 0
BBX 8 17 1 -1
BITMAP
06
0C
18
FF
FF
C0
C0
C0
C0
FF
C0
C0
C0
C0
C0
C0
FF
ENDCHAR
STARTCHAR Ecircumflex
ENCODING 202
SWIDTH 519 0
DWIDTH 10 0
BBX 8 17 1 -1
BITMAP
1C
34
66
FF
C0
C0
C0
C0
C0
FF
C0
C0
C0
C0
C0
C0
FF
ENDCHAR
STARTCHAR Edieresis
ENCODING 203
SWIDTH 519 0
DWIDTH 10 0
BBX 8 17 1 -1
BITMAP
66
66
00
FF
C0
C0
C0
C0
C0
FF
C0
C0
C0
C0
C0
C0
FF
ENDCHAR
STARTCHAR Iacute
ENCODING 205
SWIDTH 390 0
DWIDTH 8 0
BBX 3 17 3 -1
BITMAP
20
60
C0
00
C0
C0
C0
C0
C0
C0
C0
C0
C0
C0
C0
C0
C0
ENDCHAR
STARTCHAR Icircumflex
ENCODING 206
SWIDTH 373 0
DWIDTH 7 0
BBX 5 17 1 -1
BITMAP
70
58
C8
20
30
30
30
30
30
30
30
30
30
30
30
30
30
ENDCHAR
STARTCHAR Idieresis
ENCODING 207
SWIDTH 387 0
DWIDTH 8 0
BBX 6 17 1 -1
BITMAP
88
CC
00
30
30
30
30
30
30
30
30
30
30
30
30
30
30
ENDCHAR
STARTCHAR Eth
ENCODING 208
SWIDTH 794 0
DWIDTH 16 0
BBX 14 14 1 -1
BITMAP
1FE0
1030
1018
1008
1008
FC08
100C
100C
1008
1008
1018
1010
10E0
1F80
ENDCHAR
STARTCHAR Ntilde
ENCODING 209
SWIDTH 727 0
DWIDTH 15 0
BBX 11 17 2 -1
BITMAP
0900
1F00
0200
C060
C060
E060
B060
9060
9860
8C60
8460
8660
8360
8160
81E0
80E0
8060
ENDCHAR
STARTCHAR Oacute
ENCODING 211
SWIDTH 700 0
DWIDTH 14 0
BBX 12 17 1 -1
BITMAP
0300
0600
0400
0F00
39C0
6060
4020
C030
C030
8030
8010
C030
C030
4020
6060
30C0
1F80
ENDCHAR
STARTCHAR Ocircumflex
ENCODING 212
SWIDTH 700 0
DWIDTH 14 0
BBX 12 17 1 -1
BITMAP
0600
0F00
1980
0F00
39C0
6060
4020
C030
C030
8030
8010
C030
C030
4020
6060
30C0
1F80
ENDCHAR
STARTCHAR multiply
ENCODING 215
SWIDTH 592 0
DWIDTH 12 0
BBX 10 9 1 2
BITMAP
C0C0
6180
3300
1C00
0C00
1600
2300
4180
80C0
ENDCHAR
STARTCHAR Oslash
ENCODING 216
SWIDTH 780 0
DWIDTH 16 0
BBX 13 18 1 -3
BITMAP
0010
0790
1CE0
3070
6050
4098
4088
C108
C108
C208
4408
4418
6810
2830
1860
2FC0
2000
4000
ENDCHAR
STARTCHAR Ugrave
ENCODING 217
SWIDTH 641 0
DWIDTH 13 0
BBX 11 17 1 -1
BITMAP
1800
0C00
0400
8060
8060
8060
8060
8060
8060
8060
8060
8060
C060
C060
4040
61C0
1F00
ENDCHAR
STARTCHAR Uacute
ENCODING 218
SWIDTH 641 0
DWIDTH 13 0
BBX 11 17 1 -1
BITMAP
0600
0600
0C00
8060
8060
8060
8060
8060
8060
8060
8060
8060
C060
C060
4040
61C0
1F00
ENDCHAR
STARTCHAR Ucircumflex
ENCODING 219
SWIDTH 641 0
DWIDTH 13 0
BBX 11 17 1 -1
BITMAP
0E00
1A00
1100
8060
8060
8060
8060
8060
8060
8060
8060
8060
C060
C060
4040
61C0
1F00
ENDCHAR
STARTCHAR Udieresis
ENCODING 220
SWIDTH 641 0
DWIDTH 13 0
BBX 11 17 1 -1
BITMAP
1100
1300
0000
8060
8060
8060
8060
8060
8060
8060
8060
8060
C060
C060
4040
61C0
1F00
ENDCHAR
STARTCHAR Thorn
ENCODING 222
SWIDTH 530 0
DWIDTH 11 0
BBX 7 14 2 -1
BITMAP
80
80
F8
8C
84
82
82
82
86
8C
B8
E0
80
80
ENDCHAR
STARTCHAR germandbls
ENCODING 223
SWIDTH 657 0
DWIDTH 13 0
BBX 10 15 2 -1
BITMAP
3E00
6300
C180
C180
C180
C180
C700
DF00
C180
C080
C0C0
C0C0
D0C0
D080
DF80
ENDCHAR
STARTCHAR agrave
ENCODING 224
SWIDTH 522 0
DWIDTH 10 0
BBX 8 15 1 -1
BITMAP
30
18
0C
00
7E
43
01
01
1F
71
C1
C1
C3
C7
7D
ENDCHAR
STARTCHAR aacute
ENCODING 225
SWIDTH 522 0
DWIDTH 10 0
BBX 8 15 1 -1
BITMAP
06
0C
18
00
7E
43
01
01
1F
71
C1
C1
C3
C7
7D
ENDCHAR
STARTCHAR acircumflex
ENCODING 226
SWIDTH 522 0
DWIDTH 10 0
BBX 8 15 1 -1
BITMAP
1C
34
22
00
7E
43
01
01
1F
71
C1
C1
C3
C7
7D
ENDCHAR
STARTCHAR adieresis
ENCODING 228
SWIDTH 522 0
DWIDTH 10 0
BBX 8 14 1 -1
BITMAP
36
22
00
7E
43
01
01
1F
71
C1
C1
C3
C7
7D
ENDCHAR
STARTCHAR ae
ENCODING 230
SWIDTH 915 0
DWIDTH 18 0
BBX 16 11 1 -1
BITMAP
7E7C
41C6
0183
0183
1F81
71FF
C180
C180
C180
43C0
7E7E
ENDCHAR
STARTCHAR ccedilla
ENCODING 231
SWIDTH 502 0
DWIDTH 10 0
BBX 8 14 1 -4
BITMAP
3F
60
40
C0
C0
80
C0
C0
60
3F
0C
0E
02
0E
ENDCHAR
STARTCHAR egrave
ENCODING 232
SWIDTH 549 0
DWIDTH 11 0
BBX 9 15 1 -1
BITMAP
1800
1800
0C00
0000
3E00
6300
4180
C180
8180
FF80
8000
C000
C000
6000
3F00
ENDCHAR
STARTCHAR eacute
ENCODING 233
SWIDTH 549 0
DWIDTH 11 0
BBX 9 15 1 -1
BITMAP
0600
0C00
0800
0000
3E00
6300
4180
C180
8180
FF80
8000
C000
C000
6000
3F00
ENDCHAR
STARTCHAR ecircumflex
ENCODING 234
SWIDTH 549 0
DWIDTH 11 0
BBX 9 15 1 -1
BITMAP
1C00
1600
2200
0000
3E00
6300
4180
C180
8180
FF80
8000
C000
C000
6000
3F00
ENDCHAR
STARTCHAR edieresis
ENCODING 235
SWIDTH 549 0
DWIDTH 11 0
BBX 9 14 1 -1
BITMAP
3200
2200
0000
3E00
6300
4180
C180
8180
FF80
8000
C000
C000
6000
3F00
ENDCHAR
STARTCHAR iacute
ENCODING 237
SWIDTH 385 0
DWIDTH 8 0
BBX 3 15 3 -1
BITMAP
60
60
C0
00
80
80
80
80
80
80
80
80
80
80
80
ENDCHAR
STARTCHAR icircumflex
ENCODING 238
SWIDTH 373 0
DWIDTH 7 0
BBX 5 15 1 -1
BITMAP
70
58
C8
00
20
20
20
20
20
20
20
20
20
20
20
ENDCHAR
STARTCHAR idieresis
ENCODING 239
SWIDTH 387 0
DWIDTH 8 0
BBX 6 14 1 -1
BITMAP
CC
88
00
30
30
30
30
30
30
30
30
30
30
30
ENDCHAR
STARTCHAR eth
ENCODING 240
SWIDTH 592 0
DWIDTH 12 0
BBX 10 15 1 -1
BITMAP
0900
0600
0600
0100
1F80
3380
4180
40C0
C0C0
80C0
80C0
C080
4080
6100
1E00
ENDCHAR
STARTCHAR ntilde
ENCODING 241
SWIDTH 606 0
DWIDTH 12 0
BBX 8 15 2 -1
BITMAP
32
6E
00
00
BE
C3
C1
81
81
81
81
81
81
81
81
ENDCHAR
STARTCHAR oacute
ENCODING 243
SWIDTH 612 0
DWIDTH 12 0
BBX 10 15 1 -1
BITMAP
0300
0600
0C00
0000
3F00
6180
40C0
C0C0
C040
8040
C040
C0C0
40C0
6180
3F00
ENDCHAR
STARTCHAR ocircumflex
ENCODING 244
SWIDTH 612 0
DWIDTH 12 0
BBX 10 15 1 -1
BITMAP
0C00
1E00
3300
0000
3F00
6180
40C0
C0C0
C040
8040
C040
C0C0
40C0
6180
3F00
ENDCHAR
STARTCHAR odieresis
ENCODING 246
SWIDTH 612 0
DWIDTH 12 0
BBX 10 14 1 -1
BITMAP
3300
1000
0000
3F00
6180
40C0
C0C0
C040
8040
C040
C0C0
40C0
6180
3F00
ENDCHAR
STARTCHAR divide
ENCODING 247
SWIDTH 650 0
DWIDTH 13 0
BBX 11 10 1 1
BITMAP
0400
0400
0000
0000
FFE0
0000
0000
0000
0400
0400
ENDCHAR
STARTCHAR oslash
ENCODING 248
SWIDTH 612 0
DWIDTH 12 0
BBX 10 13 1 -2
BITMAP
0100
1F00
3300
6280
42C0
C440
C440
C840
48C0
5080
3180
3E00
2000
ENDCHAR
STARTCHAR ugrave
ENCODING 249
SWIDTH 550 0
DWIDTH 11 0
BBX 9 15 1 -1
BITMAP
3000
1800
0800
0000
C180
C180
C180
C180
C180
C180
C180
C180
C180
4280
3C80
ENDCHAR
STARTCHAR uacute
ENCODING 250
SWIDTH 550 0
DWIDTH 11 0
BBX 9 15 1 -1
BITMAP
0C00
0800
1800
0000
C180
C180
C180
C180
C180
C180
C180
C180
C180
4280
3C80
ENDCHAR
STARTCHAR ucircumflex
ENCODING 251
SWIDTH 550 0
DWIDTH 11 0
BBX 9 15 1 -1
BITMAP
1C00
3600
2200
0000
C180
C180
C180
C180
C180
C180
C180
C180
C180
4280
3C80
ENDCHAR
STARTCHAR udieresis
ENCODING 252
SWIDTH 550 0
DWIDTH 11 0
BBX 9 14 1 -1
BITMAP
3200
2200
0000
C180
C180
C180
C180
C180
C180
C180
C180
C180
4280
3C80
ENDCHAR
STARTCHAR thorn
ENCODING 254
SWIDTH 599 0
DWIDTH 12 0
BBX 8 16 2 -3
BITMAP
80
80
80
B8
C6
82
81
81
81
81
81
83
C6
FC
80
80
ENDCHAR
STARTCHAR dcroat
ENCODING 273
SWIDTH 663 0
DWIDTH 13 0
BBX 11 14 1 -1
BITMAP
0080
03E0
0080
1C80
6380
4180
C080
8080
8080
8080
C080
4180
6380
3E80
ENDCHAR
STARTCHAR Hbar
ENCODING 294
SWIDTH 783 0
DWIDTH 16 0
BBX 13 14 1 -1
BITMAP
6010
6010
FFF8
6010
6010
6010
7FF0
6010
6010
6010
6010
6010
6010
6010
ENDCHAR
STARTCHAR hbar
ENCODING 295
SWIDTH 653 0
DWIDTH 13 0
BBX 10 14 1 -1
BITMAP
2000
FC00
2000
2700
3980
30C0
2040
2040
2040
2040
2040
2040
2040
2040
ENDCHAR
STARTCHAR dotlessi
ENCODING 305
SWIDTH 280 0
DWIDTH 6 0
BBX 1 11 2 -1
BITMAP
80
80
80
80
80
80
80
80
80
80
80
ENDCHAR
STARTCHAR IJ
ENCODING 306
SWIDTH 685 0
DWIDTH 14 0
BBX 10 14 2 -1
BITMAP
8040
8040
8040
8040
8040
8040
8040
8040
8040
B040
B040
B040
9880
8F80
ENDCHAR
STARTCHAR ij
ENCODING 307
SWIDTH 493 0
DWIDTH 10 0
BBX 5 17 2 -4
BITMAP
C8
C8
00
C8
C8
C8
C8
C8
C8
C8
C8
C8
C8
C8
08
08
18
ENDCHAR
STARTCHAR kgreenlandic
ENCODING 312
SWIDTH 568 0
DWIDTH 11 0
BBX 9 11 1 -1
BITMAP
C180
C300
C400
C800
D800
E800
C400
C600
C200
C100
C180
ENDCHAR
STARTCHAR Ldot
ENCODING 319
SWIDTH 576 0
DWIDTH 12 0
BBX 9 14 1 -1
BITMAP
C000
C000
C000
C000
C000
C600
C600
C000
C000
C000
C000
C000
C000
FF80
ENDCHAR
STARTCHAR ldot
ENCODING 320
SWIDTH 412 0
DWIDTH 8 0
BBX 5 14 2 -1
BITMAP
80
80
80
80
80
98
98
80
80
80
80
80
80
80
ENDCHAR
STARTCHAR Lslash
ENCODING 321
SWIDTH 770 0
DWIDTH 15 0
BBX 12 14 2 -1
BITMAP
1000
1000
1100
1200
1400
1800
1000
3000
5000
9000
1000
1000
1000
1FF0
ENDCHAR
STARTCHAR lslash
ENCODING 322
SWIDTH 455 0
DWIDTH 9 0
BBX 5 14 2 -1
BITMAP
20
20
20
28
38
30
60
E0
A0
20
20
20
20
20
ENDCHAR
STARTCHAR napostrophe
ENCODING 329
SWIDTH 727 0
DWIDTH 15 0
BBX 11 13 2 -1
BITMAP
C000
C000
5380
9CC0
1860
1020
1020
1020
1020
1020
1020
1020
1020
ENDCHAR
STARTCHAR Eng
ENCODING 330
SWIDTH 705 0
DWIDTH 14 0
BBX 11 17 2 -4
BITMAP
C060
C060
E060
B060
9060
9860
8C60
8460
8660
8360
8160
81E0
80E0
8060
0840
0CC0
0780
ENDCHAR
STARTCHAR eng
ENCODING 331
SWIDTH 619 0
DWIDTH 12 0
BBX 8 14 2 -4
BITMAP
9C
A3
C1
C1
81
81
81
81
81
81
81
21
33
0E
ENDCHAR
STARTCHAR OE
ENCODING 338
SWIDTH 865 0
DWIDTH 17 0
BBX 15 14 1 -1
BITMAP
0FFE
3F80
7180
6180
C180
C180
C1FE
C180
C180
C180
4180
6180
3980
0FFE
ENDCHAR
STARTCHAR oe
ENCODING 339
SWIDTH 947 0
DWIDTH 19 0
BBX 17 11 1 -1
BITMAP
3E1E00
632100
C1C180
80C080
80C080
80FF80
80C000
80C000
C1E000
633080
3E1F00
ENDCHAR
STARTCHAR Tbar
ENCODING 358
SWIDTH 649 0
DWIDTH 13 0
BBX 11 14 1 -1
BITMAP
FFE0
0400
0400
0400
0400
0400
3F80
0400
0400
0400
0400
0400
0400
0400
ENDCHAR
STARTCHAR tbar
ENCODING 359
SWIDTH 440 0
DWIDTH 9 0
BBX 5 14 2 -1
BITMAP
20
20
20
F8
F8
20
F8
20
20
20
20
20
20
38
ENDCHAR
STARTCHAR uni02BC
ENCODING 700
SWIDTH 199 0
DWIDTH 4 0
BBX 2 5 1 10
BITMAP
C0
C0
40
40
80
ENDCHAR
STARTCHAR caron
ENCODING 711
SWIDTH 514 0
DWIDTH 10 0
BBX 7 2 2 12
BITMAP
C6
38
ENDCHAR
STARTCHAR uni02D0
ENCODING 720
SWIDTH 940 0
DWIDTH 19 0
BBX 3 8 8 2
BITMAP
E0
40
00
00
00
00
40
E0
ENDCHAR
STARTCHAR breve
ENCODING 728
SWIDTH 516 0
DWIDTH 10 0
BBX 8 2 1 12
BITMAP
81
7E
ENDCHAR
STARTCHAR dotaccent
ENCODING 729
SWIDTH 254 0
DWIDTH 5 0
BBX 3 3 1 11
BITMAP
40
E0
E0
ENDCHAR
STARTCHAR ring
ENCODING 730
SWIDTH 320 0
DWIDTH 6 0
BBX 4 5 1 10
BITMAP
60
90
90
90
60
ENDCHAR
STARTCHAR ogonek
ENCODING 731
SWIDTH 298 0
DWIDTH 6 0
BBX 4 3 1 -4
BITMAP
40
90
60
ENDCHAR
STARTCHAR tilde
ENCODING 732
SWIDTH 900 0
DWIDTH 18 0
BBX 9 2 5 12
BITMAP
F080
0F00
ENDCHAR
STARTCHAR hungarumlaut
ENCODING 733
SWIDTH 468 0
DWIDTH 9 0
BBX 7 5 1 10
BITMAP
36
24
44
48
80
ENDCHAR
STARTCHAR Alpha
ENCODING 913
SWIDTH 714 0
DWIDTH 14 0
BBX 12 14 1 -1
BITMAP
0600
0700
0D00
0900
0980
1080
10C0
3040
3FC0
2060
6020
4020
C030
C010
ENDCHAR
STARTCHAR Beta
ENCODING 914
SWIDTH 680 0
DWIDTH 14 0
BBX 11 14 1 -1
BITMAP
FFC0
C040
C060
C060
C040
C0C0
FF80
C060
C020
C020
C020
C060
C0C0
FF00
ENDCHAR
STARTCHAR Gamma
ENCODING 915
SWIDTH 620 0
DWIDTH 12 0
BBX 10 14 1 -1
BITMAP
FFC0
C000
C000
C000
C000
C000
C000
C000
C000
C000
C000
C000
C000
C000
ENDCHAR
STARTCHAR uni0394
ENCODING 916
SWIDTH 734 0
DWIDTH 15 0
BBX 12 14 1 -1
BITMAP
0600
0700
0500
0D00
0880
1880
10C0
1040
3040
2060
2020
4030
4010
FFF0
ENDCHAR
STARTCHAR Epsilon
ENCODING 917
SWIDTH 593 0
DWIDTH 12 0
BBX 10 14 1 -1
BITMAP
FFC0
C000
C000
C000
C000
C000
FF80
C000
C000
C000
C000
C000
C000
FFC0
ENDCHAR
STARTCHAR Zeta
ENCODING 918
SWIDTH 655 0
DWIDTH 13 0
BBX 11 14 1 -1
BITMAP
7FE0
0040
0080
0180
0300
0200
0400
0C00
1800
1000
2000
6000
C000
FFE0
ENDCHAR
STARTCHAR Eta
ENCODING 919
SWIDTH 663 0
DWIDTH 13 0
BBX 11 14 1 -1
BITMAP
C020
C020
C020
C020
C020
C020
FFE0
C020
C020
C020
C020
C020
C020
C020
ENDCHAR
STARTCHAR Theta
ENCODING 920
SWIDTH 760 0
DWIDTH 15 0
BBX 13 15 1 -1
BITMAP
0780
18C0
3020
6010
4018
C018
C008
DFC8
C008
C018
4018
4010
2030
3860
0F80
ENDCHAR
STARTCHAR Iota
ENCODING 921
SWIDTH 245 0
DWIDTH 5 0
BBX 1 14 2 -1
BITMAP
80
80
80
80
80
80
80
80
80
80
80
80
80
80
ENDCHAR
STARTCHAR Kappa
ENCODING 922
SWIDTH 669 0
DWIDTH 13 0
BBX 11 14 1 -1
BITMAP
C0C0
C180
C300
C600
CC00
D800
FC00
E600
C200
C300
C180
C080
C040
C060
ENDCHAR
STARTCHAR Lambda
ENCODING 923
SWIDTH 714 0
DWIDTH 14 0
BBX 12 14 1 -1
BITMAP
0600
0700
0D00
0900
0980
1080
10C0
3040
2040
2060
6020
4020
C030
C010
ENDCHAR
STARTCHAR Mu
ENCODING 924
SWIDTH 812 0
DWIDTH 16 0
BBX 14 14 1 -1
BITMAP
E00C
E014
E014
D034
D024
D824
C864
C844
CCC4
C484
C684
C384
C304
C304
ENDCHAR
STARTCHAR Nu
ENCODING 925
SWIDTH 685 0
DWIDTH 14 0
BBX 11 14 1 -1
BITMAP
E020
E020
F020
D820
C820
CC20
C620
C220
C320
C1A0
C0A0
C0E0
C060
C020
ENDCHAR
STARTCHAR Xi
ENCODING 926
SWIDTH 680 0
DWIDTH 14 0
BBX 12 14 1 -1
BITMAP
FFF0
0000
0000
0000
0000
0000
3F80
0000
0000
0000
0000
0000
0000
FFF0
ENDCHAR
STARTCHAR Omicron
ENCODING 927
SWIDTH 760 0
DWIDTH 15 0
BBX 13 15 1 -1
BITMAP
0780
18C0
3020
6010
4018
C018
C008
C008
C008
C018
4018
4010
2030
3860
0F80
ENDCHAR
STARTCHAR Pi
ENCODING 928
SWIDTH 642 0
DWIDTH 13 0
BBX 10 14 1 -1
BITMAP
FFC0
C040
C040
C040
C040
C040
C040
C040
C040
C040
C040
C040
C040
C040
ENDCHAR
STARTCHAR Rho
ENCODING 929
SWIDTH 630 0
DWIDTH 13 0
BBX 10 14 1 -1
BITMAP
FF80
C0C0
C040
C040
C040
C040
C380
FF00
C000
C000
C000
C000
C000
C000
ENDCHAR
STARTCHAR Sigma
ENCODING 931
SWIDTH 613 0
DWIDTH 12 0
BBX 10 14 1 -1
BITMAP
FFC0
4000
2000
3000
1800
0C00
0400
0C00
1800
3000
2000
4000
C000
FFC0
ENDCHAR
STARTCHAR Tau
ENCODING 932
SWIDTH 629 0
DWIDTH 13 0
BBX 11 14 1 -1
BITMAP
FFE0
0400
0400
0400
0400
0400
0400
0400
0400
0400
0400
0400
0400
0400
ENDCHAR
STARTCHAR Upsilon
ENCODING 933
SWIDTH 692 0
DWIDTH 14 0
BBX 10 14 2 -1
BITMAP
8040
C0C0
4180
2100
3300
1200
1C00
0C00
0C00
0C00
0C00
0C00
0C00
0C00
ENDCHAR
STARTCHAR Phi
ENCODING 934
SWIDTH 750 0
DWIDTH 15 0
BBX 13 14 1 -1
BITMAP
0200
0200
1FC0
6230
C218
8208
8208
8208
C218
6230
3FE0
0200
0200
0200
ENDCHAR
STARTCHAR Chi
ENCODING 935
SWIDTH 680 0
DWIDTH 14 0
BBX 11 14 1 -1
BITMAP
6060
20C0
3080
1980
0B00
0E00
0600
0E00
0B00
1180
3080
20C0
4060
C020
ENDCHAR
STARTCHAR Psi
ENCODING 936
SWIDTH 792 0
DWIDTH 16 0
BBX 14 14 1 -1
BITMAP
C30C
6318
6310
6310
6310
6310
2310
2330
1B60
0FC0
0300
0300
0300
0300
ENDCHAR
STARTCHAR uni03A9
ENCODING 937
SWIDTH 700 0
DWIDTH 14 0
BBX 12 15 1 -1
BITMAP
0600
39C0
6060
4020
C030
C030
C030
C030
4020
70E0
1980
C930
C930
C930
F9F0
ENDCHAR
STARTCHAR alpha
ENCODING 945
SWIDTH 492 0
DWIDTH 10 0
BBX 9 11 0 -1
BITMAP
1880
6580
4300
4300
C300
C300
C200
4200
4200
6780
3D80
ENDCHAR
STARTCHAR beta
ENCODING 946
SWIDTH 452 0
DWIDTH 9 0
BBX 8 18 1 -4
BITMAP
38
7C
86
82
82
82
84
9C
82
83
83
83
82
C6
FC
80
80
80
ENDCHAR
STARTCHAR gamma
ENCODING 947
SWIDTH 450 0
DWIDTH 9 0
BBX 9 14 0 -4
BITMAP
C180
4100
6300
3600
1400
1C00
1C00
1400
3600
2200
6300
6300
3600
1C00
ENDCHAR
STARTCHAR delta
ENCODING 948
SWIDTH 449 0
DWIDTH 9 0
BBX 9 15 0 -1
BITMAP
0C00
3E00
2300
2000
3000
0800
3E00
6300
4100
C180
C180
C180
4100
6300
3E00
ENDCHAR
STARTCHAR epsilon
ENCODING 949
SWIDTH 445 0
DWIDTH 9 0
BBX 8 11 0 -1
BITMAP
1C
63
41
40
60
38
40
C0
41
63
3E
ENDCHAR
STARTCHAR zeta
ENCODING 950
SWIDTH 452 0
DWIDTH 9 0
BBX 7 17 1 -4
BITMAP
FC
08
10
20
60
40
C0
80
80
80
80
C0
3C
02
02
12
1C
ENDCHAR
STARTCHAR eta
ENCODING 951
SWIDTH 468 0
DWIDTH 9 0
BBX 9 13 0 -3
BITMAP
DC00
E600
C600
C200
C200
C200
C200
C200
C200
C200
C200
0280
0300
ENDCHAR
STARTCHAR theta
ENCODING 952
SWIDTH 446 0
DWIDTH 9 0
BBX 9 15 0 -1
BITMAP
1C00
3600
6300
4100
4100
C180
C180
FF80
C180
C180
C100
4100
4300
6200
3E00
ENDCHAR
STARTCHAR iota
ENCODING 953
SWIDTH 416 0
DWIDTH 8 0
BBX 4 11 2 -1
BITMAP
80
80
80
80
80
80
80
80
80
90
F0
ENDCHAR
STARTCHAR kappa
ENCODING 954
SWIDTH 472 0
DWIDTH 9 0
BBX 8 11 1 -1
BITMAP
82
84
88
90
B0
D0
88
8C
84
86
83
ENDCHAR
STARTCHAR lambda
ENCODING 955
SWIDTH 449 0
DWIDTH 9 0
BBX 9 16 0 -2
BITMAP
C000
6000
2000
2000
3000
1000
1000
3000
3800
2800
2800
6C00
4C00
4480
C780
0200
ENDCHAR
STARTCHAR uni03BC
ENCODING 956
SWIDTH 453 0
DWIDTH 9 0
BBX 7 14 1 -4
BITMAP
82
82
82
82
82
82
82
82
82
C6
FA
80
80
80
ENDCHAR
STARTCHAR nu
ENCODING 957
SWIDTH 454 0
DWIDTH 9 0
BBX 9 11 0 -1
BITMAP
C080
4100
2100
2100
2200
3200
1200
1600
1C00
0C00
0C00
ENDCHAR
STARTCHAR xi
ENCODING 958
SWIDTH 443 0
DWIDTH 9 0
BBX 7 17 1 -4
BITMAP
F8
30
20
20
30
38
60
C0
80
80
80
C0
3C
06
02
16
1C
ENDCHAR
STARTCHAR omicron
ENCODING 959
SWIDTH 450 0
DWIDTH 9 0
BBX 9 11 0 -1
BITMAP
1C00
2200
4100
4100
C180
C180
C180
4100
4100
6300
3E00
ENDCHAR
STARTCHAR pi
ENCODING 960
SWIDTH 459 0
DWIDTH 9 0
BBX 9 11 0 -1
BITMAP
FF80
3600
3600
3600
3600
3600
3600
3600
3600
2680
6300
ENDCHAR
STARTCHAR rho
ENCODING 961
SWIDTH 450 0
DWIDTH 9 0
BBX 9 14 0 -4
BITMAP
1C00
2200
4100
4100
C180
C180
C180
C100
C100
E300
FE00
C000
C000
C000
ENDCHAR
STARTCHAR sigma
ENCODING 963
SWIDTH 461 0
DWIDTH 9 0
BBX 9 11 0 -1
BITMAP
1F80
2200
4100
4100
C180
C180
C180
4100
4100
6300
3E00
ENDCHAR
STARTCHAR tau
ENCODING 964
SWIDTH 446 0
DWIDTH 9 0
BBX 9 11 0 -1
BITMAP
FF80
1000
1000
1000
1000
1000
1000
1000
1000
1200
0C00
ENDCHAR
STARTCHAR upsilon
ENCODING 965
SWIDTH 445 0
DWIDTH 9 0
BBX 7 11 1 -1
BITMAP
84
84
86
82
82
82
82
82
82
C6
7C
ENDCHAR
STARTCHAR phi
ENCODING 966
SWIDTH 450 0
DWIDTH 9 0
BBX 9 17 0 -4
BITMAP
0800
0800
0800
1C00
2A00
4900
4900
C980
C980
C980
C980
4900
6B00
3E00
0800
0800
0800
ENDCHAR
STARTCHAR chi
ENCODING 967
SWIDTH 448 0
DWIDTH 9 0
BBX 9 13 0 -3
BITMAP
E180
3100
1300
1200
1C00
0C00
0800
1800
1C00
3400
2400
6600
4380
ENDCHAR
STARTCHAR psi
ENCODING 968
SWIDTH 448 0
DWIDTH 9 0
BBX 9 14 0 -4
BITMAP
0800
C980
4900
4900
4900
4900
4900
4900
4900
6B00
3E00
0800
0800
0800
ENDCHAR
STARTCHAR omega
ENCODING 969
SWIDTH 448 0
DWIDTH 9 0
BBX 9 10 0 -1
BITMAP
6300
4100
C980
8880
8880
8880
8880
8980
C900
7700
ENDCHAR
STARTCHAR uni0401
ENCODING 1025
SWIDTH 641 0
DWIDTH 13 0
BBX 9 17 2 -1
BITMAP
2600
2600
0000
FF80
8000
8000
8000
8000
8000
FF80
8000
8000
8000
8000
8000
8000
FF80
ENDCHAR
STARTCHAR uni0410
ENCODING 1040
SWIDTH 744 0
DWIDTH 15 0
BBX 12 14 1 -1
BITMAP
0700
0500
0500
0980
0880
1880
1040
1040
3FE0
2020
2020
6030
4010
C010
ENDCHAR
STARTCHAR uni0411
ENCODING 1041
SWIDTH 698 0
DWIDTH 14 0
BBX 11 14 2 -1
BITMAP
FF80
8000
8000
8000
8000
8000
FF80
80C0
8040
8060
8060
8040
81C0
FF00
ENDCHAR
STARTCHAR uni0412
ENCODING 1042
SWIDTH 693 0
DWIDTH 14 0
BBX 11 14 2 -1
BITMAP
FF80
80C0
8040
8040
80C0
8180
FF80
80C0
8040
8060
8060
8040
81C0
FF00
ENDCHAR
STARTCHAR uni0413
ENCODING 1043
SWIDTH 598 0
DWIDTH 12 0
BBX 10 14 1 -1
BITMAP
FFC0
C000
C000
C000
C000
C000
C000
C000
C000
C000
C000
C000
C000
C000
ENDCHAR
STARTCHAR uni0414
ENCODING 1044
SWIDTH 807 0
DWIDTH 16 0
BBX 14 16 1 -3
BITMAP
0FF0
0810
0810
0810
0810
0810
0810
0810
0810
0810
1010
1010
2010
FFF8
C004
8004
ENDCHAR
STARTCHAR uni0415
ENCODING 1045
SWIDTH 616 0
DWIDTH 12 0
BBX 10 15 1 -1
BITMAP
FFC0
FFC0
C000
C000
C000
C000
C000
FF80
C000
C000
C000
C000
C000
C000
FFC0
ENDCHAR
STARTCHAR uni0416
ENCODING 1046
SWIDTH 871 0
DWIDTH 17 0
BBX 16 15 1 -1
BITMAP
C003
710C
1118
1930
0930
0D20
0D20
0FE0
0D20
0D20
0920
0930
1910
310C
E107
ENDCHAR
STARTCHAR uni0417
ENCODING 1047
SWIDTH 596 0
DWIDTH 12 0
BBX 10 15 1 -1
BITMAP
0C00
3300
6180
4080
4080
0180
0300
0F00
0180
0080
C0C0
C0C0
4080
6180
1E00
ENDCHAR
STARTCHAR uni0418
ENCODING 1048
SWIDTH 705 0
DWIDTH 14 0
BBX 11 14 2 -1
BITMAP
8060
8060
80E0
81E0
8360
8660
8C60
8860
9060
B060
E060
C060
8060
8060
ENDCHAR
STARTCHAR uni0419
ENCODING 1049
SWIDTH 705 0
DWIDTH 14 0
BBX 11 17 2 -1
BITMAP
2100
1E00
0000
8060
8060
80E0
81E0
8360
8660
8C60
8860
9060
B060
E060
C060
8060
8060
ENDCHAR
STARTCHAR uni041A
ENCODING 1050
SWIDTH 681 0
DWIDTH 14 0
BBX 11 14 1 -1
BITMAP
C0C0
C180
C300
C600
CC00
D800
FC00
E600
C200
C300
C180
C0C0
C040
C060
ENDCHAR
STARTCHAR uni041B
ENCODING 1051
SWIDTH 719 0
DWIDTH 14 0
BBX 11 14 2 -1
BITMAP
1FE0
1020
1020
1020
1020
1020
1020
1020
1020
3020
2020
6020
4020
8020
ENDCHAR
STARTCHAR uni041C
ENCODING 1052
SWIDTH 812 0
DWIDTH 16 0
BBX 13 14 2 -1
BITMAP
C038
C038
E038
A078
A058
B058
9098
9098
8998
8918
8D18
8718
8618
8618
ENDCHAR
STARTCHAR uni041D
ENCODING 1053
SWIDTH 663 0
DWIDTH 13 0
BBX 10 14 2 -1
BITMAP
80C0
80C0
80C0
80C0
80C0
80C0
FFC0
80C0
80C0
80C0
80C0
80C0
80C0
80C0
ENDCHAR
STARTCHAR uni041E
ENCODING 1054
SWIDTH 760 0
DWIDTH 15 0
BBX 13 15 1 -1
BITMAP
0780
18C0
3020
6030
4010
4018
C018
C018
C018
4018
4010
6010
2030
3860
0F80
ENDCHAR
STARTCHAR uni041F
ENCODING 1055
SWIDTH 646 0
DWIDTH 13 0
BBX 11 14 1 -1
BITMAP
FFE0
C060
C060
C060
C060
C060
C060
C060
C060
C060
C060
C060
C060
C060
ENDCHAR
STARTCHAR uni0420
ENCODING 1056
SWIDTH 638 0
DWIDTH 13 0
BBX 9 14 2 -1
BITMAP
FF00
8180
8080
8080
8080
8180
8700
FC00
8000
8000
8000
8000
8000
8000
ENDCHAR
STARTCHAR uni0421
ENCODING 1057
SWIDTH 738 0
DWIDTH 15 0
BBX 12 15 1 -1
BITMAP
0780
1CC0
3020
6030
4010
4000
C000
C000
C000
4010
4010
6030
2020
3860
0F80
ENDCHAR
STARTCHAR uni0422
ENCODING 1058
SWIDTH 659 0
DWIDTH 13 0
BBX 11 14 1 -1
BITMAP
FFE0
0400
0400
0400
0400
0400
0400
0400
0400
0400
0400
0400
0400
0400
ENDCHAR
STARTCHAR uni0423
ENCODING 1059
SWIDTH 575 0
DWIDTH 12 0
BBX 8 14 2 -1
BITMAP
81
82
42
42
64
24
24
18
18
18
10
10
20
E0
ENDCHAR
STARTCHAR uni0424
ENCODING 1060
SWIDTH 735 0
DWIDTH 15 0
BBX 12 14 1 -1
BITMAP
0200
0700
3FC0
6220
4210
C210
8210
C210
4210
6230
32E0
0F80
0200
0200
ENDCHAR
STARTCHAR uni0425
ENCODING 1061
SWIDTH 700 0
DWIDTH 14 0
BBX 12 14 1 -1
BITMAP
6060
2040
1080
1980
0900
0600
0600
0600
0900
1980
30C0
2040
6060
C030
ENDCHAR
STARTCHAR uni0426
ENCODING 1062
SWIDTH 774 0
DWIDTH 15 0
BBX 12 16 2 -3
BITMAP
8040
8040
8040
8040
8040
8040
8040
8040
8040
8040
8040
8040
8040
FFC0
0030
0010
ENDCHAR
STARTCHAR uni0427
ENCODING 1063
SWIDTH 572 0
DWIDTH 11 0
BBX 8 14 2 -1
BITMAP
81
81
81
81
81
81
83
83
C5
79
01
01
01
01
ENDCHAR
STARTCHAR uni0428
ENCODING 1064
SWIDTH 794 0
DWIDTH 16 0
BBX 12 14 2 -1
BITMAP
8610
8610
8610
8610
8610
8610
8610
8610
8610
8610
8610
8610
8610
FFF0
ENDCHAR
STARTCHAR uni0429
ENCODING 1065
SWIDTH 831 0
DWIDTH 17 0
BBX 14 16 1 -3
BITMAP
C218
C218
C218
C218
C218
C218
C218
C218
C218
C218
C218
C218
C218
FFF8
0004
0004
ENDCHAR
STARTCHAR uni042A
ENCODING 1066
SWIDTH 744 0
DWIDTH 15 0
BBX 13 14 1 -1
BITMAP
F000
1000
1000
1000
1000
1000
1FE0
1010
1018
1008
1008
1018
1070
1FC0
ENDCHAR
STARTCHAR uni042B
ENCODING 1067
SWIDTH 794 0
DWIDTH 16 0
BBX 12 14 2 -1
BITMAP
8010
8010
8010
8010
8010
8010
FE10
8190
8090
8090
8090
8190
8310
FE10
ENDCHAR
STARTCHAR uni042C
ENCODING 1068
SWIDTH 699 0
DWIDTH 14 0
BBX 10 14 2 -1
BITMAP
8000
8000
8000
8000
8000
8000
FF80
80C0
8040
8040
8040
8040
8180
FF00
ENDCHAR
STARTCHAR uni042D
ENCODING 1069
SWIDTH 728 0
DWIDTH 15 0
BBX 12 15 1 -1
BITMAP
0F00
39C0
6060
4020
0030
0010
0010
0FF0
0010
0010
C010
4030
6060
30C0
1F80
ENDCHAR
STARTCHAR uni042E
ENCODING 1070
SWIDTH 847 0
DWIDTH 17 0
BBX 15 15 1 -1
BITMAP
00E0
C3B8
C208
C60C
C404
C404
CC06
FC06
CC06
C406
C404
C404
C60C
C318
C1F0
ENDCHAR
STARTCHAR uni042F
ENCODING 1071
SWIDTH 653 0
DWIDTH 13 0
BBX 11 14 1 -1
BITMAP
3FE0
4020
4020
C020
4020
6020
3FE0
3020
6020
4020
4020
4020
4020
C020
ENDCHAR
STARTCHAR uni0430
ENCODING 1072
SWIDTH 611 0
DWIDTH 12 0
BBX 9 11 2 -1
BITMAP
3C00
6300
C100
C100
0300
3D00
C100
8100
8300
C700
7D80
ENDCHAR
STARTCHAR uni0431
ENCODING 1073
SWIDTH 612 0
DWIDTH 12 0
BBX 10 14 1 -1
BITMAP
0300
0C00
3000
3E00
7300
6080
40C0
C040
C040
C040
40C0
4080
2180
1E00
ENDCHAR
STARTCHAR uni0432
ENCODING 1074
SWIDTH 631 0
DWIDTH 13 0
BBX 9 11 2 -1
BITMAP
F800
FF00
8180
8180
8100
FF00
8080
8080
8080
8180
FE00
ENDCHAR
STARTCHAR uni0433
ENCODING 1075
SWIDTH 528 0
DWIDTH 11 0
BBX 8 11 1 -1
BITMAP
FF
FF
C0
C0
C0
C0
C0
C0
C0
C0
C0
ENDCHAR
STARTCHAR uni0434
ENCODING 1076
SWIDTH 724 0
DWIDTH 14 0
BBX 13 13 1 -3
BITMAP
1FE0
1FE0
1020
1020
1020
1020
1020
3020
2020
6020
FFF0
8018
8008
ENDCHAR
STARTCHAR uni0435
ENCODING 1077
SWIDTH 586 0
DWIDTH 12 0
BBX 9 11 1 -1
BITMAP
1E00
3300
4180
4080
C080
FF80
C000
4080
4080
2100
1E00
ENDCHAR
STARTCHAR uni0436
ENCODING 1078
SWIDTH 774 0
DWIDTH 15 0
BBX 13 11 1 -1
BITMAP
C208
2230
1260
1A40
0A40
0FC0
0A40
1A40
1260
3220
E218
ENDCHAR
STARTCHAR uni0437
ENCODING 1079
SWIDTH 602 0
DWIDTH 12 0
BBX 10 11 1 -1
BITMAP
1E00
3180
4080
4080
0180
0F00
0080
C0C0
40C0
6080
3F00
ENDCHAR
STARTCHAR uni0438
ENCODING 1080
SWIDTH 575 0
DWIDTH 12 0
BBX 9 11 1 -1
BITMAP
C080
C080
C180
C380
C680
CC80
D880
F080
E080
C080
C080
ENDCHAR
STARTCHAR uni0439
ENCODING 1081
SWIDTH 575 0
DWIDTH 12 0
BBX 9 14 1 -1
BITMAP
0100
3E00
0000
C080
C080
C180
C380
C680
CC80
D880
F080
E080
C080
C080
ENDCHAR
STARTCHAR uni043A
ENCODING 1082
SWIDTH 564 0
DWIDTH 11 0
BBX 9 11 1 -1
BITMAP
C180
C300
C400
C800
D800
E800
C400
C600
C200
C100
C180
ENDCHAR
STARTCHAR uni043B
ENCODING 1083
SWIDTH 661 0
DWIDTH 13 0
BBX 11 11 1 -1
BITMAP
1FE0
1FE0
1020
1020
1020
1020
1020
1020
2020
6020
C020
ENDCHAR
STARTCHAR uni043C
ENCODING 1084
SWIDTH 782 0
DWIDTH 16 0
BBX 12 11 2 -1
BITMAP
8030
C030
C070
E050
A0D0
B090
9190
8910
8B10
8610
8610
ENDCHAR
STARTCHAR uni043D
ENCODING 1085
SWIDTH 633 0
DWIDTH 13 0
BBX 9 11 2 -1
BITMAP
8080
8080
8080
8080
8080
FF80
8080
8080
8080
8080
8080
ENDCHAR
STARTCHAR uni043E
ENCODING 1086
SWIDTH 592 0
DWIDTH 12 0
BBX 10 11 1 -1
BITMAP
1E00
3300
4180
4080
C0C0
80C0
80C0
C080
4080
6100
1E00
ENDCHAR
STARTCHAR uni043F
ENCODING 1087
SWIDTH 598 0
DWIDTH 12 0
BBX 10 11 1 -1
BITMAP
FFC0
FFC0
C0C0
C0C0
C0C0
C0C0
C0C0
C0C0
C0C0
C0C0
C0C0
ENDCHAR
STARTCHAR uni0440
ENCODING 1088
SWIDTH 592 0
DWIDTH 12 0
BBX 10 14 1 -4
BITMAP
DE00
F300
C180
C080
C080
C0C0
C0C0
C080
C080
E100
DE00
C000
C000
C000
ENDCHAR
STARTCHAR uni0441
ENCODING 1089
SWIDTH 565 0
DWIDTH 11 0
BBX 9 11 1 -1
BITMAP
1E00
3300
4180
4080
C000
8000
8000
C080
4180
6100
1E00
ENDCHAR
STARTCHAR uni0442
ENCODING 1090
SWIDTH 599 0
DWIDTH 12 0
BBX 10 11 1 -1
BITMAP
FFC0
FFC0
0C00
0C00
0C00
0C00
0C00
0C00
0C00
0C00
0C00
ENDCHAR
STARTCHAR uni0443
ENCODING 1091
SWIDTH 565 0
DWIDTH 11 0
BBX 9 14 1 -4
BITMAP
C080
4180
4100
6100
2300
2200
1200
1600
1C00
0C00
0800
0800
1800
3000
ENDCHAR
STARTCHAR uni0444
ENCODING 1092
SWIDTH 792 0
DWIDTH 16 0
BBX 12 17 2 -4
BITMAP
0600
0600
0600
1F80
6660
C630
8610
8610
8610
8610
8610
C630
4660
3FC0
0600
0600
0600
ENDCHAR
STARTCHAR uni0445
ENCODING 1093
SWIDTH 598 0
DWIDTH 12 0
BBX 8 11 2 -1
BITMAP
81
C2
66
24
18
18
38
24
42
C3
81
ENDCHAR
STARTCHAR uni0446
ENCODING 1094
SWIDTH 666 0
DWIDTH 13 0
BBX 11 13 1 -3
BITMAP
C080
C080
C080
C080
C080
C080
C080
C080
C080
C080
FFC0
0060
0020
ENDCHAR
STARTCHAR uni0447
ENCODING 1095
SWIDTH 548 0
DWIDTH 11 0
BBX 8 11 1 -1
BITMAP
C1
C1
C1
C1
C1
41
43
7F
19
01
01
ENDCHAR
STARTCHAR uni0448
ENCODING 1096
SWIDTH 754 0
DWIDTH 15 0
BBX 13 11 1 -1
BITMAP
C218
C218
C218
C218
C218
C218
C218
C218
C218
C218
FFF8
ENDCHAR
STARTCHAR uni0449
ENCODING 1097
SWIDTH 790 0
DWIDTH 16 0
BBX 14 13 1 -3
BITMAP
8610
8610
8610
8610
8610
8610
8610
8610
8610
8610
FFF8
000C
0004
ENDCHAR
STARTCHAR uni044A
ENCODING 1098
SWIDTH 656 0
DWIDTH 13 0
BBX 11 11 1 -1
BITMAP
F000
F000
1000
1000
1000
1FC0
1020
1020
1020
1060
1F80
ENDCHAR
STARTCHAR uni044B
ENCODING 1099
SWIDTH 704 0
DWIDTH 14 0
BBX 10 11 2 -1
BITMAP
8040
8040
8040
8040
8040
FE40
8240
8340
8340
8640
FC40
ENDCHAR
STARTCHAR uni044C
ENCODING 1100
SWIDTH 558 0
DWIDTH 11 0
BBX 9 11 1 -1
BITMAP
C000
C000
C000
C000
C000
FF00
C180
C080
C080
C300
FE00
ENDCHAR
STARTCHAR uni044D
ENCODING 1101
SWIDTH 568 0
DWIDTH 11 0
BBX 9 11 1 -1
BITMAP
1C00
6300
4100
C080
0080
1F80
0080
8080
4180
6300
3E00
ENDCHAR
STARTCHAR uni044E
ENCODING 1102
SWIDTH 792 0
DWIDTH 16 0
BBX 13 11 1 -1
BITMAP
C1E0
C330
C418
C408
CC08
FC08
CC08
C408
C408
C610
C1E0
ENDCHAR
STARTCHAR uni044F
ENCODING 1103
SWIDTH 573 0
DWIDTH 11 0
BBX 9 11 1 -1
BITMAP
0F80
7F80
C080
C080
4080
3F80
6080
4080
4080
C080
C080
ENDCHAR
STARTCHAR uni0451
ENCODING 1105
SWIDTH 586 0
DWIDTH 12 0
BBX 9 14 1 -1
BITMAP
3200
3200
0000
1E00
3300
4180
4080
C080
FF80
C000
4080
4080
2100
1E00
ENDCHAR
STARTCHAR uni1100
ENCODING 4352
SWIDTH 940 0
DWIDTH 19 0
BBX 9 9 5 2
BITMAP
FF00
FF80
0080
0080
0080
0080
0080
0080
0080
ENDCHAR
STARTCHAR uni1101
ENCODING 4353
SWIDTH 940 0
DWIDTH 19 0
BBX 12 9 3 2
BITMAP
71E0
FDF0
0410
0410
0410
0410
0410
0410
0410
ENDCHAR
STARTCHAR uni1102
ENCODING 4354
SWIDTH 940 0
DWIDTH 19 0
BBX 9 8 5 2
BITMAP
8000
8000
8000
8000
8000
8000
8000
FF80
ENDCHAR
STARTCHAR uni1103
ENCODING 4355
SWIDTH 940 0
DWIDTH 19 0
BBX 10 8 4 2
BITMAP
7FC0
C000
C000
C000
C000
C000
C000
7FC0
ENDCHAR
STARTCHAR uni1104
ENCODING 4356
SWIDTH 940 0
DWIDTH 19 0
BBX 13 8 3 2
BITMAP
FFF0
C300
C300
C300
C300
C300
C700
7DF8
ENDCHAR
STARTCHAR uni1105
ENCODING 4357
SWIDTH 940 0
DWIDTH 19 0
BBX 10 9 4 2
BITMAP
FF80
FFC0
0040
0040
7FC0
C000
C000
C000
7FC0
ENDCHAR
STARTCHAR uni1106
ENCODING 4358
SWIDTH 940 0
DWIDTH 19 0
BBX 9 8 5 2
BITMAP
FF80
8080
8080
8080
8080
8080
8080
FF80
ENDCHAR
STARTCHAR uni1107
ENCODING 4359
SWIDTH 940 0
DWIDTH 19 0
BBX 9 8 5 2
BITMAP
8080
8080
8080
FF80
8080
8080
8080
FF80
ENDCHAR
STARTCHAR uni1108
ENCODING 4360
SWIDTH 940 0
DWIDTH 19 0
BBX 11 9 4 2
BITMAP
8A20
8A20
8A20
8A20
FBE0
8A20
8A20
8A20
FBE0
ENDCHAR
STARTCHAR uni1109
ENCODING 4361
SWIDTH 940 0
DWIDTH 19 0
BBX 11 9 4 1
BITMAP
0400
0400
0C00
0C00
1A00
3300
6180
C060
8000
ENDCHAR
STARTCHAR uni110A
ENCODING 4362
SWIDTH 940 0
DWIDTH 19 0
BBX 13 10 3 1
BITMAP
0840
0840
18C0
18C0
1CE0
27B0
6318
C308
0600
0400
ENDCHAR
STARTCHAR uni110B
ENCODING 4363
SWIDTH 940 0
DWIDTH 19 0
BBX 10 10 4 1
BITMAP
1F00
3B80
60C0
4040
C040
C040
40C0
60C0
3F80
0C00
ENDCHAR
STARTCHAR uni110C
ENCODING 4364
SWIDTH 940 0
DWIDTH 19 0
BBX 13 10 3 1
BITMAP
7FC0
7FE0
00C0
0180
0300
0600
0D80
30E0
E038
8000
ENDCHAR
STARTCHAR uni110D
ENCODING 4365
SWIDTH 940 0
DWIDTH 19 0
BBX 13 10 3 1
BITMAP
FDE0
FDF0
0C20
1860
1840
2CE0
67B0
C318
0600
0400
ENDCHAR
STARTCHAR uni110E
ENCODING 4366
SWIDTH 940 0
DWIDTH 19 0
BBX 11 11 4 1
BITMAP
3F00
0000
0000
FFC0
00C0
0180
0300
0E00
3980
E0E0
8020
ENDCHAR
STARTCHAR uni110F
ENCODING 4367
SWIDTH 940 0
DWIDTH 19 0
BBX 9 9 5 2
BITMAP
FF80
FF80
0080
0080
FF80
FF80
0080
0080
0080
ENDCHAR
STARTCHAR uni1110
ENCODING 4368
SWIDTH 940 0
DWIDTH 19 0
BBX 10 9 4 2
BITMAP
3FC0
FFC0
C000
C000
FFC0
C000
C000
C000
FFC0
ENDCHAR
STARTCHAR uni1111
ENCODING 4369
SWIDTH 940 0
DWIDTH 19 0
BBX 11 9 4 2
BITMAP
FFC0
FFC0
3100
3100
3100
3100
3100
3100
FFE0
ENDCHAR
STARTCHAR uni1112
ENCODING 4370
SWIDTH 940 0
DWIDTH 19 0
BBX 11 11 4 1
BITMAP
3F00
3F00
0000
FFE0
0000
1F00
6080
40C0
40C0
6080
3F00
ENDCHAR
STARTCHAR uni115F
ENCODING 4447
SWIDTH 0 0
DWIDTH 0 0
BBX 1 1 0 0
BITMAP
00
ENDCHAR
STARTCHAR uni1160
ENCODING 4448
SWIDTH 0 0
DWIDTH 0 0
BBX 1 1 0 0
BITMAP
00
ENDCHAR
STARTCHAR uni1161
ENCODING 4449
SWIDTH 940 0
DWIDTH 19 0
BBX 5 19 7 -3
BITMAP
C0
C0
C0
C0
C0
C0
C0
C0
C0
F8
C0
C0
C0
C0
C0
C0
C0
C0
C0
ENDCHAR
STARTCHAR uni1162
ENCODING 4450
SWIDTH 940 0
DWIDTH 19 0
BBX 7 19 6 -3
BITMAP
06
C6
C6
C6
C6
C6
C6
C6
C6
FE
C6
C6
C6
C6
C6
C6
C6
C6
06
ENDCHAR
STARTCHAR uni1163
ENCODING 4451
SWIDTH 940 0
DWIDTH 19 0
BBX 5 19 7 -3
BITMAP
C0
C0
C0
C0
C0
C0
F8
C0
C0
C0
C0
F8
F8
C0
C0
C0
C0
C0
C0
ENDCHAR
STARTCHAR uni1164
ENCODING 4452
SWIDTH 940 0
DWIDTH 19 0
BBX 7 19 6 -3
BITMAP
06
C6
C6
C6
C6
C6
FE
C6
C6
C6
C6
FE
C6
C6
C6
C6
C6
C6
06
ENDCHAR
STARTCHAR uni1165
ENCODING 4453
SWIDTH 940 0
DWIDTH 19 0
BBX 5 19 7 -3
BITMAP
08
08
08
08
08
08
08
08
F8
08
08
08
08
08
08
08
08
08
08
ENDCHAR
STARTCHAR uni1166
ENCODING 4454
SWIDTH 940 0
DWIDTH 19 0
BBX 9 19 5 -3
BITMAP
0100
0980
0980
0980
0980
0980
0980
0980
F980
0980
0980
0980
0980
0980
0980
0980
0980
0980
0180
ENDCHAR
STARTCHAR uni1167
ENCODING 4455
SWIDTH 940 0
DWIDTH 19 0
BBX 5 19 7 -3
BITMAP
08
08
08
08
08
08
F8
08
08
08
08
F8
08
08
08
08
08
08
08
ENDCHAR
STARTCHAR uni1168
ENCODING 4456
SWIDTH 940 0
DWIDTH 19 0
BBX 8 19 5 -3
BITMAP
01
09
09
09
09
09
F9
09
09
09
09
F9
F9
09
09
09
09
09
01
ENDCHAR
STARTCHAR uni1169
ENCODING 4457
SWIDTH 940 0
DWIDTH 19 0
BBX 17 8 1 1
BITMAP
008000
008000
008000
008000
008000
008000
008000
FFFF80
ENDCHAR
STARTCHAR uni116A
ENCODING 4458
SWIDTH 940 0
DWIDTH 19 0
BBX 17 19 1 -3
BITMAP
000C00
000C00
000C00
000C00
000C00
000C00
000C00
000C00
0C0F80
0C0F80
0C0C00
0C0C00
0C0C00
0DFC00
FF8C00
000C00
000C00
000C00
000C00
ENDCHAR
STARTCHAR uni116B
ENCODING 4459
SWIDTH 940 0
DWIDTH 19 0
BBX 16 19 1 -3
BITMAP
0001
0019
0019
0019
0019
0019
0019
0019
041F
0419
0419
0419
0419
FFD9
FC19
0019
0019
0019
0001
ENDCHAR
STARTCHAR uni116C
ENCODING 4460
SWIDTH 940 0
DWIDTH 19 0
BBX 15 19 2 -3
BITMAP
0006
0006
0006
0006
0006
0006
0006
0006
0206
0206
0206
0206
0206
03F6
FF86
0006
0006
0006
0006
ENDCHAR
STARTCHAR uni116D
ENCODING 4461
SWIDTH 940 0
DWIDTH 19 0
BBX 17 8 1 1
BITMAP
041000
041000
041000
041000
041000
041000
041000
FFFF80
ENDCHAR
STARTCHAR uni116E
ENCODING 4462
SWIDTH 940 0
DWIDTH 19 0
BBX 17 10 1 -1
BITMAP
FFFF80
008000
008000
008000
008000
008000
008000
008000
008000
008000
ENDCHAR
STARTCHAR uni116F
ENCODING 4463
SWIDTH 940 0
DWIDTH 19 0
BBX 15 19 2 -3
BITMAP
0002
0002
0002
0002
0002
0002
0002
0002
0002
FFF2
FE02
0602
0602
067E
0602
0602
0602
0602
0002
ENDCHAR
STARTCHAR uni1170
ENCODING 4464
SWIDTH 940 0
DWIDTH 19 0
BBX 17 19 1 -3
BITMAP
000180
000980
000980
000980
000980
000980
000980
000980
000980
FFC980
040980
040980
04F980
04F980
040980
040980
040980
040980
000180
ENDCHAR
STARTCHAR uni1171
ENCODING 4465
SWIDTH 940 0
DWIDTH 19 0
BBX 15 19 2 -3
BITMAP
0002
0002
0002
0002
0002
0002
0002
0002
0002
FFFA
FE02
0602
0602
0602
0602
0602
0602
0602
0002
ENDCHAR
STARTCHAR uni1172
ENCODING 4466
SWIDTH 940 0
DWIDTH 19 0
BBX 17 10 1 -1
BITMAP
FFFF80
041000
041000
041000
041000
041000
041000
041000
041000
041000
ENDCHAR
STARTCHAR uni1173
ENCODING 4467
SWIDTH 940 0
DWIDTH 19 0
BBX 17 1 1 5
BITMAP
FFFF80
ENDCHAR
STARTCHAR uni1174
ENCODING 4468
SWIDTH 940 0
DWIDTH 19 0
BBX 15 19 2 -3
BITMAP
0002
0002
0002
0002
0002
0002
0002
0002
0002
0002
0002
0002
FFF2
F802
0002
0002
0002
0002
0002
ENDCHAR
STARTCHAR uni1175
ENCODING 4469
SWIDTH 940 0
DWIDTH 19 0
BBX 1 19 9 -3
BITMAP
80
80
80
80
80
80
80
80
80
80
80
80
80
80
80
80
80
80
80
ENDCHAR
STARTCHAR uni11A8
ENCODING 4520
SWIDTH 940 0
DWIDTH 19 0
BBX 9 9 5 2
BITMAP
FF00
FF80
0080
0080
0080
0080
0080
0080
0080
ENDCHAR
STARTCHAR uni11A9
ENCODING 4521
SWIDTH 940 0
DWIDTH 19 0
BBX 12 9 3 2
BITMAP
71E0
FDF0
0410
0410
0410
0410
0410
0410
0410
ENDCHAR
STARTCHAR uni11AA
ENCODING 4522
SWIDTH 940 0
DWIDTH 19 0
BBX 13 9 3 2
BITMAP
F040
F840
0840
08C0
08C0
08A0
09A0
0910
0E08
ENDCHAR
STARTCHAR uni11AB
ENCODING 4523
SWIDTH 940 0
DWIDTH 19 0
BBX 9 8 5 2
BITMAP
8000
8000
8000
8000
8000
8000
8000
FF80
ENDCHAR
STARTCHAR uni11AC
ENCODING 4524
SWIDTH 940 0
DWIDTH 19 0
BBX 14 8 2 2
BITMAP
C3F8
C018
C010
C030
C070
C0D8
C18C
FD04
ENDCHAR
STARTCHAR uni11AD
ENCODING 4525
SWIDTH 940 0
DWIDTH 19 0
BBX 13 9 3 2
BITMAP
01E0
8000
87F8
8000
81E0
8310
8210
8210
FDF0
ENDCHAR
STARTCHAR uni11AE
ENCODING 4526
SWIDTH 940 0
DWIDTH 19 0
BBX 10 8 4 2
BITMAP
7FC0
C000
C000
C000
C000
C000
C000
7FC0
ENDCHAR
STARTCHAR uni11AF
ENCODING 4527
SWIDTH 940 0
DWIDTH 19 0
BBX 10 9 4 2
BITMAP
FF80
FFC0
0040
0040
7FC0
C000
C000
C000
7FC0
ENDCHAR
STARTCHAR uni11B0
ENCODING 4528
SWIDTH 940 0
DWIDTH 19 0
BBX 11 9 4 2
BITMAP
F000
FBE0
0820
0820
F820
8020
8020
8020
FC20
ENDCHAR
STARTCHAR uni11B1
ENCODING 4529
SWIDTH 940 0
DWIDTH 19 0
BBX 11 9 4 2
BITMAP
F1C0
FBE0
0A20
0A20
FA20
8220
8220
8220
FBE0
ENDCHAR
STARTCHAR uni11B2
ENCODING 4530
SWIDTH 940 0
DWIDTH 19 0
BBX 12 9 3 2
BITMAP
0110
FD10
0510
0510
7DF0
C110
C110
C110
7DF0
ENDCHAR
STARTCHAR uni11B3
ENCODING 4531
SWIDTH 940 0
DWIDTH 19 0
BBX 13 9 3 2
BITMAP
F040
F840
0840
08C0
F8C0
80E0
81A0
8110
FE08
ENDCHAR
STARTCHAR uni11B4
ENCODING 4532
SWIDTH 940 0
DWIDTH 19 0
BBX 12 9 3 2
BITMAP
F8F0
FDF0
0D00
0D00
7DF0
C100
C100
C100
FDF0
ENDCHAR
STARTCHAR uni11B5
ENCODING 4533
SWIDTH 940 0
DWIDTH 19 0
BBX 13 9 3 2
BITMAP
FBF0
FFF8
0DB0
0DB0
FDB0
81B0
81B0
81B0
FFF8
ENDCHAR
STARTCHAR uni11B6
ENCODING 4534
SWIDTH 940 0
DWIDTH 19 0
BBX 13 10 3 1
BITMAP
F9F0
F800
0BF8
0800
F9F0
8110
8318
8118
FDF0
0040
ENDCHAR
STARTCHAR uni11B7
ENCODING 4535
SWIDTH 940 0
DWIDTH 19 0
BBX 9 8 5 2
BITMAP
FF80
8080
8080
8080
8080
8080
8080
FF80
ENDCHAR
STARTCHAR uni11B8
ENCODING 4536
SWIDTH 940 0
DWIDTH 19 0
BBX 9 8 5 2
BITMAP
8080
8080
8080
FF80
8080
8080
8080
FF80
ENDCHAR
STARTCHAR uni11B9
ENCODING 4537
SWIDTH 940 0
DWIDTH 19 0
BBX 13 9 3 2
BITMAP
8840
8840
88C0
88C0
F8C0
88E0
89A0
8B30
FE18
ENDCHAR
STARTCHAR uni11BA
ENCODING 4538
SWIDTH 940 0
DWIDTH 19 0
BBX 11 9 4 1
BITMAP
0400
0400
0C00
0C00
1A00
3300
6180
C060
8000
ENDCHAR
STARTCHAR uni11BB
ENCODING 4539
SWIDTH 940 0
DWIDTH 19 0
BBX 13 10 3 1
BITMAP
0840
0840
18C0
18C0
1CE0
27B0
6318
C308
0600
0400
ENDCHAR
STARTCHAR uni11BC
ENCODING 4540
SWIDTH 940 0
DWIDTH 19 0
BBX 10 10 4 1
BITMAP
1F00
3B80
60C0
4040
C040
C040
40C0
60C0
3F80
0C00
ENDCHAR
STARTCHAR uni11BD
ENCODING 4541
SWIDTH 940 0
DWIDTH 19 0
BBX 13 10 3 1
BITMAP
7FC0
7FE0
00C0
0180
0300
0600
0D80
30E0
E038
8000
ENDCHAR
STARTCHAR uni11BE
ENCODING 4542
SWIDTH 940 0
DWIDTH 19 0
BBX 11 11 4 1
BITMAP
3F00
0000
0000
FFC0
00C0
0180
0300
0E00
3980
E0E0
8020
ENDCHAR
STARTCHAR uni11BF
ENCODING 4543
SWIDTH 940 0
DWIDTH 19 0
BBX 9 9 5 2
BITMAP
FF80
FF80
0080
0080
FF80
FF80
0080
0080
0080
ENDCHAR
STARTCHAR uni11C0
ENCODING 4544
SWIDTH 940 0
DWIDTH 19 0
BBX 10 9 4 2
BITMAP
3FC0
FFC0
C000
C000
FFC0
C000
C000
C000
FFC0
ENDCHAR
STARTCHAR uni11C1
ENCODING 4545
SWIDTH 940 0
DWIDTH 19 0
BBX 11 9 4 2
BITMAP
FFC0
FFC0
3100
3100
3100
3100
3100
3100
FFE0
ENDCHAR
STARTCHAR uni11C2
ENCODING 4546
SWIDTH 940 0
DWIDTH 19 0
BBX 11 11 4 1
BITMAP
3F00
3F00
0000
FFE0
0000
1F00
6080
40C0
40C0
6080
3F00
ENDCHAR
STARTCHAR uni2010
ENCODING 8208
SWIDTH 438 0
DWIDTH 9 0
BBX 8 1 0 6
BITMAP
FF
ENDCHAR
STARTCHAR uni00AD.dup34
ENCODING 8211
SWIDTH 410 0
DWIDTH 8 0
BBX 6 1 1 6
BITMAP
FC
ENDCHAR
STARTCHAR emdash
ENCODING 8212
SWIDTH 864 0
DWIDTH 17 0
BBX 17 1 0 6
BITMAP
FFFF80
ENDCHAR
STARTCHAR emdash.dup35
ENCODING 8213
SWIDTH 864 0
DWIDTH 17 0
BBX 17 1 0 6
BITMAP
FFFF80
ENDCHAR
STARTCHAR uni2016
ENCODING 8214
SWIDTH 940 0
DWIDTH 19 0
BBX 5 20 7 -4
BITMAP
88
88
88
88
88
88
88
88
88
88
88
88
88
88
88
88
88
88
88
88
ENDCHAR
STARTCHAR quoteleft
ENCODING 8216
SWIDTH 185 0
DWIDTH 4 0
BBX 2 5 1 10
BITMAP
40
80
80
C0
C0
ENDCHAR
STARTCHAR quoteright
ENCODING 8217
SWIDTH 185 0
DWIDTH 4 0
BBX 2 5 1 10
BITMAP
C0
C0
40
80
80
ENDCHAR
STARTCHAR quotereversed
ENCODING 8219
SWIDTH 185 0
DWIDTH 4 0
BBX 2 5 1 10
BITMAP
80
C0
80
80
40
ENDCHAR
STARTCHAR quotedblleft
ENCODING 8220
SWIDTH 350 0
DWIDTH 7 0
BBX 5 5 1 10
BITMAP
68
50
90
F8
58
ENDCHAR
STARTCHAR quotedblright
ENCODING 8221
SWIDTH 350 0
DWIDTH 7 0
BBX 5 5 1 10
BITMAP
D0
F8
48
50
B0
ENDCHAR
STARTCHAR uni201F
ENCODING 8223
SWIDTH 350 0
DWIDTH 7 0
BBX 5 5 1 10
BITMAP
90
F8
A0
90
58
ENDCHAR
STARTCHAR dagger
ENCODING 8224
SWIDTH 552 0
DWIDTH 11 0
BBX 7 13 2 0
BITMAP
10
10
10
10
10
FE
10
10
10
10
10
10
10
ENDCHAR
STARTCHAR daggerdbl
ENCODING 8225
SWIDTH 552 0
DWIDTH 11 0
BBX 9 13 1 0
BITMAP
0800
0800
0800
7F00
0800
0800
FF80
0800
0800
0800
0800
0800
0800
ENDCHAR
STARTCHAR bullet
ENCODING 8226
SWIDTH 940 0
DWIDTH 19 0
BBX 5 4 7 4
BITMAP
70
F8
F8
70
ENDCHAR
STARTCHAR twodotenleader
ENCODING 8229
SWIDTH 940 0
DWIDTH 19 0
BBX 11 2 4 6
BITMAP
C060
C060
ENDCHAR
STARTCHAR ellipsis
ENCODING 8230
SWIDTH 940 0
DWIDTH 19 0
BBX 13 2 3 6
BITMAP
8208
8208
ENDCHAR
STARTCHAR perthousand
ENCODING 8240
SWIDTH 940 0
DWIDTH 19 0
BBX 17 15 1 -1
BITMAP
704000
D84000
888000
888000
890000
8A0000
DA0000
75C700
052900
0A2880
122880
122880
222880
212900
41C700
ENDCHAR
STARTCHAR minute
ENCODING 8242
SWIDTH 459 0
DWIDTH 9 0
BBX 3 5 3 10
BITMAP
60
40
40
80
80
ENDCHAR
STARTCHAR second
ENCODING 8243
SWIDTH 480 0
DWIDTH 10 0
BBX 6 5 2 10
BITMAP
6C
48
50
90
A0
ENDCHAR
STARTCHAR uni2034
ENCODING 8244
SWIDTH 940 0
DWIDTH 19 0
BBX 8 4 5 10
BITMAP
6F
4B
52
92
ENDCHAR
STARTCHAR uni2035
ENCODING 8245
SWIDTH 288 0
DWIDTH 6 0
BBX 4 3 0 11
BITMAP
C0
60
10
ENDCHAR
STARTCHAR uni2036
ENCODING 8246
SWIDTH 289 0
DWIDTH 6 0
BBX 4 6 0 8
BITMAP
C0
60
10
80
E0
10
ENDCHAR
STARTCHAR guilsinglleft
ENCODING 8249
SWIDTH 940 0
DWIDTH 19 0
BBX 13 16 3 -2
BITMAP
0018
0020
00C0
0100
0600
1800
2000
C000
C000
2000
1800
0400
0300
00C0
0020
0018
ENDCHAR
STARTCHAR guilsinglright
ENCODING 8250
SWIDTH 940 0
DWIDTH 19 0
BBX 14 18 2 -3
BITMAP
8000
4000
3000
0C00
0200
0180
0040
0030
000C
000C
0010
0060
0180
0200
0C00
3000
4000
8000
ENDCHAR
STARTCHAR uni203B
ENCODING 8251
SWIDTH 940 0
DWIDTH 19 0
BBX 12 12 3 0
BITMAP
8610
4620
2040
1080
0900
C630
C630
0900
1080
2040
4620
8610
ENDCHAR
STARTCHAR exclamdbl
ENCODING 8252
SWIDTH 940 0
DWIDTH 19 0
BBX 7 16 6 -2
BITMAP
C6
C6
C6
C6
C6
C6
C6
C6
86
86
84
84
00
00
C6
C6
ENDCHAR
STARTCHAR uni203E
ENCODING 8254
SWIDTH 940 0
DWIDTH 19 0
BBX 18 1 0 14
BITMAP
FFFFC0
ENDCHAR
STARTCHAR uni2042
ENCODING 8258
SWIDTH 940 0
DWIDTH 19 0
BBX 13 14 3 -1
BITMAP
0200
0F80
0200
0F80
0200
0200
0000
0000
2020
2020
98F8
0020
B8F8
2020
ENDCHAR
STARTCHAR uni2074
ENCODING 8308
SWIDTH 406 0
DWIDTH 8 0
BBX 4 5 2 10
BITMAP
20
20
60
F0
20
ENDCHAR
STARTCHAR uni207A
ENCODING 8314
SWIDTH 452 0
DWIDTH 9 0
BBX 7 7 1 7
BITMAP
10
10
10
FE
10
10
10
ENDCHAR
STARTCHAR uni207B
ENCODING 8315
SWIDTH 452 0
DWIDTH 9 0
BBX 7 1 1 10
BITMAP
FE
ENDCHAR
STARTCHAR uni207C
ENCODING 8316
SWIDTH 452 0
DWIDTH 9 0
BBX 7 3 1 9
BITMAP
FE
00
FE
ENDCHAR
STARTCHAR uni207D
ENCODING 8317
SWIDTH 248 0
DWIDTH 5 0
BBX 3 9 1 6
BITMAP
20
40
40
80
80
80
80
40
20
ENDCHAR
STARTCHAR uni207E
ENCODING 8318
SWIDTH 248 0
DWIDTH 5 0
BBX 3 9 1 6
BITMAP
80
40
40
20
20
20
20
40
80
ENDCHAR
STARTCHAR uni207F
ENCODING 8319
SWIDTH 420 0
DWIDTH 8 0
BBX 3 4 3 10
BITMAP
E0
A0
A0
A0
ENDCHAR
STARTCHAR uni2081
ENCODING 8321
SWIDTH 405 0
DWIDTH 8 0
BBX 2 4 3 -2
BITMAP
C0
40
40
40
ENDCHAR
STARTCHAR uni2082
ENCODING 8322
SWIDTH 408 0
DWIDTH 8 0
BBX 3 4 3 -2
BITMAP
E0
20
40
C0
ENDCHAR
STARTCHAR uni2083
ENCODING 8323
SWIDTH 428 0
DWIDTH 9 0
BBX 3 4 3 -2
BITMAP
E0
20
20
E0
ENDCHAR
STARTCHAR uni2084
ENCODING 8324
SWIDTH 406 0
DWIDTH 8 0
BBX 3 4 2 -2
BITMAP
20
60
E0
20
ENDCHAR
STARTCHAR uni20A9
ENCODING 8361
SWIDTH 966 0
DWIDTH 19 0
BBX 17 15 1 -1
BITMAP
60C100
20C100
21C300
214200
214200
316200
FFFF80
122600
122400
122400
1A3400
0E1C00
0C1800
0C1800
0C1800
ENDCHAR
STARTCHAR Euro
ENCODING 8364
SWIDTH 940 0
DWIDTH 19 0
BBX 10 14 4 -1
BITMAP
0FC0
1C40
3000
3000
2000
FF00
6000
6000
FE00
2000
3000
3000
1840
0FC0
ENDCHAR
STARTCHAR uni2103
ENCODING 8451
SWIDTH 787 0
DWIDTH 16 0
BBX 13 15 1 -1
BITMAP
6000
9000
93E0
6630
0818
0808
1000
1000
1000
1000
1008
0808
0818
0430
03E0
ENDCHAR
STARTCHAR uni2109
ENCODING 8457
SWIDTH 940 0
DWIDTH 19 0
BBX 13 15 3 -1
BITMAP
E000
A7F8
A400
E400
0400
0400
0400
07F0
0400
0400
0400
0400
0400
0400
0400
ENDCHAR
STARTCHAR uni2113
ENCODING 8467
SWIDTH 540 0
DWIDTH 11 0
BBX 7 15 2 -1
BITMAP
04
1E
12
12
22
26
24
24
28
28
30
20
64
A4
18
ENDCHAR
STARTCHAR uni2116
ENCODING 8470
SWIDTH 940 0
DWIDTH 19 0
BBX 17 14 1 -1
BITMAP
C10000
C10000
A10000
A13800
A16400
914400
918200
898200
898200
858200
858200
874200
834580
833980
ENDCHAR
STARTCHAR uni2121
ENCODING 8481
SWIDTH 940 0
DWIDTH 19 0
BBX 16 14 1 -1
BITMAP
FF81
0801
0801
0871
0899
0909
0905
0905
09FD
0901
0905
0909
0889
08F1
ENDCHAR
STARTCHAR trademark
ENCODING 8482
SWIDTH 940 0
DWIDTH 19 0
BBX 17 6 1 8
BITMAP
FE8180
10C280
10A280
10A480
109880
108880
ENDCHAR
STARTCHAR Omega
ENCODING 8486
SWIDTH 682 0
DWIDTH 14 0
BBX 11 15 1 -1
BITMAP
0F00
30C0
6040
4020
C020
8020
8020
C020
4060
6040
1980
4920
4920
4920
79E0
ENDCHAR
STARTCHAR uni212B
ENCODING 8491
SWIDTH 661 0
DWIDTH 13 0
BBX 11 15 1 -1
BITMAP
0E00
0900
0E00
0000
0000
0600
0E00
0B00
1900
1100
3180
3F80
60C0
4040
C060
ENDCHAR
STARTCHAR onethird
ENCODING 8531
SWIDTH 713 0
DWIDTH 14 0
BBX 11 16 2 -2
BITMAP
4000
C000
4020
4040
4080
4100
4200
0400
0800
11C0
2220
4020
80C0
0020
0220
01C0
ENDCHAR
STARTCHAR twothirds
ENCODING 8532
SWIDTH 770 0
DWIDTH 15 0
BBX 12 16 2 -2
BITMAP
F000
9000
9010
1020
6040
8080
F100
0200
0400
08E0
1110
2020
4060
0010
0110
01E0
ENDCHAR
STARTCHAR oneeighth
ENCODING 8539
SWIDTH 736 0
DWIDTH 15 0
BBX 11 16 2 -2
BITMAP
4000
C000
4020
4040
4080
4100
4200
0400
0800
11C0
2220
4120
81E0
0220
0220
01E0
ENDCHAR
STARTCHAR threeeighths
ENCODING 8540
SWIDTH 770 0
DWIDTH 15 0
BBX 12 16 2 -2
BITMAP
F000
9000
1020
3040
0880
8900
F100
0200
0400
09E0
1120
2120
41E0
8110
0110
01E0
ENDCHAR
STARTCHAR fiveeighths
ENCODING 8541
SWIDTH 767 0
DWIDTH 15 0
BBX 12 16 2 -2
BITMAP
F000
8000
E020
9040
0880
8900
F100
0200
0400
09E0
1120
2120
41E0
8110
0110
01E0
ENDCHAR
STARTCHAR seveneighths
ENCODING 8542
SWIDTH 734 0
DWIDTH 15 0
BBX 11 16 2 -2
BITMAP
F800
1000
2020
2040
4080
4100
4200
0400
0800
11C0
2220
4120
81E0
0220
0220
01E0
ENDCHAR
STARTCHAR uni2160
ENCODING 8544
SWIDTH 940 0
DWIDTH 19 0
BBX 1 14 9 -1
BITMAP
80
80
80
80
80
80
80
80
80
80
80
80
80
80
ENDCHAR
STARTCHAR uni2161
ENCODING 8545
SWIDTH 940 0
DWIDTH 19 0
BBX 7 14 6 -1
BITMAP
86
86
86
86
86
86
86
86
86
86
86
86
86
86
ENDCHAR
STARTCHAR uni2162
ENCODING 8546
SWIDTH 940 0
DWIDTH 19 0
BBX 10 14 4 -1
BITMAP
C440
C440
C440
C440
C440
C440
C440
C440
C440
C440
C440
C440
C440
C440
ENDCHAR
STARTCHAR uni2163
ENCODING 8547
SWIDTH 940 0
DWIDTH 19 0
BBX 13 14 3 -1
BITMAP
9818
8810
8810
8830
8C20
8420
8420
8660
8240
8240
82C0
8380
8180
8180
ENDCHAR
STARTCHAR uni2164
ENCODING 8548
SWIDTH 940 0
DWIDTH 19 0
BBX 11 14 4 -1
BITMAP
8060
C060
4040
40C0
6080
2080
2180
3100
1100
1300
1A00
0A00
0E00
0400
ENDCHAR
STARTCHAR uni2165
ENCODING 8549
SWIDTH 940 0
DWIDTH 19 0
BBX 13 14 3 -1
BITMAP
C0C8
C088
4088
4188
6108
2108
2108
3308
3208
1208
1608
1C08
0C08
0C08
ENDCHAR
STARTCHAR uni2166
ENCODING 8550
SWIDTH 940 0
DWIDTH 19 0
BBX 14 14 3 -1
BITMAP
824C
824C
824C
C64C
C64C
444C
444C
444C
6C4C
284C
284C
284C
384C
104C
ENDCHAR
STARTCHAR uni2167
ENCODING 8551
SWIDTH 940 0
DWIDTH 19 0
BBX 15 14 2 -1
BITMAP
8692
8492
C492
4492
4492
4C92
4892
4892
6892
2892
2892
3892
3092
3092
ENDCHAR
STARTCHAR uni2168
ENCODING 8552
SWIDTH 940 0
DWIDTH 19 0
BBX 14 14 2 -1
BITMAP
CC0C
C618
C210
C330
C1A0
C0C0
C0C0
C0C0
C120
C330
C210
C618
CC0C
C804
ENDCHAR
STARTCHAR uni2169
ENCODING 8553
SWIDTH 940 0
DWIDTH 19 0
BBX 11 14 4 -1
BITMAP
C040
60C0
3180
1100
1A00
0E00
0400
0E00
1B00
1100
2180
60C0
4040
8060
ENDCHAR
STARTCHAR uni2170
ENCODING 8560
SWIDTH 940 0
DWIDTH 19 0
BBX 1 14 9 -1
BITMAP
80
80
00
80
80
80
80
80
80
80
80
80
80
80
ENDCHAR
STARTCHAR uni2171
ENCODING 8561
SWIDTH 940 0
DWIDTH 19 0
BBX 7 14 6 -1
BITMAP
86
86
00
86
86
86
86
86
86
86
86
86
86
86
ENDCHAR
STARTCHAR uni2172
ENCODING 8562
SWIDTH 940 0
DWIDTH 19 0
BBX 10 14 4 -1
BITMAP
C440
C440
0000
C440
C440
C440
C440
C440
C440
C440
C440
C440
C440
C440
ENDCHAR
STARTCHAR uni2173
ENCODING 8563
SWIDTH 940 0
DWIDTH 19 0
BBX 11 14 4 -1
BITMAP
8000
8000
0000
9020
9060
9840
8840
88C0
8C80
8480
8580
8700
8300
8300
ENDCHAR
STARTCHAR uni2174
ENCODING 8564
SWIDTH 940 0
DWIDTH 19 0
BBX 9 11 5 -1
BITMAP
8180
C100
4100
4300
6200
2200
2600
1400
1400
1C00
0800
ENDCHAR
STARTCHAR uni2175
ENCODING 8565
SWIDTH 940 0
DWIDTH 19 0
BBX 11 14 4 -1
BITMAP
0020
0020
0000
8120
C320
4220
4220
4620
2420
2420
2420
1820
1820
1820
ENDCHAR
STARTCHAR uni2176
ENCODING 8566
SWIDTH 940 0
DWIDTH 19 0
BBX 13 14 3 -1
BITMAP
0048
0048
0000
8248
C248
4648
4448
4448
6448
2848
2848
2848
1848
1048
ENDCHAR
STARTCHAR uni2177
ENCODING 8567
SWIDTH 940 0
DWIDTH 19 0
BBX 15 14 2 -1
BITMAP
00D2
00D2
0000
8292
C292
4692
4492
4492
6492
2892
2892
2892
1892
1092
ENDCHAR
STARTCHAR uni2178
ENCODING 8568
SWIDTH 940 0
DWIDTH 19 0
BBX 11 14 4 -1
BITMAP
8000
8000
0000
9860
8840
8C80
8480
8300
8300
8300
8480
8CC0
8840
9020
ENDCHAR
STARTCHAR uni2179
ENCODING 8569
SWIDTH 940 0
DWIDTH 19 0
BBX 9 11 5 -1
BITMAP
C180
4300
2200
3400
1C00
0800
1400
3600
6200
4100
8180
ENDCHAR
STARTCHAR arrowleft
ENCODING 8592
SWIDTH 940 0
DWIDTH 19 0
BBX 16 6 1 3
BITMAP
2000
4000
C000
FFFF
4000
2000
ENDCHAR
STARTCHAR arrowup
ENCODING 8593
SWIDTH 464 0
DWIDTH 9 0
BBX 6 20 2 -4
BITMAP
20
70
78
A4
20
20
20
20
20
20
20
20
20
20
20
20
20
20
20
20
ENDCHAR
STARTCHAR arrowright
ENCODING 8594
SWIDTH 940 0
DWIDTH 19 0
BBX 17 5 1 3
BITMAP
000200
000100
FFFF80
000180
000300
ENDCHAR
STARTCHAR arrowdown
ENCODING 8595
SWIDTH 464 0
DWIDTH 9 0
BBX 6 20 2 -4
BITMAP
20
20
20
20
20
20
20
20
20
20
20
20
20
20
20
20
A4
78
70
20
ENDCHAR
STARTCHAR arrowboth
ENCODING 8596
SWIDTH 940 0
DWIDTH 19 0
BBX 17 6 1 3
BITMAP
200000
400300
C00180
FFFF80
400100
200200
ENDCHAR
STARTCHAR arrowupdn
ENCODING 8597
SWIDTH 444 0
DWIDTH 9 0
BBX 7 20 1 -4
BITMAP
10
38
7C
92
10
10
10
10
10
10
10
10
10
10
10
10
12
5C
38
10
ENDCHAR
STARTCHAR uni2196
ENCODING 8598
SWIDTH 940 0
DWIDTH 19 0
BBX 17 20 1 -4
BITMAP
800000
F00000
C00000
A00000
100000
080000
040000
020000
020000
010000
008000
004000
002000
001000
000800
000400
000200
000100
000100
000080
ENDCHAR
STARTCHAR uni2197
ENCODING 8599
SWIDTH 940 0
DWIDTH 19 0
BBX 17 19 1 -3
BITMAP
000080
000780
000180
000280
000400
000800
001000
002000
004000
008000
008000
010000
020000
040000
080000
100000
200000
400000
800000
ENDCHAR
STARTCHAR uni2198
ENCODING 8600
SWIDTH 940 0
DWIDTH 19 0
BBX 17 19 1 -4
BITMAP
800000
400000
200000
100000
080000
040000
020000
010000
008000
008000
004000
002000
001000
000800
000400
000280
000180
000380
000480
ENDCHAR
STARTCHAR uni2199
ENCODING 8601
SWIDTH 940 0
DWIDTH 19 0
BBX 17 20 1 -4
BITMAP
000080
000100
000100
000200
000400
000800
001000
002000
004000
008000
010000
020000
020000
040000
080000
100000
A00000
C00000
E00000
900000
ENDCHAR
STARTCHAR uni21B0
ENCODING 8624
SWIDTH 940 0
DWIDTH 19 0
BBX 15 18 2 -4
BITMAP
4000
C000
FFFE
4002
0002
0002
0002
0002
0002
0002
0002
0002
0002
0002
0002
0002
0002
0002
ENDCHAR
STARTCHAR uni21B1
ENCODING 8625
SWIDTH 940 0
DWIDTH 19 0
BBX 16 18 1 -4
BITMAP
0002
0003
FFFF
8002
8000
8000
8000
8000
8000
8000
8000
8000
8000
8000
8000
8000
8000
8000
ENDCHAR
STARTCHAR uni21B2
ENCODING 8626
SWIDTH 940 0
DWIDTH 19 0
BBX 15 18 2 -2
BITMAP
0002
0002
0002
0002
0002
0002
0002
0002
0002
0002
0002
0002
0002
0002
4002
FFFE
C000
4000
ENDCHAR
STARTCHAR uni21B3
ENCODING 8627
SWIDTH 940 0
DWIDTH 19 0
BBX 16 18 1 -2
BITMAP
8000
8000
8000
8000
8000
8000
8000
8000
8000
8000
8000
8000
8000
8000
8002
FFFF
0003
0002
ENDCHAR
STARTCHAR uni21B4
ENCODING 8628
SWIDTH 940 0
DWIDTH 19 0
BBX 17 17 1 -3
BITMAP
FFFC00
000400
000400
000400
000400
000400
000400
000400
000400
000400
000400
000400
000400
000400
000400
001F80
000F00
ENDCHAR
STARTCHAR uni21BC
ENCODING 8636
SWIDTH 940 0
DWIDTH 19 0
BBX 17 4 1 6
BITMAP
040000
180000
300000
FFFF80
ENDCHAR
STARTCHAR uni21C0
ENCODING 8640
SWIDTH 940 0
DWIDTH 19 0
BBX 17 4 1 6
BITMAP
001000
000800
000600
FFFF80
ENDCHAR
STARTCHAR uni21C4
ENCODING 8644
SWIDTH 940 0
DWIDTH 19 0
BBX 17 12 1 0
BITMAP
000200
000100
FFFF80
000180
000300
000000
200000
400000
C00000
FFFF80
400000
200000
ENDCHAR
STARTCHAR uni21C5
ENCODING 8645
SWIDTH 940 0
DWIDTH 19 0
BBX 11 20 4 -4
BITMAP
2080
6080
B880
2080
2080
2080
2080
2080
2080
2080
2080
2080
2080
2080
2080
2080
2080
23A0
21C0
0080
ENDCHAR
STARTCHAR uni21CD
ENCODING 8653
SWIDTH 940 0
DWIDTH 19 0
BBX 17 12 1 0
BITMAP
002000
082000
104000
204000
5FFF80
804000
808000
5FFF80
208000
108000
090000
010000
ENDCHAR
STARTCHAR uni21CF
ENCODING 8655
SWIDTH 940 0
DWIDTH 19 0
BBX 17 12 1 0
BITMAP
004000
004800
008400
008200
FFFD00
010080
010080
FFFD00
010200
020400
020800
020000
ENDCHAR
STARTCHAR arrowdblleft
ENCODING 8656
SWIDTH 940 0
DWIDTH 19 0
BBX 17 10 1 1
BITMAP
080000
100000
200000
5FFF80
800000
800000
5FFF80
200000
100000
080000
ENDCHAR
STARTCHAR arrowdblup
ENCODING 8657
SWIDTH 940 0
DWIDTH 19 0
BBX 17 20 1 -4
BITMAP
020000
022000
063000
0A2800
122400
222200
422100
822100
022080
022000
022000
022000
022000
022000
022000
022000
022000
022000
022000
022000
ENDCHAR
STARTCHAR arrowdblright
ENCODING 8658
SWIDTH 940 0
DWIDTH 19 0
BBX 17 10 1 1
BITMAP
000800
000400
000200
FFFD00
000080
000080
FFFD00
000200
000400
000800
ENDCHAR
STARTCHAR arrowdbldown
ENCODING 8659
SWIDTH 940 0
DWIDTH 19 0
BBX 17 20 1 -4
BITMAP
022000
022000
022000
022000
022000
022000
022000
022000
022000
022000
022000
022080
822100
422100
222200
122400
0A2800
063000
022000
020000
ENDCHAR
STARTCHAR arrowdblboth
ENCODING 8660
SWIDTH 940 0
DWIDTH 19 0
BBX 17 10 1 1
BITMAP
080800
100400
200200
5FFD00
800080
800080
5FFD00
200200
100400
080800
ENDCHAR
STARTCHAR uni21E0
ENCODING 8672
SWIDTH 940 0
DWIDTH 19 0
BBX 17 8 1 2
BITMAP
100000
300000
700000
F73380
F73380
700000
300000
100000
ENDCHAR
STARTCHAR uni21E1
ENCODING 8673
SWIDTH 940 0
DWIDTH 19 0
BBX 7 17 6 -2
BITMAP
10
38
7C
FE
00
00
38
38
00
00
10
38
10
00
00
38
38
ENDCHAR
STARTCHAR uni21E2
ENCODING 8674
SWIDTH 940 0
DWIDTH 19 0
BBX 16 8 1 2
BITMAP
0004
0006
0006
C667
CE67
0006
0006
0004
ENDCHAR
STARTCHAR uni21E3
ENCODING 8675
SWIDTH 940 0
DWIDTH 19 0
BBX 7 17 6 -3
BITMAP
30
38
00
00
10
38
30
00
00
38
38
00
00
FE
7C
38
10
ENDCHAR
STARTCHAR uni21E6
ENCODING 8678
SWIDTH 940 0
DWIDTH 19 0
BBX 17 14 1 -1
BITMAP
020000
060000
0A0000
120000
21FF80
400080
800080
800080
400080
21FF80
120000
0A0000
060000
020000
ENDCHAR
STARTCHAR uni21E7
ENCODING 8679
SWIDTH 940 0
DWIDTH 19 0
BBX 14 18 2 -3
BITMAP
0300
0480
0840
1020
2010
4008
F83C
0820
0820
0820
0820
0820
0820
0820
0820
0820
0820
0FE0
ENDCHAR
STARTCHAR uni21E8
ENCODING 8680
SWIDTH 940 0
DWIDTH 19 0
BBX 16 14 1 -1
BITMAP
0020
0060
0050
0048
FF84
8002
8001
8001
8002
FF84
0048
0050
0060
0020
ENDCHAR
STARTCHAR uni21E9
ENCODING 8681
SWIDTH 940 0
DWIDTH 19 0
BBX 14 18 2 -3
BITMAP
0FE0
0820
0820
0820
0820
0820
0820
0820
0820
0820
0820
F83C
4008
2010
1020
0840
0480
0300
ENDCHAR
STARTCHAR universal
ENCODING 8704
SWIDTH 940 0
DWIDTH 19 0
BBX 11 14 4 -1
BITMAP
8020
8060
C040
4040
7FC0
2080
2080
3180
1100
1300
1A00
0A00
0E00
0400
ENDCHAR
STARTCHAR partialdiff
ENCODING 8706
SWIDTH 496 0
DWIDTH 10 0
BBX 6 8 2 2
BITMAP
38
44
04
3C
CC
8C
98
F0
ENDCHAR
STARTCHAR existential
ENCODING 8707
SWIDTH 940 0
DWIDTH 19 0
BBX 9 14 5 -1
BITMAP
FF80
0080
0080
0080
0080
0080
FF80
0080
0080
0080
0080
0080
0080
FF80
ENDCHAR
STARTCHAR Delta
ENCODING 8710
SWIDTH 940 0
DWIDTH 19 0
BBX 13 14 3 -1
BITMAP
0200
0200
0700
0700
0980
0980
10C0
10C0
2040
2060
4020
4030
8010
FFF8
ENDCHAR
STARTCHAR gradient
ENCODING 8711
SWIDTH 940 0
DWIDTH 19 0
BBX 15 12 2 0
BITMAP
FFFE
4004
600C
2008
1010
1030
0820
0C40
04C0
0280
0300
0100
ENDCHAR
STARTCHAR element
ENCODING 8712
SWIDTH 940 0
DWIDTH 19 0
BBX 14 11 2 1
BITMAP
1FFC
2000
4000
4000
8000
FFFC
8000
4000
4000
2000
1FFC
ENDCHAR
STARTCHAR notelement
ENCODING 8713
SWIDTH 940 0
DWIDTH 19 0
BBX 11 12 4 0
BITMAP
0100
1FE0
6100
8200
8200
FFE0
8200
8400
8400
6400
1FE0
0800
ENDCHAR
STARTCHAR suchthat
ENCODING 8715
SWIDTH 940 0
DWIDTH 19 0
BBX 14 11 2 1
BITMAP
FFF0
0018
0004
0004
0004
FFFC
0004
0004
0004
0018
FFF0
ENDCHAR
STARTCHAR uni220C
ENCODING 8716
SWIDTH 940 0
DWIDTH 19 0
BBX 11 12 4 0
BITMAP
0200
FF00
04C0
0420
0820
FFE0
0820
0820
1020
10C0
FF00
1000
ENDCHAR
STARTCHAR product
ENCODING 8719
SWIDTH 754 0
DWIDTH 15 0
BBX 13 14 1 -1
BITMAP
FFF8
1040
1040
1040
1040
1040
1040
1040
1040
1040
1040
1040
1040
1040
ENDCHAR
STARTCHAR summation
ENCODING 8721
SWIDTH 658 0
DWIDTH 13 0
BBX 11 14 1 -1
BITMAP
7FE0
6000
3000
1800
0C00
0600
0300
0600
0C00
1800
3000
3000
6000
FFE0
ENDCHAR
STARTCHAR uni2213
ENCODING 8723
SWIDTH 940 0
DWIDTH 19 0
BBX 11 12 4 0
BITMAP
FFE0
0000
0400
0400
0400
0400
FFE0
0400
0400
0400
0400
0400
ENDCHAR
STARTCHAR radical
ENCODING 8730
SWIDTH 804 0
DWIDTH 16 0
BBX 16 12 0 0
BITMAP
01FF
0100
0200
0200
0200
0400
0400
0400
4800
A800
2800
1000
ENDCHAR
STARTCHAR proportional
ENCODING 8733
SWIDTH 721 0
DWIDTH 14 0
BBX 14 7 0 3
BITMAP
3C38
4244
4180
8180
8180
4240
3C3C
ENDCHAR
STARTCHAR infinity
ENCODING 8734
SWIDTH 813 0
DWIDTH 16 0
BBX 15 7 1 3
BITMAP
7878
C484
8304
8102
8302
8684
7878
ENDCHAR
STARTCHAR orthogonal
ENCODING 8735
SWIDTH 940 0
DWIDTH 19 0
BBX 10 11 4 1
BITMAP
8000
8000
8000
8000
8000
8000
8000
8000
8000
8000
FFC0
ENDCHAR
STARTCHAR angle
ENCODING 8736
SWIDTH 940 0
DWIDTH 19 0
BBX 12 12 3 0
BITMAP
0040
0040
0080
0100
0200
0400
0800
0800
1000
2000
4000
FFF0
ENDCHAR
STARTCHAR uni2222
ENCODING 8738
SWIDTH 940 0
DWIDTH 19 0
BBX 11 12 4 0
BITMAP
0200
0120
01C0
0680
1880
6040
E040
1880
0680
01C0
0120
0200
ENDCHAR
STARTCHAR uni2225
ENCODING 8741
SWIDTH 940 0
DWIDTH 19 0
BBX 11 12 4 0
BITMAP
0220
0220
0440
0880
0880
1100
1100
2200
4400
4400
8800
8800
ENDCHAR
STARTCHAR uni2226
ENCODING 8742
SWIDTH 940 0
DWIDTH 19 0
BBX 11 12 4 0
BITMAP
2220
2220
1440
1880
0880
1500
1500
2200
4200
4500
8880
8880
ENDCHAR
STARTCHAR logicaland
ENCODING 8743
SWIDTH 940 0
DWIDTH 19 0
BBX 13 12 3 0
BITMAP
0200
0500
0500
0880
0880
1040
1040
2020
2020
4010
4010
8008
ENDCHAR
STARTCHAR logicalor
ENCODING 8744
SWIDTH 940 0
DWIDTH 19 0
BBX 13 12 3 0
BITMAP
8008
4010
4010
2020
2020
1040
1040
0880
0880
0500
0500
0200
ENDCHAR
STARTCHAR intersection
ENCODING 8745
SWIDTH 646 0
DWIDTH 13 0
BBX 11 14 1 -1
BITMAP
1F00
60C0
4040
8020
8020
8020
8020
8020
8020
8020
8020
8020
8020
8020
ENDCHAR
STARTCHAR union
ENCODING 8746
SWIDTH 646 0
DWIDTH 13 0
BBX 11 14 1 -1
BITMAP
8020
8020
8020
8020
8020
8020
8020
8020
8020
8020
8020
4040
60C0
1F00
ENDCHAR
STARTCHAR integral
ENCODING 8747
SWIDTH 508 0
DWIDTH 10 0
BBX 8 16 1 -2
BITMAP
07
0C
08
08
08
08
18
18
18
18
18
10
10
10
30
E0
ENDCHAR
STARTCHAR uni222C
ENCODING 8748
SWIDTH 940 0
DWIDTH 19 0
BBX 13 16 3 -2
BITMAP
0738
0C40
0840
0840
08C0
18C0
18C0
1880
1880
1880
1080
1080
1080
1080
3100
E700
ENDCHAR
STARTCHAR uni222E
ENCODING 8750
SWIDTH 940 0
DWIDTH 19 0
BBX 7 16 6 -2
BITMAP
0E
08
18
10
10
38
54
92
92
54
38
10
30
20
20
C0
ENDCHAR
STARTCHAR therefore
ENCODING 8756
SWIDTH 940 0
DWIDTH 19 0
BBX 11 10 4 2
BITMAP
0400
0400
0000
0000
0000
0000
0000
0000
8060
8060
ENDCHAR
STARTCHAR uni2235
ENCODING 8757
SWIDTH 940 0
DWIDTH 19 0
BBX 11 11 4 1
BITMAP
8060
8060
0000
0000
0000
0000
0000
0000
0000
0400
0400
ENDCHAR
STARTCHAR uni02D0.dup36
ENCODING 8758
SWIDTH 940 0
DWIDTH 19 0
BBX 3 8 8 2
BITMAP
E0
40
00
00
00
00
40
E0
ENDCHAR
STARTCHAR uni2237
ENCODING 8759
SWIDTH 940 0
DWIDTH 19 0
BBX 8 8 5 2
BITMAP
C3
C3
00
00
00
00
C3
C3
ENDCHAR
STARTCHAR similar
ENCODING 8764
SWIDTH 940 0
DWIDTH 19 0
BBX 11 4 4 4
BITMAP
3000
DC20
8640
0180
ENDCHAR
STARTCHAR uni223D
ENCODING 8765
SWIDTH 793 0
DWIDTH 16 0
BBX 15 7 0 3
BITMAP
3C3C
4042
8082
8102
8102
4202
3C3C
ENDCHAR
STARTCHAR uni2243
ENCODING 8771
SWIDTH 940 0
DWIDTH 19 0
BBX 14 6 2 3
BITMAP
3F88
0070
0000
0000
0000
FFFC
ENDCHAR
STARTCHAR congruent
ENCODING 8773
SWIDTH 940 0
DWIDTH 19 0
BBX 14 9 2 1
BITMAP
3F88
0070
0000
0000
0000
FFFC
0000
0000
FFFC
ENDCHAR
STARTCHAR approxequal
ENCODING 8776
SWIDTH 940 0
DWIDTH 19 0
BBX 11 7 4 2
BITMAP
FC20
03C0
0000
0000
0000
FE20
01C0
ENDCHAR
STARTCHAR uni2250
ENCODING 8784
SWIDTH 940 0
DWIDTH 19 0
BBX 13 8 3 2
BITMAP
0700
0200
0000
0000
FFF8
0000
0000
FFF8
ENDCHAR
STARTCHAR uni2251
ENCODING 8785
SWIDTH 940 0
DWIDTH 19 0
BBX 13 11 3 1
BITMAP
0200
0600
0000
0000
FFF0
0000
0000
FFF8
0000
0200
0600
ENDCHAR
STARTCHAR uni2252
ENCODING 8786
SWIDTH 748 0
DWIDTH 15 0
BBX 13 11 1 1
BITMAP
3000
3000
0000
FFF8
0000
0000
FFF8
0000
0000
0060
0060
ENDCHAR
STARTCHAR uni2253
ENCODING 8787
SWIDTH 940 0
DWIDTH 19 0
BBX 13 11 3 1
BITMAP
0060
0060
0000
0000
FFF0
0000
0000
FFF8
0000
2000
3000
ENDCHAR
STARTCHAR uni225A
ENCODING 8794
SWIDTH 940 0
DWIDTH 19 0
BBX 13 12 3 0
BITMAP
2020
2020
1040
1080
0880
0500
0500
0200
0000
FFF8
0000
FFF8
ENDCHAR
STARTCHAR notequal
ENCODING 8800
SWIDTH 647 0
DWIDTH 13 0
BBX 11 13 1 0
BITMAP
0200
0200
0200
0200
FFE0
0400
0400
0400
FFE0
0800
0800
0800
1000
ENDCHAR
STARTCHAR equivalence
ENCODING 8801
SWIDTH 748 0
DWIDTH 15 0
BBX 13 7 1 3
BITMAP
FFF8
0000
0000
FFF8
0000
0000
FFF8
ENDCHAR
STARTCHAR uni2262
ENCODING 8802
SWIDTH 940 0
DWIDTH 19 0
BBX 13 11 3 1
BITMAP
0040
0080
FEF8
0100
0100
FBF8
0400
0400
FFF8
0800
1000
ENDCHAR
STARTCHAR lessequal
ENCODING 8804
SWIDTH 672 0
DWIDTH 13 0
BBX 12 14 1 -1
BITMAP
0020
00C0
0300
0C00
3000
C000
4000
3000
0C00
0300
00C0
0020
0000
FFF0
ENDCHAR
STARTCHAR greaterequal
ENCODING 8805
SWIDTH 672 0
DWIDTH 13 0
BBX 12 14 1 -1
BITMAP
8000
6000
1C00
0300
00C0
0020
0060
0180
0600
1800
6000
8000
0000
FFF0
ENDCHAR
STARTCHAR uni2266
ENCODING 8806
SWIDTH 940 0
DWIDTH 19 0
BBX 13 13 3 0
BITMAP
0030
00C0
0700
3800
C000
3800
0600
01C0
0030
0000
FFF8
0000
FFF8
ENDCHAR
STARTCHAR uni2267
ENCODING 8807
SWIDTH 940 0
DWIDTH 19 0
BBX 13 13 3 0
BITMAP
E000
1800
0700
00C0
0030
00E0
0700
1800
E000
0000
FFF8
0000
FFF8
ENDCHAR
STARTCHAR guillemotleft.dup37
ENCODING 8810
SWIDTH 940 0
DWIDTH 19 0
BBX 15 14 2 -1
BITMAP
0044
0088
0310
0460
1880
2300
4400
C400
2200
1980
0440
0330
0088
0046
ENDCHAR
STARTCHAR guillemotright.dup38
ENCODING 8811
SWIDTH 940 0
DWIDTH 19 0
BBX 14 14 2 -1
BITMAP
8400
6200
1180
0C40
0220
0198
0044
0044
0188
0230
0C40
1180
6200
8400
ENDCHAR
STARTCHAR uni226E
ENCODING 8814
SWIDTH 940 0
DWIDTH 19 0
BBX 11 12 4 0
BITMAP
0120
02C0
0300
0E00
3200
C400
C400
3400
0C00
0B00
08C0
0820
ENDCHAR
STARTCHAR uni226F
ENCODING 8815
SWIDTH 940 0
DWIDTH 19 0
BBX 12 12 3 0
BITMAP
C100
3100
0D00
0300
02C0
0230
0430
04C0
0700
0C00
3800
C800
ENDCHAR
STARTCHAR uni2270
ENCODING 8816
SWIDTH 940 0
DWIDTH 19 0
BBX 13 17 3 -3
BITMAP
0080
00B0
00C0
0700
1900
E100
1900
0700
02C0
0230
0400
FFF8
0400
FFF8
0800
0800
0800
ENDCHAR
STARTCHAR uni2271
ENCODING 8817
SWIDTH 940 0
DWIDTH 19 0
BBX 13 16 3 -2
BITMAP
0080
C100
3900
0700
02C0
0238
02C0
0700
1C00
E400
0400
FFF0
0800
FFF0
0800
1000
ENDCHAR
STARTCHAR uni2272
ENCODING 8818
SWIDTH 940 0
DWIDTH 19 0
BBX 12 12 3 0
BITMAP
0070
0180
0E00
3000
6000
1800
0700
00C0
0030
0000
3C00
C3F0
ENDCHAR
STARTCHAR uni2273
ENCODING 8819
SWIDTH 940 0
DWIDTH 19 0
BBX 12 12 3 0
BITMAP
7000
0C00
0380
0060
0030
01C0
0600
3800
4000
0000
7800
87F0
ENDCHAR
STARTCHAR uni2276
ENCODING 8822
SWIDTH 940 0
DWIDTH 19 0
BBX 13 13 3 0
BITMAP
0018
00E0
0700
7800
3800
0700
E0E0
1E18
01C0
0038
01C0
1E00
E000
ENDCHAR
STARTCHAR uni2277
ENCODING 8823
SWIDTH 940 0
DWIDTH 19 0
BBX 13 13 3 0
BITMAP
C000
3800
0700
00E0
00F0
0700
3838
C3C0
1C00
E000
1C00
03C0
0038
ENDCHAR
STARTCHAR uni2279
ENCODING 8825
SWIDTH 940 0
DWIDTH 19 0
BBX 13 17 3 -2
BITMAP
0080
0080
C080
3900
0700
01E0
02F0
0700
3A38
C3C0
1C00
E400
1C00
07C0
0838
0800
0800
ENDCHAR
STARTCHAR uni227A
ENCODING 8826
SWIDTH 940 0
DWIDTH 19 0
BBX 11 10 4 1
BITMAP
0060
00C0
0300
0C00
F000
3800
0600
0180
00C0
0020
ENDCHAR
STARTCHAR uni227B
ENCODING 8827
SWIDTH 940 0
DWIDTH 19 0
BBX 12 11 3 1
BITMAP
8000
4000
3000
0C00
0300
00F0
01C0
0600
1800
2000
C000
ENDCHAR
STARTCHAR uni2280
ENCODING 8832
SWIDTH 940 0
DWIDTH 19 0
BBX 11 14 4 -1
BITMAP
0400
0400
0460
04C0
0700
0C00
F400
3C00
0600
0580
04C0
0420
0400
0400
ENDCHAR
STARTCHAR uni2281
ENCODING 8833
SWIDTH 940 0
DWIDTH 19 0
BBX 12 14 3 -1
BITMAP
0200
8200
4200
3200
0E00
0300
02F0
03C0
0600
1A00
2200
C200
0200
0200
ENDCHAR
STARTCHAR propersubset
ENCODING 8834
SWIDTH 940 0
DWIDTH 19 0
BBX 14 11 2 1
BITMAP
1FFC
2000
4000
4000
8000
8000
8000
4000
4000
2000
1FFC
ENDCHAR
STARTCHAR propersuperset
ENCODING 8835
SWIDTH 940 0
DWIDTH 19 0
BBX 14 11 2 1
BITMAP
FFF0
0018
0004
0004
0004
0004
0004
0004
0004
0018
FFF0
ENDCHAR
STARTCHAR notsubset
ENCODING 8836
SWIDTH 940 0
DWIDTH 19 0
BBX 11 12 4 0
BITMAP
0100
1FE0
6100
8200
8200
8200
8200
8400
8400
6400
1FE0
0800
ENDCHAR
STARTCHAR uni2285
ENCODING 8837
SWIDTH 940 0
DWIDTH 19 0
BBX 11 12 4 0
BITMAP
0400
FF00
04C0
0420
0820
0820
0820
0820
1020
10C0
FF00
1000
ENDCHAR
STARTCHAR reflexsubset
ENCODING 8838
SWIDTH 940 0
DWIDTH 19 0
BBX 14 12 2 0
BITMAP
1FFC
6000
4000
8000
8000
8000
4000
6000
1FFC
0000
0000
FFFC
ENDCHAR
STARTCHAR reflexsuperset
ENCODING 8839
SWIDTH 940 0
DWIDTH 19 0
BBX 14 12 2 0
BITMAP
FFF0
0008
0004
0004
0004
0004
0004
0008
FFF0
0000
0000
FFFC
ENDCHAR
STARTCHAR uni228A
ENCODING 8842
SWIDTH 940 0
DWIDTH 19 0
BBX 14 15 2 -2
BITMAP
1FFC
6000
4000
8000
8000
8000
4000
6000
1FFC
0080
FFFC
0100
0100
7EFC
0200
ENDCHAR
STARTCHAR uni228B
ENCODING 8843
SWIDTH 940 0
DWIDTH 19 0
BBX 14 15 2 -2
BITMAP
FFF0
0008
0004
0004
0004
0004
0004
0008
FFF0
0080
FFFC
0100
0100
7FFC
0200
ENDCHAR
STARTCHAR circleplus
ENCODING 8853
SWIDTH 940 0
DWIDTH 19 0
BBX 16 16 1 -2
BITMAP
07E0
0818
1084
2082
4081
4081
8081
8081
BFFD
8081
4081
4081
2082
1084
0808
07F0
ENDCHAR
STARTCHAR uni2296
ENCODING 8854
SWIDTH 940 0
DWIDTH 19 0
BBX 16 16 1 -2
BITMAP
07E0
0818
1004
2002
4001
4001
8001
8001
BFFD
8001
4001
4001
2002
1004
0808
07F0
ENDCHAR
STARTCHAR circlemultiply
ENCODING 8855
SWIDTH 940 0
DWIDTH 19 0
BBX 16 16 1 -2
BITMAP
07E0
0818
1004
200A
4811
4421
8241
8181
8181
8241
4421
4811
200A
1004
0808
07F0
ENDCHAR
STARTCHAR uni2299
ENCODING 8857
SWIDTH 940 0
DWIDTH 19 0
BBX 15 16 2 -2
BITMAP
07C0
1830
2008
4004
8004
8382
87C2
8FC2
8FC2
87C2
8382
8004
4004
2008
1830
07C0
ENDCHAR
STARTCHAR uni22A3
ENCODING 8867
SWIDTH 940 0
DWIDTH 19 0
BBX 9 12 5 0
BITMAP
0080
0080
0080
0080
0080
FF80
0080
0080
0080
0080
0080
0080
ENDCHAR
STARTCHAR uni22A4
ENCODING 8868
SWIDTH 940 0
DWIDTH 19 0
BBX 11 11 4 0
BITMAP
FFE0
0400
0400
0400
0400
0400
0400
0400
0400
0400
0400
ENDCHAR
STARTCHAR perpendicular
ENCODING 8869
SWIDTH 940 0
DWIDTH 19 0
BBX 13 11 3 0
BITMAP
0200
0200
0200
0200
0200
0200
0200
0200
0200
0200
FFF8
ENDCHAR
STARTCHAR uni22BB
ENCODING 8891
SWIDTH 940 0
DWIDTH 19 0
BBX 13 12 3 0
BITMAP
4010
2020
2020
1040
1040
0880
0880
0500
0500
0200
0000
FFF8
ENDCHAR
STARTCHAR uni22BC
ENCODING 8892
SWIDTH 940 0
DWIDTH 19 0
BBX 13 12 3 0
BITMAP
FFF8
0000
0200
0200
0500
0900
0880
1080
1040
2040
2020
4020
ENDCHAR
STARTCHAR uni22CE
ENCODING 8910
SWIDTH 940 0
DWIDTH 19 0
BBX 11 12 4 0
BITMAP
0400
0400
0400
0A00
0A00
1200
1100
2100
2080
40C0
C040
8020
ENDCHAR
STARTCHAR uni22CF
ENCODING 8911
SWIDTH 940 0
DWIDTH 19 0
BBX 11 12 4 0
BITMAP
8020
4040
6080
2080
1100
1100
0A00
0A00
0C00
0400
0400
0400
ENDCHAR
STARTCHAR uni22DA
ENCODING 8922
SWIDTH 940 0
DWIDTH 19 0
BBX 13 14 3 -1
BITMAP
00F0
0F00
F000
0F00
00F8
0000
FFF8
0000
E000
1F00
00F0
03C0
7C00
8000
ENDCHAR
STARTCHAR uni22DB
ENCODING 8923
SWIDTH 940 0
DWIDTH 19 0
BBX 13 14 3 -1
BITMAP
F800
0780
0078
0F80
F000
0000
FFF8
0000
0038
07C0
7800
1E00
01E0
0018
ENDCHAR
STARTCHAR uni22EE
ENCODING 8942
SWIDTH 940 0
DWIDTH 19 0
BBX 2 14 8 -1
BITMAP
C0
C0
00
00
00
00
C0
C0
00
00
00
00
C0
C0
ENDCHAR
STARTCHAR ellipsis.dup39
ENCODING 8943
SWIDTH 940 0
DWIDTH 19 0
BBX 13 2 3 6
BITMAP
8208
8208
ENDCHAR
STARTCHAR uni2306
ENCODING 8966
SWIDTH 940 0
DWIDTH 19 0
BBX 13 12 3 0
BITMAP
FFF8
0000
FFF8
0000
0200
0200
0500
0880
0880
1040
2040
2020
ENDCHAR
STARTCHAR uni2312
ENCODING 8978
SWIDTH 940 0
DWIDTH 19 0
BBX 9 3 5 10
BITMAP
3E00
C100
8080
ENDCHAR
STARTCHAR uni2314
ENCODING 8980
SWIDTH 940 0
DWIDTH 19 0
BBX 11 12 4 0
BITMAP
3F80
C040
8020
8020
4040
4080
2080
2100
1100
0A00
0A00
0400
ENDCHAR
STARTCHAR uni2460
ENCODING 9312
SWIDTH 940 0
DWIDTH 19 0
BBX 17 18 1 -3
BITMAP
07E000
0C1800
300600
408200
418100
838080
808080
808080
808080
808080
808080
808080
808080
408100
408200
300600
0C1800
07E000
ENDCHAR
STARTCHAR uni2461
ENCODING 9313
SWIDTH 940 0
DWIDTH 19 0
BBX 17 18 1 -3
BITMAP
07E000
0C1800
300600
41E200
423100
841080
841080
801080
802080
80C080
810080
820080
840080
47F100
400200
300600
0C1800
07E000
ENDCHAR
STARTCHAR uni2462
ENCODING 9314
SWIDTH 940 0
DWIDTH 19 0
BBX 17 18 1 -3
BITMAP
07E000
0C1800
300600
41E200
423100
841080
841080
802080
80C080
803080
801080
841080
841080
463100
43C200
300600
0C1800
07E000
ENDCHAR
STARTCHAR uni2463
ENCODING 9315
SWIDTH 940 0
DWIDTH 19 0
BBX 17 18 1 -3
BITMAP
07E000
0C1800
300600
404200
40C100
80C080
814080
824080
824080
844080
884080
8FF080
804080
404100
404200
300600
0C1800
07E000
ENDCHAR
STARTCHAR uni2464
ENCODING 9316
SWIDTH 940 0
DWIDTH 19 0
BBX 17 18 1 -3
BITMAP
07E000
0C1800
300600
43F200
420100
820080
840080
85C080
862080
801080
801080
841080
841080
462100
43C200
300600
0C1800
07E000
ENDCHAR
STARTCHAR uni2465
ENCODING 9317
SWIDTH 940 0
DWIDTH 19 0
BBX 17 18 1 -3
BITMAP
07E000
0C1800
300600
41C200
422100
841080
840080
85C080
862080
841080
841080
841080
841080
462100
43C200
300600
0C1800
07E000
ENDCHAR
STARTCHAR uni2466
ENCODING 9318
SWIDTH 940 0
DWIDTH 19 0
BBX 17 18 1 -3
BITMAP
07E000
0C1800
300600
400200
47F100
801080
802080
804080
804080
808080
808080
810080
810080
410100
410200
300600
0C1800
07E000
ENDCHAR
STARTCHAR uni2467
ENCODING 9319
SWIDTH 940 0
DWIDTH 19 0
BBX 17 18 1 -3
BITMAP
07E000
0C1800
300600
43C200
462100
841080
841080
822080
81C080
862080
841080
841080
841080
443100
43E200
300600
0C1800
07E000
ENDCHAR
STARTCHAR uni2468
ENCODING 9320
SWIDTH 940 0
DWIDTH 19 0
BBX 17 18 1 -3
BITMAP
07E000
0C1800
300600
41C200
422100
841080
841080
841080
841080
863080
83D080
801080
841080
422100
43C200
300600
0C1800
07E000
ENDCHAR
STARTCHAR uni2469
ENCODING 9321
SWIDTH 940 0
DWIDTH 19 0
BBX 17 18 1 -3
BITMAP
07E000
0C1800
300600
447200
44C900
9C8480
848480
848480
848480
848480
848480
848480
848480
44C900
447200
300600
0C1800
07E000
ENDCHAR
STARTCHAR uni246A
ENCODING 9322
SWIDTH 940 0
DWIDTH 19 0
BBX 17 18 1 -3
BITMAP
07E000
0C1800
300600
421200
461100
9E7080
821080
821080
821080
821080
821080
821080
821080
421100
421200
300600
0C1800
07E000
ENDCHAR
STARTCHAR uni246B
ENCODING 9323
SWIDTH 940 0
DWIDTH 19 0
BBX 17 18 1 -3
BITMAP
07E000
0C1800
300600
447200
4C8900
BD0480
850480
840880
840880
843080
846080
84C080
848080
450100
45FE00
300600
0C1800
07E000
ENDCHAR
STARTCHAR uni246C
ENCODING 9324
SWIDTH 940 0
DWIDTH 19 0
BBX 17 18 1 -3
BITMAP
07E000
0C1800
300600
447200
4C8900
9D0880
850880
840880
843080
840880
840480
850480
850480
448900
447200
300600
0C1800
07E000
ENDCHAR
STARTCHAR uni246D
ENCODING 9325
SWIDTH 940 0
DWIDTH 19 0
BBX 17 18 1 -3
BITMAP
07E000
0C1800
300600
441200
441100
9C3080
843080
845080
849080
849080
851080
85FC80
841080
441100
441200
300600
0C1800
07E000
ENDCHAR
STARTCHAR uni246E
ENCODING 9326
SWIDTH 940 0
DWIDTH 19 0
BBX 17 18 1 -3
BITMAP
07E000
0C1800
300600
44FA00
4C8100
9C8080
848080
84F080
858880
840480
840480
850480
850480
448900
447200
300600
0C1800
07E000
ENDCHAR
STARTCHAR uni246F
ENCODING 9327
SWIDTH 940 0
DWIDTH 19 0
BBX 17 18 1 -3
BITMAP
07E000
081800
300400
443200
44C900
9C8480
850080
857080
858880
858480
850480
850480
848480
448900
447200
300400
0C1800
03E000
ENDCHAR
STARTCHAR uni2470
ENCODING 9328
SWIDTH 940 0
DWIDTH 19 0
BBX 17 18 1 -3
BITMAP
07E000
081800
300400
400200
45FD00
8C0880
941080
841080
842080
842080
842080
844080
844080
444100
444200
300400
0C1800
03E000
ENDCHAR
STARTCHAR uni2471
ENCODING 9329
SWIDTH 940 0
DWIDTH 19 0
BBX 17 18 1 -3
BITMAP
07E000
081800
300400
447200
448900
9C8480
848480
848880
847080
848880
850480
850480
850480
448900
447200
300400
0C1800
03E000
ENDCHAR
STARTCHAR uni2472
ENCODING 9330
SWIDTH 940 0
DWIDTH 19 0
BBX 17 18 1 -3
BITMAP
07E000
081800
300400
447200
448900
9C8480
850480
850480
848480
848C80
847480
840480
848480
44C900
447200
300400
0C1800
03E000
ENDCHAR
STARTCHAR uni2473
ENCODING 9331
SWIDTH 940 0
DWIDTH 19 0
BBX 17 18 1 -3
BITMAP
07E000
081800
300400
4E1A00
512500
914480
914480
814280
824280
864280
8C4480
884480
904480
5F3900
400200
300400
0C1800
03E000
ENDCHAR
STARTCHAR uni2474
ENCODING 9332
SWIDTH 940 0
DWIDTH 19 0
BBX 17 20 1 -4
BITMAP
200200
400100
400100
C08100
808080
818080
878080
808080
808080
808080
808080
808080
808080
808080
808080
808080
C08100
400100
400100
200200
ENDCHAR
STARTCHAR uni2475
ENCODING 9333
SWIDTH 940 0
DWIDTH 19 0
BBX 17 20 1 -4
BITMAP
200200
400100
400100
C3E100
863080
841080
841080
801080
801080
802080
80C080
818080
830080
860080
840080
840080
CFF100
400100
400100
200200
ENDCHAR
STARTCHAR uni2476
ENCODING 9334
SWIDTH 940 0
DWIDTH 19 0
BBX 17 20 1 -4
BITMAP
200200
400100
400100
C1E100
863080
841080
841080
801080
803080
80C080
803080
801880
800880
8C0880
841880
863080
C3E100
400100
400100
200200
ENDCHAR
STARTCHAR uni2477
ENCODING 9335
SWIDTH 940 0
DWIDTH 19 0
BBX 17 20 1 -4
BITMAP
200200
400100
400100
C06100
806080
80A080
812080
812080
822080
862080
842080
882080
8FF080
802080
802080
802080
C00100
400100
400100
200200
ENDCHAR
STARTCHAR uni2478
ENCODING 9336
SWIDTH 940 0
DWIDTH 19 0
BBX 17 20 1 -4
BITMAP
200200
400100
400100
C3F100
820080
820080
840080
840080
85E080
863080
801080
801880
801880
8C1080
841080
863080
C3C100
400100
400100
200200
ENDCHAR
STARTCHAR uni2479
ENCODING 9337
SWIDTH 940 0
DWIDTH 19 0
BBX 17 20 1 -4
BITMAP
200200
400100
400100
C1E100
823080
841080
841080
840080
8DE080
8E3080
8C1080
8C1880
841880
841080
841080
823080
C1E100
400100
400100
200200
ENDCHAR
STARTCHAR uni247A
ENCODING 9338
SWIDTH 940 0
DWIDTH 19 0
BBX 17 20 1 -4
BITMAP
200200
400100
400100
C00100
87F880
801080
802080
802080
804080
804080
808080
808080
818080
810080
810080
810080
C10100
400100
400100
200200
ENDCHAR
STARTCHAR uni247B
ENCODING 9339
SWIDTH 940 0
DWIDTH 19 0
BBX 17 20 1 -4
BITMAP
200200
400100
400100
C3C100
863080
841080
841080
841080
862080
81C080
863080
841080
881880
881880
8C1080
863080
C3E100
400100
400100
200200
ENDCHAR
STARTCHAR uni247C
ENCODING 9340
SWIDTH 940 0
DWIDTH 19 0
BBX 17 20 1 -4
BITMAP
200200
400100
400100
C3C100
862080
841080
841080
8C1880
841880
841880
862880
83D880
801080
801080
841080
862080
C3C100
400100
400100
200200
ENDCHAR
STARTCHAR uni247D
ENCODING 9341
SWIDTH 940 0
DWIDTH 19 0
BBX 17 20 1 -4
BITMAP
200200
400100
400100
C00100
847880
8CCC80
BC8480
848480
848480
858680
858680
858680
848480
848480
848480
84CC80
C47900
400100
400100
200200
ENDCHAR
STARTCHAR uni247E
ENCODING 9342
SWIDTH 940 0
DWIDTH 19 0
BBX 17 20 1 -4
BITMAP
200200
400100
400100
C00100
820880
861880
9E7880
820880
820880
820880
820880
820880
820880
820880
820880
820880
C20900
400100
400100
200200
ENDCHAR
STARTCHAR uni247F
ENCODING 9343
SWIDTH 940 0
DWIDTH 19 0
BBX 17 20 1 -4
BITMAP
200200
400100
400100
C87900
888C80
998480
B90480
880480
880480
880880
883080
886080
884080
888080
888080
890080
C9FD00
400100
400100
200200
ENDCHAR
STARTCHAR uni2480
ENCODING 9344
SWIDTH 940 0
DWIDTH 19 0
BBX 17 20 1 -4
BITMAP
200200
400100
400100
C47900
888C80
888480
B90480
880480
880C80
883080
880C80
880480
890680
890680
898480
888C80
C87900
400100
400100
200200
ENDCHAR
STARTCHAR uni2481
ENCODING 9345
SWIDTH 940 0
DWIDTH 19 0
BBX 17 20 1 -4
BITMAP
200200
400100
400100
C40900
841880
8C1880
BC2880
842880
844880
848880
848880
850880
85FE80
840880
840880
840880
C40900
400100
400100
200200
ENDCHAR
STARTCHAR uni2482
ENCODING 9346
SWIDTH 940 0
DWIDTH 19 0
BBX 17 20 1 -4
BITMAP
200200
400100
400100
C4FD00
8C8080
8C8080
BC8080
8C8080
8CF880
8C8C80
8C0480
8C0480
8C0480
8D0480
8D0480
8C8C80
CC7100
400100
400100
200200
ENDCHAR
STARTCHAR uni2483
ENCODING 9347
SWIDTH 940 0
DWIDTH 19 0
BBX 17 18 1 -3
BITMAP
400200
400100
400100
887980
888480
B88480
890080
897080
898C80
898480
890480
890480
890480
888480
88F980
400100
400100
400200
ENDCHAR
STARTCHAR uni2484
ENCODING 9348
SWIDTH 940 0
DWIDTH 19 0
BBX 17 18 1 -3
BITMAP
400200
400100
400100
85FD80
8C0480
9C0880
8C0880
8C1080
8C1080
8C2080
8C2080
8C2080
8C4080
8C4080
8C4180
4C4100
400100
400200
ENDCHAR
STARTCHAR uni2485
ENCODING 9349
SWIDTH 940 0
DWIDTH 19 0
BBX 17 18 1 -3
BITMAP
400200
400100
400100
887980
888480
B88480
888480
888C80
887880
888480
890480
890280
890280
888480
88F980
400100
400100
400200
ENDCHAR
STARTCHAR uni2486
ENCODING 9350
SWIDTH 940 0
DWIDTH 19 0
BBX 17 18 1 -3
BITMAP
400200
400100
400100
887980
888480
B98480
890680
890680
888680
888A80
887A80
880680
888480
888480
887980
400100
400100
400200
ENDCHAR
STARTCHAR uni2487
ENCODING 9351
SWIDTH 940 0
DWIDTH 19 0
BBX 17 18 1 -3
BITMAP
400200
400100
400100
8E3D80
912480
914280
A14280
814280
834280
864280
8C4280
984280
904280
A02480
BF1D80
400100
400100
400200
ENDCHAR
STARTCHAR uni249C
ENCODING 9372
SWIDTH 940 0
DWIDTH 19 0
BBX 17 20 1 -4
BITMAP
200200
400100
400100
C00100
81E080
823080
841080
841080
801080
81F080
871080
841080
841080
843080
83D880
800080
C00100
400100
400100
200200
ENDCHAR
STARTCHAR uni249D
ENCODING 9373
SWIDTH 940 0
DWIDTH 19 0
BBX 17 20 1 -4
BITMAP
200200
400100
400100
C40100
840080
840080
85E080
863080
841880
840880
840880
840880
840880
840880
841880
863080
C5E100
400100
400100
200200
ENDCHAR
STARTCHAR uni249E
ENCODING 9374
SWIDTH 940 0
DWIDTH 19 0
BBX 17 20 1 -4
BITMAP
200200
400100
400100
C00100
800080
81E080
863080
841080
840080
880080
880080
8C1080
841080
863080
83E080
800080
C00100
400100
400100
200200
ENDCHAR
STARTCHAR uni249F
ENCODING 9375
SWIDTH 940 0
DWIDTH 19 0
BBX 17 20 1 -4
BITMAP
200200
400100
400100
C01100
801080
801080
83D080
843080
883080
881080
881080
881080
881080
881080
883080
847080
C3D100
400100
400100
200200
ENDCHAR
STARTCHAR uni24A0
ENCODING 9376
SWIDTH 940 0
DWIDTH 19 0
BBX 17 20 1 -4
BITMAP
200200
400100
400100
C00100
800080
83C080
863080
841080
841080
8FF080
880080
8C0080
841080
863080
83E080
800080
C00100
400100
400100
200200
ENDCHAR
STARTCHAR uni24A1
ENCODING 9377
SWIDTH 940 0
DWIDTH 19 0
BBX 17 20 1 -4
BITMAP
200200
400100
400100
C0E100
808080
808080
808080
83E080
808080
808080
808080
808080
808080
808080
808080
808080
C08100
400100
400100
200200
ENDCHAR
STARTCHAR uni24A2
ENCODING 9378
SWIDTH 940 0
DWIDTH 19 0
BBX 17 20 1 -4
BITMAP
200200
400100
400100
C00100
81D880
863880
841880
8C1880
881880
881880
8C1880
841880
863880
83D080
841080
863080
C3E100
400100
400100
200200
ENDCHAR
STARTCHAR uni24A3
ENCODING 9379
SWIDTH 940 0
DWIDTH 19 0
BBX 17 20 1 -4
BITMAP
200200
400100
400100
C40100
840080
840080
840080
85E080
863080
841080
841080
841080
841080
841080
841080
841080
C41100
400100
400100
200200
ENDCHAR
STARTCHAR uni24A4
ENCODING 9380
SWIDTH 940 0
DWIDTH 19 0
BBX 17 20 1 -4
BITMAP
200200
400100
400100
C08100
808080
800080
800080
808080
808080
808080
808080
808080
808080
808080
808080
808080
C08100
400100
400100
200200
ENDCHAR
STARTCHAR uni24A5
ENCODING 9381
SWIDTH 940 0
DWIDTH 19 0
BBX 17 20 1 -4
BITMAP
200200
408100
408100
C00100
800080
808080
808080
808080
808080
808080
808080
808080
808080
808080
808080
808080
C08100
408100
418100
200200
ENDCHAR
STARTCHAR uni24A6
ENCODING 9382
SWIDTH 940 0
DWIDTH 19 0
BBX 17 20 1 -4
BITMAP
200200
400100
400100
C40100
840080
840080
840080
841080
842080
84C080
858080
87C080
864080
842080
842080
841080
C41900
400100
400100
200200
ENDCHAR
STARTCHAR uni24A7
ENCODING 9383
SWIDTH 940 0
DWIDTH 19 0
BBX 17 20 1 -4
BITMAP
200200
400100
400100
C08100
808080
808080
808080
808080
808080
808080
808080
808080
808080
808080
808080
808080
C08100
400100
400100
200200
ENDCHAR
STARTCHAR uni24A8
ENCODING 9384
SWIDTH 940 0
DWIDTH 19 0
BBX 17 20 1 -4
BITMAP
200200
400100
400100
C00100
800080
AF3C80
B1C680
B08280
A08280
A08280
A08280
A08280
A08280
A08280
A08280
800080
C00100
400100
400100
200200
ENDCHAR
STARTCHAR uni24A9
ENCODING 9385
SWIDTH 940 0
DWIDTH 19 0
BBX 17 20 1 -4
BITMAP
200200
400100
400100
C00100
800080
85E080
863080
841080
841080
841080
841080
841080
841080
841080
841080
800080
C00100
400100
400100
200200
ENDCHAR
STARTCHAR uni24AA
ENCODING 9386
SWIDTH 940 0
DWIDTH 19 0
BBX 17 20 1 -4
BITMAP
200200
400100
400100
C00100
800080
83C080
863080
841080
881880
880880
880880
881880
841080
863080
83C080
800080
C00100
400100
400100
200200
ENDCHAR
STARTCHAR uni24AB
ENCODING 9387
SWIDTH 940 0
DWIDTH 19 0
BBX 17 20 1 -4
BITMAP
200200
400100
400100
C00100
85E080
863080
841880
840880
840880
840880
840880
841880
863080
85E080
840080
840080
C40100
400100
400100
200200
ENDCHAR
STARTCHAR uni24AC
ENCODING 9388
SWIDTH 940 0
DWIDTH 19 0
BBX 17 20 1 -4
BITMAP
200200
400100
400100
C00100
83D080
843080
8C1080
881080
881080
881080
881080
8C1080
843080
83D080
801080
801080
C01100
400100
400100
200200
ENDCHAR
STARTCHAR uni24AD
ENCODING 9389
SWIDTH 940 0
DWIDTH 19 0
BBX 17 20 1 -4
BITMAP
200200
400100
400100
C00100
800080
816080
818080
810080
810080
810080
810080
810080
810080
810080
810080
800080
C00100
400100
400100
200200
ENDCHAR
STARTCHAR uni24AE
ENCODING 9390
SWIDTH 940 0
DWIDTH 19 0
BBX 17 20 1 -4
BITMAP
200200
400100
400100
C00100
83C080
862080
841080
840080
830080
81E080
803080
801080
841080
863080
83E080
800080
C00100
400100
400100
200200
ENDCHAR
STARTCHAR uni24AF
ENCODING 9391
SWIDTH 940 0
DWIDTH 19 0
BBX 17 20 1 -4
BITMAP
200200
400100
400100
C18100
818080
818080
83C080
818080
818080
818080
818080
818080
818080
818080
818080
808080
C0C100
400100
400100
200200
ENDCHAR
STARTCHAR uni24B0
ENCODING 9392
SWIDTH 940 0
DWIDTH 19 0
BBX 17 20 1 -4
BITMAP
200200
400100
400100
C00100
800080
841080
841080
841080
841080
841080
841080
841080
841080
863080
83D080
800080
C00100
400100
400100
200200
ENDCHAR
STARTCHAR uni24B1
ENCODING 9393
SWIDTH 940 0
DWIDTH 19 0
BBX 17 20 1 -4
BITMAP
200200
400100
400100
C00100
800080
841080
841080
841080
822080
822080
822080
824080
814080
814080
814080
808080
C00100
400100
400100
200200
ENDCHAR
STARTCHAR uni24B2
ENCODING 9394
SWIDTH 940 0
DWIDTH 19 0
BBX 17 20 1 -4
BITMAP
200200
400100
400100
C00100
800080
A08280
B18480
914480
914480
914C80
8A4880
8A2880
8A2880
8A3080
841080
800080
C00100
400100
400100
200200
ENDCHAR
STARTCHAR uni24B3
ENCODING 9395
SWIDTH 940 0
DWIDTH 19 0
BBX 17 20 1 -4
BITMAP
200200
400100
400100
C00100
800080
841080
862080
826080
814080
818080
818080
814080
822080
863080
841080
800080
C00100
400100
400100
200200
ENDCHAR
STARTCHAR uni24B4
ENCODING 9396
SWIDTH 940 0
DWIDTH 19 0
BBX 17 20 1 -4
BITMAP
200200
400100
400100
C00100
841880
841080
821080
822080
822080
812080
814080
814080
80C080
808080
808080
808080
C30100
400100
400100
200200
ENDCHAR
STARTCHAR uni24B5
ENCODING 9397
SWIDTH 940 0
DWIDTH 19 0
BBX 17 20 1 -4
BITMAP
200200
400100
400100
C00100
800080
87F080
803080
806080
804080
808080
818080
810080
820080
840080
87F080
800080
C00100
400100
400100
200200
ENDCHAR
STARTCHAR uni24B6
ENCODING 9398
SWIDTH 940 0
DWIDTH 19 0
BBX 17 18 1 -3
BITMAP
07E000
081800
308400
418200
414100
814080
826080
822080
822080
841080
87F080
8C1080
880880
480900
400200
300400
0C1800
03E000
ENDCHAR
STARTCHAR uni24B7
ENCODING 9399
SWIDTH 940 0
DWIDTH 19 0
BBX 17 18 1 -3
BITMAP
07E000
081800
300400
4FE200
481900
880880
880880
881080
8FE080
881880
880880
880880
880880
481900
4FE200
300400
0C1800
03E000
ENDCHAR
STARTCHAR uni24B8
ENCODING 9400
SWIDTH 940 0
DWIDTH 19 0
BBX 17 18 1 -3
BITMAP
07E000
081800
300400
43E200
443100
881880
880880
900080
900080
900080
900080
880880
881880
441100
43E200
300400
0C1800
03E000
ENDCHAR
STARTCHAR uni24B9
ENCODING 9401
SWIDTH 940 0
DWIDTH 19 0
BBX 17 18 1 -3
BITMAP
07E000
081800
300400
4FC200
4C3100
8C0880
8C0880
8C0C80
8C0480
8C0480
8C0C80
8C0880
8C0880
4C1100
4FE200
300400
0C1800
03E000
ENDCHAR
STARTCHAR uni24BA
ENCODING 9402
SWIDTH 940 0
DWIDTH 19 0
BBX 17 18 1 -3
BITMAP
07E000
081800
300400
4FF200
4C0100
8C0080
8C0080
8C0080
8FF080
8C0080
8C0080
8C0080
8C0080
4C0100
4FF200
300400
0C1800
03E000
ENDCHAR
STARTCHAR uni24BB
ENCODING 9403
SWIDTH 940 0
DWIDTH 19 0
BBX 17 18 1 -3
BITMAP
07E000
081800
300400
47F200
440100
840080
840080
840080
840080
87F080
840080
840080
840080
440100
440200
300400
0C1800
03E000
ENDCHAR
STARTCHAR uni24BC
ENCODING 9404
SWIDTH 940 0
DWIDTH 19 0
BBX 17 18 1 -3
BITMAP
07E000
081800
300400
43E200
4C1100
881880
900880
900080
900080
90F880
900880
980880
881880
443900
43EA00
300400
0C1800
03E000
ENDCHAR
STARTCHAR uni24BD
ENCODING 9405
SWIDTH 940 0
DWIDTH 19 0
BBX 17 18 1 -3
BITMAP
07E000
081800
300400
480A00
480900
880880
880880
880880
8FF880
880880
880880
880880
880880
480900
480A00
300400
0C1800
03E000
ENDCHAR
STARTCHAR uni24BE
ENCODING 9406
SWIDTH 940 0
DWIDTH 19 0
BBX 17 18 1 -3
BITMAP
07E000
081800
300400
408200
408100
808080
808080
808080
808080
808080
808080
808080
808080
408100
408200
300400
0C1800
03E000
ENDCHAR
STARTCHAR uni24BF
ENCODING 9407
SWIDTH 940 0
DWIDTH 19 0
BBX 17 18 1 -3
BITMAP
07E000
081800
300400
402200
402100
802080
802080
802080
802080
802080
802080
842080
842080
446100
43C200
300400
0C1800
03E000
ENDCHAR
STARTCHAR uni24C0
ENCODING 9408
SWIDTH 940 0
DWIDTH 19 0
BBX 17 18 1 -3
BITMAP
07E000
081800
300400
481A00
483100
886080
88C080
898080
8B8080
8E8080
8C4080
886080
882080
481100
480A00
300400
0C1800
03E000
ENDCHAR
STARTCHAR uni24C1
ENCODING 9409
SWIDTH 940 0
DWIDTH 19 0
BBX 17 18 1 -3
BITMAP
07E000
081800
300400
440200
440100
840080
840080
840080
840080
840080
840080
840080
840080
440100
47F200
300400
0C1800
03E000
ENDCHAR
STARTCHAR uni24C2
ENCODING 9410
SWIDTH 940 0
DWIDTH 19 0
BBX 17 18 1 -3
BITMAP
07E000
081800
300400
580E00
580D00
981C80
941480
941480
962480
922480
922480
914480
914480
518500
508600
300400
0C1800
03E000
ENDCHAR
STARTCHAR uni24C3
ENCODING 9411
SWIDTH 940 0
DWIDTH 19 0
BBX 17 18 1 -3
BITMAP
07E000
081800
300400
480A00
4C0900
8E0880
8A0880
890880
898880
888880
884880
886880
882880
481900
481A00
300400
0C1800
03E000
ENDCHAR
STARTCHAR uni24C4
ENCODING 9412
SWIDTH 940 0
DWIDTH 19 0
BBX 17 18 1 -3
BITMAP
07E000
081800
300400
43E200
441100
880880
980880
900C80
900480
900480
900880
880880
881880
443100
43E200
300400
0C1800
03E000
ENDCHAR
STARTCHAR uni24C5
ENCODING 9413
SWIDTH 940 0
DWIDTH 19 0
BBX 17 18 1 -3
BITMAP
07E000
081800
300400
47E200
441100
840880
840880
840880
841880
87F080
840080
840080
840080
440100
440200
300400
0C1800
03E000
ENDCHAR
STARTCHAR uni24C6
ENCODING 9414
SWIDTH 940 0
DWIDTH 19 0
BBX 17 18 1 -3
BITMAP
07E000
081800
300400
43E200
441100
880880
980880
900C80
900480
900480
900880
880880
887880
443100
43EA00
300400
0C1800
03E000
ENDCHAR
STARTCHAR uni24C7
ENCODING 9415
SWIDTH 940 0
DWIDTH 19 0
BBX 17 18 1 -3
BITMAP
07E000
081800
300400
4FF200
481900
880880
880880
881880
883080
8FF080
881080
880880
880880
480900
480A00
300400
0C1800
03E000
ENDCHAR
STARTCHAR uni24C8
ENCODING 9416
SWIDTH 940 0
DWIDTH 19 0
BBX 17 18 1 -3
BITMAP
07E000
081800
300400
43E200
443100
8C1080
881080
840080
838080
807080
801880
880880
880880
441100
43E200
300400
0C1800
03E000
ENDCHAR
STARTCHAR uni24C9
ENCODING 9417
SWIDTH 940 0
DWIDTH 19 0
BBX 17 18 1 -3
BITMAP
07E000
081800
300400
400200
4FF900
808080
808080
808080
808080
808080
808080
808080
808080
408100
408200
300400
0C1800
03E000
ENDCHAR
STARTCHAR uni24CA
ENCODING 9418
SWIDTH 940 0
DWIDTH 19 0
BBX 17 18 1 -3
BITMAP
07E000
081800
300400
400200
480900
880880
880880
880880
880880
880880
880880
880880
880880
4C1100
463200
31C400
0C1800
03E000
ENDCHAR
STARTCHAR uni24CB
ENCODING 9419
SWIDTH 940 0
DWIDTH 19 0
BBX 17 18 1 -3
BITMAP
07E000
081800
300400
400200
480900
881880
841080
841080
843080
822080
822080
824080
814080
414100
418200
300400
0C1800
03E000
ENDCHAR
STARTCHAR uni24CC
ENCODING 9420
SWIDTH 940 0
DWIDTH 19 0
BBX 17 18 1 -3
BITMAP
07E000
081800
300400
400200
608300
A14280
B14680
914480
914480
922480
922C80
8A2880
8A2880
4C1900
4C1A00
300400
0C1800
03E000
ENDCHAR
STARTCHAR uni24CD
ENCODING 9421
SWIDTH 940 0
DWIDTH 19 0
BBX 17 18 1 -3
BITMAP
07E000
081800
300400
481A00
441100
862080
826080
814080
808080
818080
814080
822080
862080
441100
480A00
300400
0C1800
03E000
ENDCHAR
STARTCHAR uni24CE
ENCODING 9422
SWIDTH 940 0
DWIDTH 19 0
BBX 17 18 1 -3
BITMAP
07E000
081800
300400
400200
480900
841080
843080
822080
814080
81C080
808080
808080
808080
408100
408200
308400
0C1800
03E000
ENDCHAR
STARTCHAR uni24CF
ENCODING 9423
SWIDTH 940 0
DWIDTH 19 0
BBX 17 18 1 -3
BITMAP
07E000
081800
300400
47FA00
401100
803080
802080
804080
808080
818080
810080
820080
840080
4C0100
4FFA00
300400
0C1800
03E000
ENDCHAR
STARTCHAR uni24D0
ENCODING 9424
SWIDTH 940 0
DWIDTH 19 0
BBX 17 18 1 -3
BITMAP
07E000
0C1800
300600
400200
41E100
823080
841080
801080
81F080
861080
841080
843080
843080
43D900
400200
300600
0C1800
07E000
ENDCHAR
STARTCHAR uni24D1
ENCODING 9425
SWIDTH 940 0
DWIDTH 19 0
BBX 17 18 1 -3
BITMAP
07E000
0C1800
300600
440200
440100
840080
85E080
863080
861080
840880
840880
840880
841880
461100
45E200
300600
0C1800
07E000
ENDCHAR
STARTCHAR uni24D2
ENCODING 9426
SWIDTH 940 0
DWIDTH 19 0
BBX 17 18 1 -3
BITMAP
07E000
0C1800
300600
400200
41C100
862080
841080
840080
8C0080
8C0080
840080
841080
863080
41C100
400200
300600
0C1800
07E000
ENDCHAR
STARTCHAR uni24D3
ENCODING 9427
SWIDTH 940 0
DWIDTH 19 0
BBX 17 18 1 -3
BITMAP
07E000
0C1800
300600
401200
401100
801080
83D080
847080
8C3080
881080
881080
881080
883080
443100
43D200
300600
0C1800
07E000
ENDCHAR
STARTCHAR uni24D4
ENCODING 9428
SWIDTH 940 0
DWIDTH 19 0
BBX 17 18 1 -3
BITMAP
07E000
0C1800
300600
400200
43C100
862080
841080
841080
8FF080
8C0080
840080
841080
862080
43C100
400200
300600
0C1800
07E000
ENDCHAR
STARTCHAR uni24D5
ENCODING 9429
SWIDTH 940 0
DWIDTH 19 0
BBX 17 18 1 -3
BITMAP
07E000
0C1800
300600
40C200
408100
818080
818080
83C080
818080
818080
818080
818080
818080
418100
418200
300600
0C1800
07E000
ENDCHAR
STARTCHAR uni24D6
ENCODING 9430
SWIDTH 940 0
DWIDTH 19 0
BBX 17 18 1 -3
BITMAP
07E000
0C1800
300600
43D200
463100
841080
841080
8C1080
8C1080
841080
843080
83D080
841080
443100
43E200
300600
0C1800
07E000
ENDCHAR
STARTCHAR uni24D7
ENCODING 9431
SWIDTH 940 0
DWIDTH 19 0
BBX 17 18 1 -3
BITMAP
07E000
0C1800
300600
440200
440100
840080
85E080
863080
841080
841080
841080
841080
841080
441100
441200
300600
0C1800
07E000
ENDCHAR
STARTCHAR uni24D8
ENCODING 9432
SWIDTH 940 0
DWIDTH 19 0
BBX 17 18 1 -3
BITMAP
07E000
0C1800
300600
408200
408100
800080
808080
808080
808080
808080
808080
808080
808080
408100
408200
300600
0C1800
07E000
ENDCHAR
STARTCHAR uni24D9
ENCODING 9433
SWIDTH 940 0
DWIDTH 19 0
BBX 17 18 1 -3
BITMAP
07E000
0C1800
308600
408200
400100
800080
808080
808080
808080
808080
808080
808080
808080
408100
408200
318600
0C1800
07E000
ENDCHAR
STARTCHAR uni24DA
ENCODING 9434
SWIDTH 940 0
DWIDTH 19 0
BBX 17 18 1 -3
BITMAP
07E000
0C1800
300600
440200
440100
840080
843080
846080
84C080
858080
87C080
864080
842080
443100
441200
300600
0C1800
07E000
ENDCHAR
STARTCHAR uni24DB
ENCODING 9435
SWIDTH 940 0
DWIDTH 19 0
BBX 17 18 1 -3
BITMAP
07E000
0C1800
300600
408200
408100
808080
808080
808080
808080
808080
808080
808080
808080
408100
408200
300600
0C1800
07E000
ENDCHAR
STARTCHAR uni24DC
ENCODING 9436
SWIDTH 940 0
DWIDTH 19 0
BBX 17 18 1 -3
BITMAP
07E000
0C1800
300600
400200
400100
9F3C80
90C480
908480
908480
908480
908480
908480
908480
400100
400200
300600
0C1800
07E000
ENDCHAR
STARTCHAR uni24DD
ENCODING 9437
SWIDTH 940 0
DWIDTH 19 0
BBX 17 18 1 -3
BITMAP
07E000
0C1800
300600
400200
45E100
863080
841080
841080
841080
841080
841080
841080
841080
400100
400200
300600
0C1800
07E000
ENDCHAR
STARTCHAR uni24DE
ENCODING 9438
SWIDTH 940 0
DWIDTH 19 0
BBX 17 18 1 -3
BITMAP
07E000
0C1800
300600
400200
43C100
862080
841080
8C1080
881080
881080
8C1080
841080
862080
43C100
400200
300600
0C1800
07E000
ENDCHAR
STARTCHAR uni24DF
ENCODING 9439
SWIDTH 940 0
DWIDTH 19 0
BBX 17 18 1 -3
BITMAP
07E000
0C1800
300600
400200
45E100
861080
841080
840880
840880
841880
841080
863080
85E080
440100
440200
300600
0C1800
07E000
ENDCHAR
STARTCHAR uni24E0
ENCODING 9440
SWIDTH 940 0
DWIDTH 19 0
BBX 17 18 1 -3
BITMAP
07E000
0C1800
300600
400200
43D100
843080
883080
881080
881080
881080
8C3080
843080
83D080
401100
401200
300600
0C1800
07E000
ENDCHAR
STARTCHAR uni24E1
ENCODING 9441
SWIDTH 940 0
DWIDTH 19 0
BBX 17 18 1 -3
BITMAP
07E000
0C1800
300600
400200
400100
816080
818080
810080
810080
810080
810080
810080
810080
410100
400200
300600
0C1800
07E000
ENDCHAR
STARTCHAR uni24E2
ENCODING 9442
SWIDTH 940 0
DWIDTH 19 0
BBX 17 18 1 -3
BITMAP
07E000
0C1800
300600
400200
43C100
822080
843080
860080
838080
806080
801080
841080
863080
43E100
400200
300600
0C1800
07E000
ENDCHAR
STARTCHAR uni24E3
ENCODING 9443
SWIDTH 940 0
DWIDTH 19 0
BBX 17 18 1 -3
BITMAP
07E000
0C1800
300600
410200
410100
810080
83C080
810080
810080
810080
810080
810080
810080
410100
40C200
300600
0C1800
07E000
ENDCHAR
STARTCHAR uni24E4
ENCODING 9444
SWIDTH 940 0
DWIDTH 19 0
BBX 17 18 1 -3
BITMAP
07E000
0C1800
300600
400200
400100
841080
841080
841080
841080
841080
841080
843080
843080
43D100
400200
300600
0C1800
07E000
ENDCHAR
STARTCHAR uni24E5
ENCODING 9445
SWIDTH 940 0
DWIDTH 19 0
BBX 17 18 1 -3
BITMAP
07E000
0C1800
300600
400200
400100
841080
841080
862080
822080
822080
814080
814080
818080
408100
400200
300600
0C1800
07E000
ENDCHAR
STARTCHAR uni24E6
ENCODING 9446
SWIDTH 940 0
DWIDTH 19 0
BBX 17 18 1 -3
BITMAP
07E000
0C1800
300600
400200
400100
908480
914480
914480
894880
894880
8A2880
8A2880
863080
463100
400200
300600
0C1800
07E000
ENDCHAR
STARTCHAR uni24E7
ENCODING 9447
SWIDTH 940 0
DWIDTH 19 0
BBX 17 18 1 -3
BITMAP
07E000
0C1800
300600
400200
400100
843080
822080
814080
818080
818080
814080
826080
862080
441100
400200
300600
0C1800
07E000
ENDCHAR
STARTCHAR uni24E8
ENCODING 9448
SWIDTH 940 0
DWIDTH 19 0
BBX 17 18 1 -3
BITMAP
07E000
0C1800
300600
400200
441100
841080
822080
822080
822080
814080
814080
80C080
808080
408100
418200
330600
0C1800
07E000
ENDCHAR
STARTCHAR uni24E9
ENCODING 9449
SWIDTH 940 0
DWIDTH 19 0
BBX 17 18 1 -3
BITMAP
07E000
0C1800
300600
400200
400100
87F080
802080
804080
808080
810080
830080
860080
87F080
400100
400200
300600
0C1800
07E000
ENDCHAR
STARTCHAR uni24EB
ENCODING 9451
SWIDTH 940 0
DWIDTH 19 0
BBX 17 18 1 -3
BITMAP
03E000
0FF800
3FFC00
7FEE00
7BEF00
E38F80
FBEF80
FBEF80
FBEF80
FBEF80
FBEF80
FBEF80
FBEF80
7BEF00
7BEE00
3FFC00
0FF800
03E000
ENDCHAR
STARTCHAR uni24EC
ENCODING 9452
SWIDTH 940 0
DWIDTH 19 0
BBX 17 18 1 -3
BITMAP
03E000
0FF800
3FFC00
7F8600
777700
C6FB80
F6FB80
F7FB80
F7F780
F7EF80
F79F80
F73F80
F77F80
76FF00
760200
3FFC00
0FF800
03E000
ENDCHAR
STARTCHAR uni24ED
ENCODING 9453
SWIDTH 940 0
DWIDTH 19 0
BBX 17 18 1 -3
BITMAP
03E000
0FF800
3FFC00
7F8E00
777700
C6FB80
F6FB80
F7F780
F7CF80
F7F780
F7FB80
F6FB80
F6FB80
767300
770600
3FFC00
0FF800
03E000
ENDCHAR
STARTCHAR uni24EE
ENCODING 9454
SWIDTH 940 0
DWIDTH 19 0
BBX 17 18 1 -3
BITMAP
03E000
0FF800
3FFC00
7BE600
73E700
E3D780
FBD780
FBB780
FB7780
FB7780
FAF780
FA0380
FBF780
7BF700
7BF600
3FFC00
0FF800
03E000
ENDCHAR
STARTCHAR uni24EF
ENCODING 9455
SWIDTH 940 0
DWIDTH 19 0
BBX 17 18 1 -3
BITMAP
03E000
0FF800
3FFC00
7F0200
777F00
C77F80
FF7F80
FF8F80
FE7780
FFFB80
FFFB80
FFFB80
FEFB80
7F7700
7F0E00
3FFC00
0FF800
03E000
ENDCHAR
STARTCHAR uni24F0
ENCODING 9456
SWIDTH 940 0
DWIDTH 19 0
BBX 17 18 1 -3
BITMAP
03E000
0FF800
3FFC00
7F8600
777700
C77B80
F6FF80
F68F80
F67780
F67B80
F6FB80
F6FB80
F6FB80
777300
778600
3FFC00
0FF800
03E000
ENDCHAR
STARTCHAR uni24F1
ENCODING 9457
SWIDTH 940 0
DWIDTH 19 0
BBX 17 18 1 -3
BITMAP
03E000
0FF800
3FFC00
7A0200
7BFB00
E3F780
FBF780
FBEF80
FBFF80
FBDF80
FBDF80
FB9F80
FBBF80
7BBF00
7BBE00
3FFC00
0FF800
03E000
ENDCHAR
STARTCHAR uni24F2
ENCODING 9458
SWIDTH 940 0
DWIDTH 19 0
BBX 17 18 1 -3
BITMAP
03E000
0FF800
3FFC00
7F8600
777300
C77B80
F77B80
F77780
F78F80
F77380
F6FB80
F6FB80
F6FB80
777300
778600
3FFC00
0FF800
03E000
ENDCHAR
STARTCHAR uni24F3
ENCODING 9459
SWIDTH 940 0
DWIDTH 19 0
BBX 17 18 1 -3
BITMAP
03E000
0FF800
3FFC00
7F8600
777300
C77B80
FEFB80
FEFB80
FF7B80
FF7380
FF8B80
FFFB80
FF7B80
7F7700
7F8600
3FFC00
0FF800
03E000
ENDCHAR
STARTCHAR uni24F4
ENCODING 9460
SWIDTH 940 0
DWIDTH 19 0
BBX 17 18 1 -3
BITMAP
03E000
0FF800
3FFC00
71C600
6EDB00
EEBF80
EEBD80
FEBD80
FDBD80
F9BD80
F3BD80
E7BD80
EFBB80
60DB00
7FE600
3FFC00
0FF800
03E000
ENDCHAR
STARTCHAR SF100000
ENCODING 9472
SWIDTH 940 0
DWIDTH 19 0
BBX 19 1 0 5
BITMAP
FFFFE0
ENDCHAR
STARTCHAR uni2501
ENCODING 9473
SWIDTH 940 0
DWIDTH 19 0
BBX 19 1 0 5
BITMAP
FFFFE0
ENDCHAR
STARTCHAR SF110000
ENCODING 9474
SWIDTH 940 0
DWIDTH 19 0
BBX 1 20 9 -4
BITMAP
80
80
80
80
80
80
80
80
80
80
80
80
80
80
80
80
80
80
80
80
ENDCHAR
STARTCHAR uni2503
ENCODING 9475
SWIDTH 940 0
DWIDTH 19 0
BBX 1 20 9 -4
BITMAP
80
80
80
80
80
80
80
80
80
80
80
80
80
80
80
80
80
80
80
80
ENDCHAR
STARTCHAR SF010000
ENCODING 9484
SWIDTH 940 0
DWIDTH 19 0
BBX 10 10 9 -4
BITMAP
FFC0
8000
8000
8000
8000
8000
8000
8000
8000
8000
ENDCHAR
STARTCHAR uni250D
ENCODING 9485
SWIDTH 940 0
DWIDTH 19 0
BBX 10 10 9 -4
BITMAP
FFC0
8000
8000
8000
8000
8000
8000
8000
8000
8000
ENDCHAR
STARTCHAR uni250E
ENCODING 9486
SWIDTH 940 0
DWIDTH 19 0
BBX 10 10 9 -4
BITMAP
FFC0
8000
8000
8000
8000
8000
8000
8000
8000
8000
ENDCHAR
STARTCHAR uni250F
ENCODING 9487
SWIDTH 940 0
DWIDTH 19 0
BBX 10 10 9 -4
BITMAP
FFC0
8000
8000
8000
8000
8000
8000
8000
8000
8000
ENDCHAR
STARTCHAR SF030000
ENCODING 9488
SWIDTH 940 0
DWIDTH 19 0
BBX 10 10 0 -4
BITMAP
FFC0
0040
0040
0040
0040
0040
0040
0040
0040
0040
ENDCHAR
STARTCHAR uni2511
ENCODING 9489
SWIDTH 940 0
DWIDTH 19 0
BBX 10 10 0 -4
BITMAP
FFC0
0040
0040
0040
0040
0040
0040
0040
0040
0040
ENDCHAR
STARTCHAR uni2512
ENCODING 9490
SWIDTH 940 0
DWIDTH 19 0
BBX 10 10 0 -4
BITMAP
FFC0
0040
0040
0040
0040
0040
0040
0040
0040
0040
ENDCHAR
STARTCHAR uni2513
ENCODING 9491
SWIDTH 940 0
DWIDTH 19 0
BBX 10 10 0 -4
BITMAP
FFC0
0040
0040
0040
0040
0040
0040
0040
0040
0040
ENDCHAR
STARTCHAR SF020000
ENCODING 9492
SWIDTH 940 0
DWIDTH 19 0
BBX 10 11 9 5
BITMAP
8000
8000
8000
8000
8000
8000
8000
8000
8000
8000
FFC0
ENDCHAR
STARTCHAR uni2515
ENCODING 9493
SWIDTH 940 0
DWIDTH 19 0
BBX 10 11 9 5
BITMAP
8000
8000
8000
8000
8000
8000
8000
8000
8000
8000
FFC0
ENDCHAR
STARTCHAR uni2516
ENCODING 9494
SWIDTH 940 0
DWIDTH 19 0
BBX 10 11 9 5
BITMAP
8000
8000
8000
8000
8000
8000
8000
8000
8000
8000
FFC0
ENDCHAR
STARTCHAR uni2517
ENCODING 9495
SWIDTH 940 0
DWIDTH 19 0
BBX 10 11 9 5
BITMAP
8000
8000
8000
8000
8000
8000
8000
8000
8000
8000
FFC0
ENDCHAR
STARTCHAR SF040000
ENCODING 9496
SWIDTH 940 0
DWIDTH 19 0
BBX 10 11 0 5
BITMAP
0040
0040
0040
0040
0040
0040
0040
0040
0040
0040
FFC0
ENDCHAR
STARTCHAR uni2519
ENCODING 9497
SWIDTH 940 0
DWIDTH 19 0
BBX 10 11 0 5
BITMAP
0040
0040
0040
0040
0040
0040
0040
0040
0040
0040
FFC0
ENDCHAR
STARTCHAR uni251A
ENCODING 9498
SWIDTH 940 0
DWIDTH 19 0
BBX 10 11 0 5
BITMAP
0040
0040
0040
0040
0040
0040
0040
0040
0040
0040
FFC0
ENDCHAR
STARTCHAR uni251B
ENCODING 9499
SWIDTH 940 0
DWIDTH 19 0
BBX 10 11 0 5
BITMAP
0040
0040
0040
0040
0040
0040
0040
0040
0040
0040
FFC0
ENDCHAR
STARTCHAR SF080000
ENCODING 9500
SWIDTH 940 0
DWIDTH 19 0
BBX 10 20 9 -4
BITMAP
8000
8000
8000
8000
8000
8000
8000
8000
8000
8000
FFC0
8000
8000
8000
8000
8000
8000
8000
8000
8000
ENDCHAR
STARTCHAR uni251D
ENCODING 9501
SWIDTH 940 0
DWIDTH 19 0
BBX 10 20 9 -4
BITMAP
8000
8000
8000
8000
8000
8000
8000
8000
8000
8000
FFC0
8000
8000
8000
8000
8000
8000
8000
8000
8000
ENDCHAR
STARTCHAR uni251E
ENCODING 9502
SWIDTH 940 0
DWIDTH 19 0
BBX 10 20 9 -4
BITMAP
8000
8000
8000
8000
8000
8000
8000
8000
8000
8000
FFC0
8000
8000
8000
8000
8000
8000
8000
8000
8000
ENDCHAR
STARTCHAR uni251F
ENCODING 9503
SWIDTH 940 0
DWIDTH 19 0
BBX 10 20 9 -4
BITMAP
8000
8000
8000
8000
8000
8000
8000
8000
8000
8000
FFC0
8000
8000
8000
8000
8000
8000
8000
8000
8000
ENDCHAR
STARTCHAR uni2520
ENCODING 9504
SWIDTH 940 0
DWIDTH 19 0
BBX 10 20 9 -4
BITMAP
8000
8000
8000
8000
8000
8000
8000
8000
8000
8000
FFC0
8000
8000
8000
8000
8000
8000
8000
8000
8000
ENDCHAR
STARTCHAR uni2521
ENCODING 9505
SWIDTH 940 0
DWIDTH 19 0
BBX 10 20 9 -4
BITMAP
8000
8000
8000
8000
8000
8000
8000
8000
8000
8000
FFC0
8000
8000
8000
8000
8000
8000
8000
8000
8000
ENDCHAR
STARTCHAR uni2522
ENCODING 9506
SWIDTH 940 0
DWIDTH 19 0
BBX 10 20 9 -4
BITMAP
8000
8000
8000
8000
8000
8000
8000
8000
8000
8000
FFC0
8000
8000
8000
8000
8000
8000
8000
8000
8000
ENDCHAR
STARTCHAR uni2523
ENCODING 9507
SWIDTH 940 0
DWIDTH 19 0
BBX 10 20 9 -4
BITMAP
8000
8000
8000
8000
8000
8000
8000
8000
8000
8000
FFC0
8000
8000
8000
8000
8000
8000
8000
8000
8000
ENDCHAR
STARTCHAR SF090000
ENCODING 9508
SWIDTH 940 0
DWIDTH 19 0
BBX 10 20 0 -4
BITMAP
0040
0040
0040
0040
0040
0040
0040
0040
0040
0040
FFC0
0040
0040
0040
0040
0040
0040
0040
0040
0040
ENDCHAR
STARTCHAR uni2525
ENCODING 9509
SWIDTH 940 0
DWIDTH 19 0
BBX 10 20 0 -4
BITMAP
0040
0040
0040
0040
0040
0040
0040
0040
0040
0040
FFC0
0040
0040
0040
0040
0040
0040
0040
0040
0040
ENDCHAR
STARTCHAR uni2526
ENCODING 9510
SWIDTH 940 0
DWIDTH 19 0
BBX 10 20 0 -4
BITMAP
0040
0040
0040
0040
0040
0040
0040
0040
0040
0040
FFC0
0040
0040
0040
0040
0040
0040
0040
0040
0040
ENDCHAR
STARTCHAR uni2527
ENCODING 9511
SWIDTH 940 0
DWIDTH 19 0
BBX 10 20 0 -4
BITMAP
0040
0040
0040
0040
0040
0040
0040
0040
0040
0040
FFC0
0040
0040
0040
0040
0040
0040
0040
0040
0040
ENDCHAR
STARTCHAR uni2528
ENCODING 9512
SWIDTH 940 0
DWIDTH 19 0
BBX 10 20 0 -4
BITMAP
0040
0040
0040
0040
0040
0040
0040
0040
0040
0040
FFC0
0040
0040
0040
0040
0040
0040
0040
0040
0040
ENDCHAR
STARTCHAR uni2529
ENCODING 9513
SWIDTH 940 0
DWIDTH 19 0
BBX 10 20 0 -4
BITMAP
0040
0040
0040
0040
0040
0040
0040
0040
0040
FFC0
FFC0
0040
0040
0040
0040
0040
0040
0040
0040
0040
ENDCHAR
STARTCHAR uni252A
ENCODING 9514
SWIDTH 940 0
DWIDTH 19 0
BBX 10 20 0 -4
BITMAP
0040
0040
0040
0040
0040
0040
0040
0040
0040
FFC0
FFC0
0040
0040
0040
0040
0040
0040
0040
0040
0040
ENDCHAR
STARTCHAR uni252B
ENCODING 9515
SWIDTH 940 0
DWIDTH 19 0
BBX 10 20 0 -4
BITMAP
0040
0040
0040
0040
0040
0040
0040
0040
0040
0040
FFC0
0040
0040
0040
0040
0040
0040
0040
0040
0040
ENDCHAR
STARTCHAR SF060000
ENCODING 9516
SWIDTH 940 0
DWIDTH 19 0
BBX 19 10 0 -4
BITMAP
FFFFE0
004000
004000
004000
004000
004000
004000
004000
004000
004000
ENDCHAR
STARTCHAR uni252D
ENCODING 9517
SWIDTH 940 0
DWIDTH 19 0
BBX 19 11 0 -4
BITMAP
FFFFE0
FFC000
004000
004000
004000
004000
004000
004000
004000
004000
004000
ENDCHAR
STARTCHAR uni252E
ENCODING 9518
SWIDTH 940 0
DWIDTH 19 0
BBX 19 11 0 -4
BITMAP
FFFFE0
007FE0
004000
004000
004000
004000
004000
004000
004000
004000
004000
ENDCHAR
STARTCHAR uni252F
ENCODING 9519
SWIDTH 940 0
DWIDTH 19 0
BBX 19 10 0 -4
BITMAP
FFFFE0
004000
004000
004000
004000
004000
004000
004000
004000
004000
ENDCHAR
STARTCHAR uni2530
ENCODING 9520
SWIDTH 940 0
DWIDTH 19 0
BBX 19 10 0 -4
BITMAP
FFFFE0
004000
004000
004000
004000
004000
004000
004000
004000
004000
ENDCHAR
STARTCHAR uni2531
ENCODING 9521
SWIDTH 940 0
DWIDTH 19 0
BBX 19 11 0 -4
BITMAP
FFFFE0
FFC000
004000
004000
004000
004000
004000
004000
004000
004000
004000
ENDCHAR
STARTCHAR uni2532
ENCODING 9522
SWIDTH 940 0
DWIDTH 19 0
BBX 19 11 0 -4
BITMAP
FFFFE0
007FE0
004000
004000
004000
004000
004000
004000
004000
004000
004000
ENDCHAR
STARTCHAR uni2533
ENCODING 9523
SWIDTH 940 0
DWIDTH 19 0
BBX 19 10 0 -4
BITMAP
FFFFE0
004000
004000
004000
004000
004000
004000
004000
004000
004000
ENDCHAR
STARTCHAR SF070000
ENCODING 9524
SWIDTH 940 0
DWIDTH 19 0
BBX 19 11 0 5
BITMAP
004000
004000
004000
004000
004000
004000
004000
004000
004000
004000
FFFFE0
ENDCHAR
STARTCHAR uni2535
ENCODING 9525
SWIDTH 940 0
DWIDTH 19 0
BBX 19 11 0 5
BITMAP
004000
004000
004000
004000
004000
004000
004000
004000
004000
FFC000
FFFFE0
ENDCHAR
STARTCHAR uni2536
ENCODING 9526
SWIDTH 940 0
DWIDTH 19 0
BBX 19 11 0 5
BITMAP
004000
004000
004000
004000
004000
004000
004000
004000
004000
007FE0
FFFFE0
ENDCHAR
STARTCHAR uni2537
ENCODING 9527
SWIDTH 940 0
DWIDTH 19 0
BBX 19 11 0 5
BITMAP
004000
004000
004000
004000
004000
004000
004000
004000
004000
004000
FFFFE0
ENDCHAR
STARTCHAR uni2538
ENCODING 9528
SWIDTH 940 0
DWIDTH 19 0
BBX 19 11 0 5
BITMAP
004000
004000
004000
004000
004000
004000
004000
004000
004000
004000
FFFFE0
ENDCHAR
STARTCHAR uni2539
ENCODING 9529
SWIDTH 940 0
DWIDTH 19 0
BBX 19 11 0 5
BITMAP
004000
004000
004000
004000
004000
004000
004000
004000
004000
FFC000
FFFFE0
ENDCHAR
STARTCHAR uni253A
ENCODING 9530
SWIDTH 940 0
DWIDTH 19 0
BBX 19 11 0 5
BITMAP
004000
004000
004000
004000
004000
004000
004000
004000
004000
007FE0
FFFFE0
ENDCHAR
STARTCHAR uni253B
ENCODING 9531
SWIDTH 940 0
DWIDTH 19 0
BBX 19 11 0 5
BITMAP
004000
004000
004000
004000
004000
004000
004000
004000
004000
004000
FFFFE0
ENDCHAR
STARTCHAR SF050000
ENCODING 9532
SWIDTH 940 0
DWIDTH 19 0
BBX 19 20 0 -4
BITMAP
004000
004000
004000
004000
004000
004000
004000
004000
004000
004000
FFFFE0
004000
004000
004000
004000
004000
004000
004000
004000
004000
ENDCHAR
STARTCHAR uni253D
ENCODING 9533
SWIDTH 940 0
DWIDTH 19 0
BBX 19 20 0 -4
BITMAP
004000
004000
004000
004000
004000
004000
004000
004000
004000
FFC000
FFFFE0
004000
004000
004000
004000
004000
004000
004000
004000
004000
ENDCHAR
STARTCHAR uni253E
ENCODING 9534
SWIDTH 940 0
DWIDTH 19 0
BBX 19 20 0 -4
BITMAP
004000
004000
004000
004000
004000
004000
004000
004000
004000
007FE0
FFFFE0
004000
004000
004000
004000
004000
004000
004000
004000
004000
ENDCHAR
STARTCHAR uni253F
ENCODING 9535
SWIDTH 940 0
DWIDTH 19 0
BBX 19 20 0 -4
BITMAP
004000
004000
004000
004000
004000
004000
004000
004000
004000
004000
FFFFE0
004000
004000
004000
004000
004000
004000
004000
004000
004000
ENDCHAR
STARTCHAR uni2540
ENCODING 9536
SWIDTH 940 0
DWIDTH 19 0
BBX 19 20 0 -4
BITMAP
004000
004000
004000
004000
004000
004000
004000
004000
004000
004000
FFFFE0
004000
004000
004000
004000
004000
004000
004000
004000
004000
ENDCHAR
STARTCHAR uni2541
ENCODING 9537
SWIDTH 940 0
DWIDTH 19 0
BBX 19 20 0 -4
BITMAP
004000
004000
004000
004000
004000
004000
004000
004000
004000
004000
FFFFE0
004000
004000
004000
004000
004000
004000
004000
004000
004000
ENDCHAR
STARTCHAR uni2542
ENCODING 9538
SWIDTH 940 0
DWIDTH 19 0
BBX 19 20 0 -4
BITMAP
004000
004000
004000
004000
004000
004000
004000
004000
004000
004000
FFFFE0
004000
004000
004000
004000
004000
004000
004000
004000
004000
ENDCHAR
STARTCHAR uni2543
ENCODING 9539
SWIDTH 940 0
DWIDTH 19 0
BBX 19 20 0 -4
BITMAP
004000
004000
004000
004000
004000
004000
004000
004000
004000
004000
FFFFE0
004000
004000
004000
004000
004000
004000
004000
004000
004000
ENDCHAR
STARTCHAR uni2544
ENCODING 9540
SWIDTH 940 0
DWIDTH 19 0
BBX 19 20 0 -4
BITMAP
004000
004000
004000
004000
004000
004000
004000
004000
004000
004000
FFFFE0
004000
004000
004000
004000
004000
004000
004000
004000
004000
ENDCHAR
STARTCHAR uni2545
ENCODING 9541
SWIDTH 940 0
DWIDTH 19 0
BBX 19 20 0 -4
BITMAP
004000
004000
004000
004000
004000
004000
004000
004000
004000
004000
FFFFE0
004000
004000
004000
004000
004000
004000
004000
004000
004000
ENDCHAR
STARTCHAR uni2546
ENCODING 9542
SWIDTH 940 0
DWIDTH 19 0
BBX 19 20 0 -4
BITMAP
004000
004000
004000
004000
004000
004000
004000
004000
004000
004000
FFFFE0
004000
004000
004000
004000
004000
004000
004000
004000
004000
ENDCHAR
STARTCHAR uni2547
ENCODING 9543
SWIDTH 940 0
DWIDTH 19 0
BBX 19 20 0 -4
BITMAP
004000
004000
004000
004000
004000
004000
004000
004000
004000
004000
FFFFE0
004000
004000
004000
004000
004000
004000
004000
004000
004000
ENDCHAR
STARTCHAR uni2548
ENCODING 9544
SWIDTH 940 0
DWIDTH 19 0
BBX 19 20 0 -4
BITMAP
004000
004000
004000
004000
004000
004000
004000
004000
004000
004000
FFFFE0
004000
004000
004000
004000
004000
004000
004000
004000
004000
ENDCHAR
STARTCHAR uni2549
ENCODING 9545
SWIDTH 940 0
DWIDTH 19 0
BBX 19 20 0 -4
BITMAP
004000
004000
004000
004000
004000
004000
004000
004000
004000
004000
FFFFE0
004000
004000
004000
004000
004000
004000
004000
004000
004000
ENDCHAR
STARTCHAR uni254A
ENCODING 9546
SWIDTH 940 0
DWIDTH 19 0
BBX 19 20 0 -4
BITMAP
004000
004000
004000
004000
004000
004000
004000
004000
004000
004000
FFFFE0
004000
004000
004000
004000
004000
004000
004000
004000
004000
ENDCHAR
STARTCHAR uni254B
ENCODING 9547
SWIDTH 940 0
DWIDTH 19 0
BBX 19 20 0 -4
BITMAP
004000
004000
004000
004000
004000
004000
004000
004000
004000
004000
FFFFE0
004000
004000
004000
004000
004000
004000
004000
004000
004000
ENDCHAR
STARTCHAR shade
ENCODING 9618
SWIDTH 940 0
DWIDTH 19 0
BBX 15 14 2 -1
BITMAP
FFFE
D556
8002
D552
8002
D552
8002
8002
D552
8002
D552
8002
D556
FFFE
ENDCHAR
STARTCHAR filledbox
ENCODING 9632
SWIDTH 940 0
DWIDTH 19 0
BBX 13 14 3 -1
BITMAP
FFF8
FFF8
FFF8
FFF8
FFF8
FFF8
FFF8
FFF8
FFF8
FFF8
FFF8
FFF8
FFF8
FFF8
ENDCHAR
STARTCHAR H22073
ENCODING 9633
SWIDTH 940 0
DWIDTH 19 0
BBX 13 14 3 -1
BITMAP
FFF8
8008
8008
8008
8008
8008
8008
8008
8008
8008
8008
8008
8008
FFF8
ENDCHAR
STARTCHAR uni25A3
ENCODING 9635
SWIDTH 940 0
DWIDTH 19 0
BBX 15 14 2 -1
BITMAP
FFFE
8002
9FF2
9FF2
9FF2
9FF2
9FF2
9FF2
9FF2
9FF2
9FF2
9FF2
8002
FFFE
ENDCHAR
STARTCHAR uni25A4
ENCODING 9636
SWIDTH 940 0
DWIDTH 19 0
BBX 15 14 2 -1
BITMAP
FFFE
FFFE
8002
8002
FFFE
8002
FFFE
8002
FFFE
8002
FFFE
8002
FFFE
FFFE
ENDCHAR
STARTCHAR uni25A5
ENCODING 9637
SWIDTH 940 0
DWIDTH 19 0
BBX 15 14 2 -1
BITMAP
FFFE
AAAA
AAAA
AAAA
AAAA
AAAA
AAAA
AAAA
AAAA
AAAA
AAAA
AAAA
AAAA
FFFE
ENDCHAR
STARTCHAR uni25A6
ENCODING 9638
SWIDTH 940 0
DWIDTH 19 0
BBX 15 14 2 -1
BITMAP
FFFE
AAAA
FFFE
AAAA
FFFE
AAAA
FFFE
AAAA
FFFE
AAAA
FFFE
AAAA
FFFE
FFFE
ENDCHAR
STARTCHAR uni25A7
ENCODING 9639
SWIDTH 940 0
DWIDTH 19 0
BBX 15 14 2 -1
BITMAP
FFFE
C492
A24A
9126
C892
A44A
9226
C912
A48A
9246
8922
C492
A24A
FFFE
ENDCHAR
STARTCHAR uni25A8
ENCODING 9640
SWIDTH 940 0
DWIDTH 19 0
BBX 15 14 2 -1
BITMAP
FFFE
A24A
C492
8922
9246
A48A
C912
9226
A44A
C892
9126
A24A
C492
FFFE
ENDCHAR
STARTCHAR uni25A9
ENCODING 9641
SWIDTH 940 0
DWIDTH 19 0
BBX 15 14 2 -1
BITMAP
FFFE
E6DA
E6DA
9926
DAD6
A4CA
DB36
DB36
A4CA
DAD6
9922
E6D6
E6CA
FFFE
ENDCHAR
STARTCHAR uni25B1
ENCODING 9649
SWIDTH 940 0
DWIDTH 19 0
BBX 13 8 3 2
BITMAP
3FF8
4008
4010
4010
4010
8010
8020
FFE0
ENDCHAR
STARTCHAR triagup
ENCODING 9650
SWIDTH 940 0
DWIDTH 19 0
BBX 15 12 2 0
BITMAP
0100
0300
0380
07C0
0FC0
0FE0
1FF0
1FF0
3FF8
7FFC
7FFC
FFFE
ENDCHAR
STARTCHAR uni25B3
ENCODING 9651
SWIDTH 940 0
DWIDTH 19 0
BBX 15 12 2 0
BITMAP
0100
0300
0280
0440
0840
0820
1010
2010
2008
4004
8004
FFFE
ENDCHAR
STARTCHAR uni25B5
ENCODING 9653
SWIDTH 940 0
DWIDTH 19 0
BBX 15 12 2 0
BITMAP
0100
0300
0380
06C0
0C40
0860
1830
1010
3018
6008
400C
FFFE
ENDCHAR
STARTCHAR uni25B6
ENCODING 9654
SWIDTH 940 0
DWIDTH 19 0
BBX 12 16 3 -2
BITMAP
8000
C000
F000
F800
FE00
FF80
FFC0
FFF0
FFF0
FFC0
FF80
FE00
F800
F000
C000
8000
ENDCHAR
STARTCHAR uni25B7
ENCODING 9655
SWIDTH 940 0
DWIDTH 19 0
BBX 12 16 3 -2
BITMAP
8000
C000
B000
8C00
8200
8180
8040
8030
8030
8040
8180
8200
8C00
B000
C000
8000
ENDCHAR
STARTCHAR uni25B9
ENCODING 9657
SWIDTH 940 0
DWIDTH 19 0
BBX 12 16 3 -2
BITMAP
8000
C000
F000
D800
CE00
C380
C0C0
C070
C070
C0C0
C380
CE00
D800
F000
C000
8000
ENDCHAR
STARTCHAR triagdn
ENCODING 9660
SWIDTH 940 0
DWIDTH 19 0
BBX 15 12 2 0
BITMAP
FFFE
7FFC
7FFC
3FF8
1FF0
1FF0
0FE0
0FC0
07C0
0380
0300
0100
ENDCHAR
STARTCHAR uni25BD
ENCODING 9661
SWIDTH 940 0
DWIDTH 19 0
BBX 15 12 2 0
BITMAP
FFFE
8004
4004
2008
2010
1010
0820
0840
0440
0280
0300
0100
ENDCHAR
STARTCHAR uni25BF
ENCODING 9663
SWIDTH 940 0
DWIDTH 19 0
BBX 15 12 2 0
BITMAP
FFFE
4004
600C
2018
3010
1830
0860
0C40
06C0
0280
0380
0100
ENDCHAR
STARTCHAR uni25C0
ENCODING 9664
SWIDTH 940 0
DWIDTH 19 0
BBX 12 16 4 -2
BITMAP
0010
0030
00F0
03F0
07F0
1FF0
3FF0
FFF0
FFF0
3FF0
1FF0
07F0
03F0
00F0
0030
0010
ENDCHAR
STARTCHAR uni25C1
ENCODING 9665
SWIDTH 940 0
DWIDTH 19 0
BBX 12 16 4 -2
BITMAP
0010
0070
0090
0310
0410
1810
6010
8010
8010
6010
1810
0410
0310
0090
0070
0010
ENDCHAR
STARTCHAR uni25C3
ENCODING 9667
SWIDTH 940 0
DWIDTH 19 0
BBX 12 16 4 -2
BITMAP
0010
0030
00F0
03B0
0630
1C30
3030
E030
E030
3030
1C30
0630
03B0
00F0
0030
0010
ENDCHAR
STARTCHAR uni25C6
ENCODING 9670
SWIDTH 940 0
DWIDTH 19 0
BBX 17 19 1 -3
BITMAP
008000
01C000
03E000
07F000
0FF800
1FFC00
3FFE00
7FFF00
FFFF80
FFFF80
7FFF00
3FFE00
1FFC00
0FF800
0FF000
07E000
03E000
01C000
008000
ENDCHAR
STARTCHAR uni25C7
ENCODING 9671
SWIDTH 940 0
DWIDTH 19 0
BBX 17 19 1 -3
BITMAP
008000
014000
022000
041000
080800
100400
200200
400100
800080
800080
400100
200200
100400
080800
081000
041000
022000
014000
008000
ENDCHAR
STARTCHAR uni25C8
ENCODING 9672
SWIDTH 940 0
DWIDTH 19 0
BBX 17 18 1 -3
BITMAP
008000
014000
022000
041000
088800
11C400
23E200
47F100
8FF880
9FF880
4FF100
27E200
13C400
098800
041000
022000
014000
008000
ENDCHAR
STARTCHAR uni2299.dup40
ENCODING 9673
SWIDTH 940 0
DWIDTH 19 0
BBX 15 16 2 -2
BITMAP
07C0
1830
2008
4004
8004
8382
87C2
8FC2
8FC2
87C2
8382
8004
4004
2008
1830
07C0
ENDCHAR
STARTCHAR lozenge
ENCODING 9674
SWIDTH 940 0
DWIDTH 19 0
BBX 13 17 3 -3
BITMAP
0600
0700
0D80
18C0
3060
6060
C030
C018
C018
C030
6030
3060
18C0
0D80
0700
0600
0200
ENDCHAR
STARTCHAR circle
ENCODING 9675
SWIDTH 940 0
DWIDTH 19 0
BBX 15 14 2 -1
BITMAP
07C0
1830
2008
4004
8004
8002
8002
8002
8002
8004
4004
2008
1830
07C0
ENDCHAR
STARTCHAR uni25CC
ENCODING 9676
SWIDTH 940 0
DWIDTH 19 0
BBX 18 18 0 -3
BITMAP
02C800
040000
100100
000000
000000
400040
000040
000000
800000
800000
000000
000040
400040
000000
000000
100100
040400
02C800
ENDCHAR
STARTCHAR uni25CE
ENCODING 9678
SWIDTH 940 0
DWIDTH 19 0
BBX 15 16 2 -2
BITMAP
07C0
1830
2008
47C4
8822
9012
A012
A00A
A00A
A012
9012
8822
47C4
2008
1830
07C0
ENDCHAR
STARTCHAR H18533
ENCODING 9679
SWIDTH 940 0
DWIDTH 19 0
BBX 15 14 2 -1
BITMAP
07C0
1FF0
3FF8
7FFC
FFFC
FFFE
FFFE
FFFE
FFFE
FFFC
7FFC
3FF8
1FF0
07C0
ENDCHAR
STARTCHAR uni25D0
ENCODING 9680
SWIDTH 940 0
DWIDTH 19 0
BBX 15 16 2 -2
BITMAP
07C0
1E30
3E08
7E04
FE04
FE02
FE02
FE02
FE02
FE02
FE02
FE04
7E04
3E08
1E30
07C0
ENDCHAR
STARTCHAR uni25D1
ENCODING 9681
SWIDTH 940 0
DWIDTH 19 0
BBX 15 16 2 -2
BITMAP
0780
19F0
21F8
41FC
81FC
81FE
81FE
81FE
81FE
81FE
81FE
81FC
41FC
21F8
19F0
07C0
ENDCHAR
STARTCHAR openbullet
ENCODING 9702
SWIDTH 940 0
DWIDTH 19 0
BBX 11 10 4 1
BITMAP
1F00
6080
4040
C040
8020
8020
C040
4040
6080
1F00
ENDCHAR
STARTCHAR uni25EF
ENCODING 9711
SWIDTH 940 0
DWIDTH 19 0
BBX 17 18 1 -3
BITMAP
03E000
0C1800
300400
400200
400100
800080
800080
800080
800080
800080
800080
800080
800080
400100
400200
300400
081800
07E000
ENDCHAR
STARTCHAR uni2605
ENCODING 9733
SWIDTH 940 0
DWIDTH 19 0
BBX 15 15 2 -1
BITMAP
0100
0100
0100
0380
0380
0380
FFFE
3FF8
1FE0
0FE0
0FE0
1EE0
1870
1010
2000
ENDCHAR
STARTCHAR uni2606
ENCODING 9734
SWIDTH 940 0
DWIDTH 19 0
BBX 15 15 2 -1
BITMAP
0100
0100
0300
0280
0280
0480
FC7E
6008
1010
0820
0920
1690
1870
1010
2000
ENDCHAR
STARTCHAR uni260E
ENCODING 9742
SWIDTH 940 0
DWIDTH 19 0
BBX 17 12 1 0
BITMAP
0FF800
7FFE00
F63700
F7F780
F7F780
CE3180
0C1800
181C00
3C1E00
3C1E00
3E3E00
7FFF00
ENDCHAR
STARTCHAR uni260F
ENCODING 9743
SWIDTH 940 0
DWIDTH 19 0
BBX 17 12 1 0
BITMAP
1FFC00
69CB00
963480
97D880
95DC80
EA2B80
141800
241400
241200
441200
422100
7FFF00
ENDCHAR
STARTCHAR uni261C
ENCODING 9756
SWIDTH 940 0
DWIDTH 19 0
BBX 14 6 3 3
BITMAP
FFC8
E534
1A8C
1E4C
0E1C
0FE0
ENDCHAR
STARTCHAR uni261D
ENCODING 9757
SWIDTH 940 0
DWIDTH 19 0
BBX 5 15 7 -2
BITMAP
80
80
80
80
A0
F8
F8
B8
C8
A8
A8
A8
48
F0
F0
ENDCHAR
STARTCHAR uni261E
ENCODING 9758
SWIDTH 940 0
DWIDTH 19 0
BBX 14 6 2 3
BITMAP
1FFC
E39C
C560
CAC0
E3C0
1F80
ENDCHAR
STARTCHAR uni261F
ENCODING 9759
SWIDTH 940 0
DWIDTH 19 0
BBX 5 15 7 -1
BITMAP
F0
F0
48
A8
A8
A8
C8
F8
F8
F8
A0
80
80
80
80
ENDCHAR
STARTCHAR uni262F
ENCODING 9775
SWIDTH 940 0
DWIDTH 19 0
BBX 15 16 2 -2
BITMAP
07C0
1830
2008
4004
8004
8002
807E
80FE
81FE
83FE
FFFE
FFFC
7FFC
3FF8
1FF0
07C0
ENDCHAR
STARTCHAR female
ENCODING 9792
SWIDTH 940 0
DWIDTH 19 0
BBX 11 17 4 -2
BITMAP
0E00
1100
2080
2080
2080
1100
0E00
0400
0400
0400
FFE0
0400
0400
0400
0400
0400
0400
ENDCHAR
STARTCHAR male
ENCODING 9794
SWIDTH 940 0
DWIDTH 19 0
BBX 9 17 5 -2
BITMAP
0800
1800
2C00
2A00
4900
8900
8880
0800
0800
0800
1C00
2200
4100
4100
4100
2200
1C00
ENDCHAR
STARTCHAR spade
ENCODING 9824
SWIDTH 940 0
DWIDTH 19 0
BBX 13 16 3 -2
BITMAP
0200
0700
0F80
1FC0
1FC0
3FE0
7FF0
7FF0
FFF8
FFF8
FFF8
FFF8
77F0
0700
0700
0F80
ENDCHAR
STARTCHAR uni2661
ENCODING 9825
SWIDTH 940 0
DWIDTH 19 0
BBX 14 15 2 -2
BITMAP
3C78
4284
8304
8104
8004
4004
4004
2008
2008
1010
1820
0860
0440
0280
0100
ENDCHAR
STARTCHAR club
ENCODING 9827
SWIDTH 940 0
DWIDTH 19 0
BBX 16 16 1 -2
BITMAP
03E0
07F0
07F0
07F0
07F0
03E0
39CC
7FFF
7FFF
FFFF
FFFF
7FFF
7DFE
01C0
03C0
03E0
ENDCHAR
STARTCHAR uni2664
ENCODING 9828
SWIDTH 940 0
DWIDTH 19 0
BBX 13 16 3 -2
BITMAP
0200
0500
0880
1040
1040
2020
4010
4010
8008
8008
8008
8D08
75F0
0500
0900
0F80
ENDCHAR
STARTCHAR heart
ENCODING 9829
SWIDTH 940 0
DWIDTH 19 0
BBX 14 15 2 -2
BITMAP
3C78
7EFC
7EFC
FFFC
FFFC
7FFC
7FFC
3FF8
3FF8
1FF0
1FE0
0FE0
07C0
0380
0100
ENDCHAR
STARTCHAR uni2667
ENCODING 9831
SWIDTH 940 0
DWIDTH 19 0
BBX 16 16 1 -2
BITMAP
03E0
0410
0410
0410
0410
0220
395C
4763
4001
8001
8001
4361
6572
1A4C
0220
03E0
ENDCHAR
STARTCHAR uni2668
ENCODING 9832
SWIDTH 940 0
DWIDTH 19 0
BBX 16 16 1 -2
BITMAP
0080
0280
0490
05B0
05A0
05B0
0490
06D0
06D0
16D4
2693
44A1
C521
6007
3FFE
0FF8
ENDCHAR
STARTCHAR uni2669
ENCODING 9833
SWIDTH 388 0
DWIDTH 8 0
BBX 4 14 2 -1
BITMAP
10
10
10
10
10
10
10
10
10
10
10
70
F0
E0
ENDCHAR
STARTCHAR musicalnote
ENCODING 9834
SWIDTH 539 0
DWIDTH 11 0
BBX 9 14 1 -1
BITMAP
1000
1800
1C00
1E00
1300
1100
1180
1100
1100
1200
1400
7000
F000
E000
ENDCHAR
STARTCHAR uni266C
ENCODING 9836
SWIDTH 693 0
DWIDTH 14 0
BBX 12 14 1 -1
BITMAP
0030
07F0
1F90
1030
17F0
1F90
1810
1010
1010
1070
10E0
70C0
F000
E000
ENDCHAR
STARTCHAR uni266D
ENCODING 9837
SWIDTH 517 0
DWIDTH 10 0
BBX 6 13 2 0
BITMAP
80
80
80
80
80
BC
CC
84
84
84
8C
88
F0
ENDCHAR
STARTCHAR uni266F
ENCODING 9839
SWIDTH 940 0
DWIDTH 19 0
BBX 11 16 4 -2
BITMAP
0100
1100
1100
1100
1FE0
FF00
1100
1100
1100
1100
1FE0
FF00
1100
1100
1100
1000
ENDCHAR
STARTCHAR uni2716
ENCODING 10006
SWIDTH 940 0
DWIDTH 19 0
BBX 15 14 2 -1
BITMAP
1830
3C78
7EFC
FFFE
7FFC
3FF8
1FF0
1FF0
3FF8
7FFC
FFFE
7EFC
3C78
1830
ENDCHAR
STARTCHAR uni271A
ENCODING 10010
SWIDTH 940 0
DWIDTH 19 0
BBX 15 16 2 -2
BITMAP
07C0
07C0
07C0
07C0
07C0
FFFE
FFFE
FFFE
FFFE
FFFE
FFFE
07C0
07C0
07C0
07C0
07C0
ENDCHAR
STARTCHAR uni273D
ENCODING 10045
SWIDTH 940 0
DWIDTH 19 0
BBX 10 12 4 0
BITMAP
0400
0C00
0400
E4C0
75C0
0A00
0A00
75C0
E4C0
0400
0C00
0400
ENDCHAR
STARTCHAR uni2756
ENCODING 10070
SWIDTH 940 0
DWIDTH 19 0
BBX 15 16 2 -2
BITMAP
0100
0380
07C0
0FE0
07C0
3398
793C
FC7E
FC7E
793C
3398
07C0
0FE0
07C0
0380
0100
ENDCHAR
STARTCHAR uni2776
ENCODING 10102
SWIDTH 940 0
DWIDTH 19 0
BBX 17 18 1 -3
BITMAP
03E000
0FF800
3FFC00
7F7E00
7F7F00
FC7F80
FF7F80
FF7F80
FF7F80
FF7F80
FF7F80
FF7F80
FF7F80
7F7F00
7F7E00
3FFC00
0FF800
03E000
ENDCHAR
STARTCHAR uni2777
ENCODING 10103
SWIDTH 940 0
DWIDTH 19 0
BBX 17 18 1 -3
BITMAP
03E000
0FF800
3F7C00
7DDE00
7BEF00
FBEF80
FBEF80
FFCF80
FFDF80
FF3F80
FEFF80
FDFF80
FBFF80
7BFF00
780E00
3FFC00
0FF800
03E000
ENDCHAR
STARTCHAR uni2778
ENCODING 10104
SWIDTH 940 0
DWIDTH 19 0
BBX 17 18 1 -3
BITMAP
03E000
0FF800
3FFC00
7C1E00
79EF00
FBEF80
FBEF80
FFDF80
FF3F80
FFCF80
FFEF80
FBEF80
FBEF80
79EF00
7C1E00
3FFC00
0FF800
03E000
ENDCHAR
STARTCHAR uni2779
ENCODING 10105
SWIDTH 940 0
DWIDTH 19 0
BBX 17 18 1 -3
BITMAP
03E000
0FF800
3FFC00
7FBE00
7F3F00
FEBF80
FEBF80
FDBF80
F9BF80
FBBF80
F7BF80
F00F80
FFBF80
7FBF00
7FBE00
3FFC00
0FF800
03E000
ENDCHAR
STARTCHAR uni277A
ENCODING 10106
SWIDTH 940 0
DWIDTH 19 0
BBX 17 18 1 -3
BITMAP
03E000
0FF800
3FFC00
7C0E00
7DFF00
FDFF80
FBFF80
FA1F80
FBCF80
FFEF80
FFEF80
FFEF80
FBEF80
7BCF00
7C1E00
3FFC00
0FF800
03E000
ENDCHAR
STARTCHAR uni277B
ENCODING 10107
SWIDTH 940 0
DWIDTH 19 0
BBX 17 18 1 -3
BITMAP
03E000
0FF800
3FFC00
7C1E00
7DCF00
FBEF80
FBFF80
F23F80
F5DF80
F3EF80
F3EF80
FBEF80
FBEF80
79CF00
7C1E00
3FFC00
0FF800
03E000
ENDCHAR
STARTCHAR uni277C
ENCODING 10108
SWIDTH 940 0
DWIDTH 19 0
BBX 17 18 1 -3
BITMAP
03E000
0FF800
3FFC00
7FFE00
7FEF00
FFDF80
FFDF80
FFBF80
FF3F80
FF7F80
FF7F80
FEFF80
FEFF80
7EFF00
7EFE00
3FFC00
0FF800
03E000
ENDCHAR
STARTCHAR uni277D
ENCODING 10109
SWIDTH 940 0
DWIDTH 19 0
BBX 17 18 1 -3
BITMAP
03E000
0FF800
3FFC00
7C1E00
79CF00
FBEF80
FBEF80
F9DF80
FE3F80
F9CF80
FBEF80
F7EF80
F3EF80
7BEF00
7C1E00
3FFC00
0FF800
03E000
ENDCHAR
STARTCHAR uni277E
ENCODING 10110
SWIDTH 940 0
DWIDTH 19 0
BBX 17 18 1 -3
BITMAP
03E000
0FF800
3FFC00
7C1E00
79CF00
FBEF80
FBEF80
FBEF80
FBE780
F9C780
FE2F80
FFEF80
FBEF80
79DF00
7C1E00
3FFC00
0FF800
03E000
ENDCHAR
STARTCHAR uni277F
ENCODING 10111
SWIDTH 940 0
DWIDTH 19 0
BBX 17 18 1 -3
BITMAP
03E000
0FF800
3FFC00
7B8600
7B3700
E37B80
FB7B80
FB7B80
FA7B80
FA7B80
FB7B80
FB7B80
FB7B80
7B3700
7B8600
3FFC00
0FF800
03E000
ENDCHAR
STARTCHAR uni278A
ENCODING 10122
SWIDTH 940 0
DWIDTH 19 0
BBX 17 18 1 -3
BITMAP
03E000
0FF800
3FFC00
7F3E00
7C3F00
FC3F80
FE3F80
FE3F80
FE3F80
FE3F80
FE3F80
FE3F80
FE3F80
7E3F00
7E3E00
3E3C00
0FF800
03E000
ENDCHAR
STARTCHAR uni278B
ENCODING 10123
SWIDTH 940 0
DWIDTH 19 0
BBX 17 18 1 -3
BITMAP
03E000
0FF800
3E1C00
7C1E00
7C8F00
F9CF80
FF8F80
FF9F80
FF1F80
FF3F80
FE3F80
FC7F80
FCFF80
781F00
781E00
3FFC00
0FF800
03E000
ENDCHAR
STARTCHAR uni278C
ENCODING 10124
SWIDTH 940 0
DWIDTH 19 0
BBX 17 18 1 -3
BITMAP
03E000
0FF800
3E3C00
7C1E00
7C9F00
F99F80
FF9F80
FF9F80
FE3F80
FE1F80
FF9F80
FF9F80
F99F80
7C1F00
7C1E00
3FFC00
0FF800
03E000
ENDCHAR
STARTCHAR uni278D
ENCODING 10125
SWIDTH 940 0
DWIDTH 19 0
BBX 17 18 1 -3
BITMAP
03E000
0FF800
3F3C00
7E3E00
7E3F00
FE3F80
FC3F80
FD3F80
F93F80
F93F80
F01F80
F01F80
FF3F80
7F3F00
7F3E00
3FFC00
0FF800
03E000
ENDCHAR
STARTCHAR uni278E
ENCODING 10126
SWIDTH 940 0
DWIDTH 19 0
BBX 17 18 1 -3
BITMAP
03E000
0FF800
3FFC00
7C1E00
7C1F00
FCFF80
FCFF80
FC1F80
FC9F80
FF8F80
FF8F80
FF8F80
F89F80
7C9F00
7C1E00
3F7C00
0FF800
03E000
ENDCHAR
STARTCHAR uni278F
ENCODING 10127
SWIDTH 940 0
DWIDTH 19 0
BBX 17 18 1 -3
BITMAP
03E000
0FF800
3E3C00
7C1E00
7C9F00
F89F80
F8FF80
F8BF80
F81F80
F89F80
F8CF80
F8CF80
F88F80
781F00
7C1E00
3F7C00
0FF800
03E000
ENDCHAR
STARTCHAR uni2790
ENCODING 10128
SWIDTH 940 0
DWIDTH 19 0
BBX 17 18 1 -3
BITMAP
03E000
0FF800
3FFC00
781E00
781F00
FF9F80
FF9F80
FF1F80
FF1F80
FF3F80
FF3F80
FE3F80
FE3F80
7E7F00
7E7E00
3C7C00
0FF800
03E000
ENDCHAR
STARTCHAR uni2791
ENCODING 10129
SWIDTH 940 0
DWIDTH 19 0
BBX 17 18 1 -3
BITMAP
03E000
0FF800
3E7C00
7C1E00
789F00
F89F80
F89F80
FC9F80
FC1F80
FC1F80
F89F80
F99F80
F99F80
789F00
7C1E00
3FFC00
0FF800
03E000
ENDCHAR
STARTCHAR uni2792
ENCODING 10130
SWIDTH 940 0
DWIDTH 19 0
BBX 17 18 1 -3
BITMAP
03E000
0FF800
3E3C00
7C1E00
789F00
F99F80
F99F80
F99F80
F89F80
FC1F80
FF9F80
F99F80
F99F80
7C9F00
7C1E00
3FFC00
0FF800
03E000
ENDCHAR
STARTCHAR uni2793
ENCODING 10131
SWIDTH 940 0
DWIDTH 19 0
BBX 17 18 1 -3
BITMAP
03E000
0FF800
3FFC00
7B8600
630300
E33380
FB3380
FB3380
FB3380
FB3380
FB3380
FB3380
FB3380
7B0300
7B8600
3FFC00
0FF800
03E000
ENDCHAR
STARTCHAR arrowdblup.dup41
ENCODING 10595
SWIDTH 940 0
DWIDTH 19 0
BBX 17 20 1 -4
BITMAP
020000
022000
063000
0A2800
122400
222200
422100
822100
022080
022000
022000
022000
022000
022000
022000
022000
022000
022000
022000
022000
ENDCHAR
STARTCHAR arrowdbldown.dup42
ENCODING 10597
SWIDTH 940 0
DWIDTH 19 0
BBX 17 20 1 -4
BITMAP
022000
022000
022000
022000
022000
022000
022000
022000
022000
022000
022000
022080
822100
422100
222200
122400
0A2800
063000
022000
020000
ENDCHAR
STARTCHAR uni2AC5
ENCODING 10949
SWIDTH 940 0
DWIDTH 19 0
BBX 14 13 2 0
BITMAP
1FFC
6000
4000
8000
8000
8000
4000
6000
1FFC
0000
FFFC
0000
7FFC
ENDCHAR
STARTCHAR uni2AC6
ENCODING 10950
SWIDTH 940 0
DWIDTH 19 0
BBX 14 13 2 0
BITMAP
FFF0
0008
0004
0004
0004
0004
0004
0008
FFF0
0000
FFFC
0000
7FFC
ENDCHAR
STARTCHAR uni228A.dup43
ENCODING 10955
SWIDTH 940 0
DWIDTH 19 0
BBX 14 15 2 -2
BITMAP
1FFC
6000
4000
8000
8000
8000
4000
6000
1FFC
0080
FFFC
0100
0100
7EFC
0200
ENDCHAR
STARTCHAR uni228B.dup44
ENCODING 10956
SWIDTH 940 0
DWIDTH 19 0
BBX 14 15 2 -2
BITMAP
FFF0
0008
0004
0004
0004
0004
0004
0008
FFF0
0080
FFFC
0100
0100
7FFC
0200
ENDCHAR
STARTCHAR uni2F00
ENCODING 12032
SWIDTH 940 0
DWIDTH 19 0
BBX 15 2 2 6
BITMAP
FFFE
01FE
ENDCHAR
STARTCHAR uni2F04
ENCODING 12036
SWIDTH 940 0
DWIDTH 19 0
BBX 15 15 2 -1
BITMAP
FFE0
0060
00C0
0080
0100
0300
0600
0C00
1800
3000
2000
6002
4002
4006
3FFC
ENDCHAR
STARTCHAR uni2F06
ENCODING 12038
SWIDTH 940 0
DWIDTH 19 0
BBX 15 13 2 0
BITMAP
7FFC
0000
0000
0000
0000
0000
0000
0000
0000
0000
0000
0000
FFFE
ENDCHAR
STARTCHAR uni2F08
ENCODING 12040
SWIDTH 940 0
DWIDTH 19 0
BBX 15 17 2 -2
BITMAP
0100
0100
0100
0100
0300
0300
0300
0300
0280
0680
0440
0C60
1820
1010
6008
C006
8002
ENDCHAR
STARTCHAR uni2F0A
ENCODING 12042
SWIDTH 940 0
DWIDTH 19 0
BBX 15 16 2 -2
BITMAP
3F00
0100
0100
0100
0100
0300
0380
0280
0680
0440
0C60
1820
1010
6008
C006
8002
ENDCHAR
STARTCHAR uni2F0B
ENCODING 12043
SWIDTH 940 0
DWIDTH 19 0
BBX 16 16 1 -2
BITMAP
07F0
0010
0010
0410
0410
0410
0C10
0818
0808
0808
180C
1004
3006
6002
C003
8001
ENDCHAR
STARTCHAR uni2F11
ENCODING 12049
SWIDTH 940 0
DWIDTH 19 0
BBX 14 16 2 -2
BITMAP
7FFC
0604
0404
0404
0404
0404
0404
0404
0C04
0C04
0804
1804
300C
200C
C008
8078
ENDCHAR
STARTCHAR uni2F12
ENCODING 12050
SWIDTH 940 0
DWIDTH 19 0
BBX 14 18 2 -2
BITMAP
0200
0200
0200
0200
7FFC
0204
0204
0204
0604
0604
0404
0404
0C04
180C
100C
3008
C088
8078
ENDCHAR
STARTCHAR uni2F14
ENCODING 12052
SWIDTH 940 0
DWIDTH 19 0
BBX 13 17 4 -2
BITMAP
8000
8000
8000
8060
80C0
8380
8600
B800
E000
8000
8000
8000
8000
8008
8018
8018
FFF0
ENDCHAR
STARTCHAR uni2F17
ENCODING 12055
SWIDTH 940 0
DWIDTH 19 0
BBX 15 18 2 -2
BITMAP
0100
0100
0100
0100
0100
0100
0100
FFFE
0100
0100
0100
0100
0100
0100
0100
0100
0100
0100
ENDCHAR
STARTCHAR uni2F18
ENCODING 12056
SWIDTH 940 0
DWIDTH 19 0
BBX 7 18 8 -2
BITMAP
80
80
80
80
80
80
C0
B0
98
86
82
80
80
80
80
80
80
80
ENDCHAR
STARTCHAR uni2F1C
ENCODING 12060
SWIDTH 940 0
DWIDTH 19 0
BBX 15 16 2 -2
BITMAP
FFF8
3008
1008
1018
1810
0830
0C20
0440
02C0
0380
0380
06C0
0C60
3818
E00E
8002
ENDCHAR
STARTCHAR uni2F1D
ENCODING 12061
SWIDTH 940 0
DWIDTH 19 0
BBX 13 15 3 -2
BITMAP
FFF8
8018
8018
8018
8018
8018
8018
8018
8018
8018
8018
8018
FFF8
8018
8018
ENDCHAR
STARTCHAR uni2F1F
ENCODING 12063
SWIDTH 940 0
DWIDTH 19 0
BBX 16 17 1 -2
BITMAP
0080
0080
0080
0080
0080
0080
3FFE
0080
0080
0080
0080
0080
0080
0080
0080
0080
FFFF
ENDCHAR
STARTCHAR uni2F20
ENCODING 12064
SWIDTH 940 0
DWIDTH 19 0
BBX 16 16 1 -1
BITMAP
0080
0080
0080
0080
0080
FFFF
0080
0080
0080
0080
0080
0080
0080
0080
0080
7FFE
ENDCHAR
STARTCHAR uni2F23
ENCODING 12067
SWIDTH 940 0
DWIDTH 19 0
BBX 14 17 2 -2
BITMAP
0200
0600
0400
0FFC
0808
1808
3018
2C10
4630
81A0
00C0
00C0
0180
0600
0C00
3000
C000
ENDCHAR
STARTCHAR uni2F24
ENCODING 12068
SWIDTH 940 0
DWIDTH 19 0
BBX 15 18 2 -2
BITMAP
0100
0100
0100
0100
0100
FFFE
0300
0300
0280
0280
06C0
0440
0C20
1830
3018
600C
C006
8002
ENDCHAR
STARTCHAR uni2F25
ENCODING 12069
SWIDTH 940 0
DWIDTH 19 0
BBX 15 18 2 -2
BITMAP
0600
0600
0400
0400
0400
FFFE
0810
0830
1820
1020
3060
3040
0EC0
0380
0370
0E1C
3806
C000
ENDCHAR
STARTCHAR uni2F26
ENCODING 12070
SWIDTH 940 0
DWIDTH 19 0
BBX 15 17 2 -2
BITMAP
7FF8
0018
0030
00E0
0180
0100
0100
FFFE
0100
0100
0100
0100
0100
0100
0100
0100
0F00
ENDCHAR
STARTCHAR uni2F28
ENCODING 12072
SWIDTH 940 0
DWIDTH 19 0
BBX 15 17 2 -2
BITMAP
0020
0020
0020
0020
FFFE
0020
0020
3020
1020
1820
0C20
0420
0020
0020
0020
0020
01C0
ENDCHAR
STARTCHAR uni2F29
ENCODING 12073
SWIDTH 940 0
DWIDTH 19 0
BBX 15 17 2 -2
BITMAP
0100
0100
0100
0100
1110
3110
2118
2108
6108
410C
C104
8106
8102
0100
0100
0100
0F00
ENDCHAR
STARTCHAR uni2F2B
ENCODING 12075
SWIDTH 940 0
DWIDTH 19 0
BBX 15 17 2 -2
BITMAP
7FFE
4006
4006
4006
4006
7FFE
4000
4000
4000
4000
4000
4000
4000
C000
C000
8000
8000
ENDCHAR
STARTCHAR uni2F2D
ENCODING 12077
SWIDTH 940 0
DWIDTH 19 0
BBX 15 17 2 -2
BITMAP
0100
0100
0100
C106
C106
C106
C106
C106
C106
C106
C106
C106
C106
C106
FFFE
C006
C006
ENDCHAR
STARTCHAR uni2F2F
ENCODING 12079
SWIDTH 940 0
DWIDTH 19 0
BBX 15 15 2 -1
BITMAP
7FFC
0100
0100
0100
0100
0100
0100
0100
0100
0100
0100
0100
0100
0100
FFFE
ENDCHAR
STARTCHAR uni2F30
ENCODING 12080
SWIDTH 940 0
DWIDTH 19 0
BBX 14 16 3 -2
BITMAP
FFF0
0010
0010
0010
0010
0010
FFF0
8010
8000
8000
8000
8000
8004
8004
800C
FFF8
ENDCHAR
STARTCHAR uni2F31
ENCODING 12081
SWIDTH 940 0
DWIDTH 19 0
BBX 13 18 3 -2
BITMAP
0200
0200
0200
0200
FFF8
8208
8208
8208
8208
8208
8208
8208
8208
8208
8278
0200
0200
0200
ENDCHAR
STARTCHAR uni2F32
ENCODING 12082
SWIDTH 940 0
DWIDTH 19 0
BBX 15 16 2 -2
BITMAP
7FFC
0100
0100
0100
0100
0100
FFFE
0100
0100
0100
0100
0100
0100
0100
0100
0100
ENDCHAR
STARTCHAR uni2F38
ENCODING 12088
SWIDTH 940 0
DWIDTH 19 0
BBX 14 16 2 -2
BITMAP
7FF8
0008
0008
0008
3FF8
6000
6000
4000
4000
7FFC
C004
0004
0004
0004
000C
0078
ENDCHAR
STARTCHAR uni2F3C
ENCODING 12092
SWIDTH 940 0
DWIDTH 19 0
BBX 15 17 2 -2
BITMAP
0600
0380
0180
0080
0800
0800
0808
4808
480C
4804
C806
C802
8802
8808
0808
0818
0FF0
ENDCHAR
STARTCHAR uni2F3D
ENCODING 12093
SWIDTH 940 0
DWIDTH 19 0
BBX 15 17 2 -2
BITMAP
0400
04C0
0460
0610
07FE
FF00
0208
0208
0210
0320
0160
01C0
0182
06C2
1C66
703C
801C
ENDCHAR
STARTCHAR uni2F3E
ENCODING 12094
SWIDTH 940 0
DWIDTH 19 0
BBX 15 17 1 -2
BITMAP
0006
007C
3F80
2000
2000
3FFE
2002
2002
2002
3FFE
2002
2000
2000
6000
4000
C000
8000
ENDCHAR
STARTCHAR uni2F3F
ENCODING 12095
SWIDTH 940 0
DWIDTH 19 0
BBX 16 17 1 -2
BITMAP
001C
3FF0
0080
0080
0080
3FFE
0080
0080
0080
FFFF
0080
0080
0080
0080
0080
0080
0780
ENDCHAR
STARTCHAR uni2F40
ENCODING 12096
SWIDTH 940 0
DWIDTH 19 0
BBX 16 18 1 -2
BITMAP
0080
0080
0080
FFFF
0080
0080
0080
3FFC
080C
0C18
0410
0230
0360
01C0
03C0
0E30
380E
6003
ENDCHAR
STARTCHAR uni2F42
ENCODING 12098
SWIDTH 940 0
DWIDTH 19 0
BBX 16 18 1 -2
BITMAP
0080
0080
0080
0080
FFFF
0808
0818
0C10
0430
0430
0260
0340
01C0
01C0
0760
0C38
380F
4003
ENDCHAR
STARTCHAR uni2F43
ENCODING 12099
SWIDTH 940 0
DWIDTH 19 0
BBX 15 17 2 -2
BITMAP
0020
0820
0E20
0220
0020
2020
1820
0C20
0020
0026
00F8
3F20
C020
0020
0020
0020
0020
ENDCHAR
STARTCHAR uni2F44
ENCODING 12100
SWIDTH 940 0
DWIDTH 19 0
BBX 15 17 2 -2
BITMAP
0038
7FC0
4000
4000
4000
4000
7FFE
40C0
40C0
40C0
40C0
40C0
40C0
C0C0
80C0
80C0
80C0
ENDCHAR
STARTCHAR uni2F45
ENCODING 12101
SWIDTH 940 0
DWIDTH 19 0
BBX 15 18 2 -2
BITMAP
0100
0100
0100
FFFE
0C00
0C00
0C00
0800
0FF8
0808
0808
1808
1008
3008
2008
6008
C098
8070
ENDCHAR
STARTCHAR uni2F46
ENCODING 12102
SWIDTH 940 0
DWIDTH 19 0
BBX 15 16 2 -2
BITMAP
7FFC
0200
0200
0200
0200
FFFE
0280
0280
0680
0480
0C80
0880
1080
3082
C082
80FE
ENDCHAR
STARTCHAR uni2F47
ENCODING 12103
SWIDTH 940 0
DWIDTH 19 0
BBX 11 16 4 -2
BITMAP
FFE0
8020
8020
8020
8020
8020
FFE0
8020
8020
8020
8020
8020
8020
8020
FFE0
8020
ENDCHAR
STARTCHAR uni2F48
ENCODING 12104
SWIDTH 940 0
DWIDTH 19 0
BBX 13 16 3 -2
BITMAP
FFF8
8008
8008
8008
8008
8008
FFF8
8008
8008
8008
8008
8008
8008
FFF8
8008
8008
ENDCHAR
STARTCHAR uni2F49
ENCODING 12105
SWIDTH 940 0
DWIDTH 19 0
BBX 13 17 2 -2
BITMAP
3FF8
3008
3008
3008
3FF8
3008
3008
3008
3008
3FF8
2008
2008
2008
6008
4008
C008
8078
ENDCHAR
STARTCHAR uni2F4A
ENCODING 12106
SWIDTH 940 0
DWIDTH 19 0
BBX 15 18 2 -2
BITMAP
0100
0100
0100
0100
FFFE
0300
0780
05C0
0D40
0960
1130
3118
610C
C106
8102
0100
0100
0100
ENDCHAR
STARTCHAR uni2F4B
ENCODING 12107
SWIDTH 940 0
DWIDTH 19 0
BBX 16 17 1 -2
BITMAP
0400
0C00
0C00
0FFE
1886
1084
3084
608C
C180
01C0
0340
0260
0630
0C18
180C
7006
4001
ENDCHAR
STARTCHAR uni2F4C
ENCODING 12108
SWIDTH 940 0
DWIDTH 19 0
BBX 16 18 1 -2
BITMAP
0040
0040
0040
0040
0040
1840
1840
187F
1840
1840
1840
1840
1840
1840
1840
1840
1840
FFFF
ENDCHAR
STARTCHAR uni2F4F
ENCODING 12111
SWIDTH 940 0
DWIDTH 19 0
BBX 16 17 1 -2
BITMAP
1FFE
1086
1084
1084
1084
1084
FFFF
3184
3184
3184
2184
2104
210C
3FFF
6008
6008
0078
ENDCHAR
STARTCHAR uni2F50
ENCODING 12112
SWIDTH 940 0
DWIDTH 19 0
BBX 17 17 1 -2
BITMAP
304000
304000
304000
304100
304300
3F4400
305800
307000
304000
304000
304000
304000
304000
304180
334180
3C4100
C07F00
ENDCHAR
STARTCHAR uni2F51
ENCODING 12113
SWIDTH 940 0
DWIDTH 19 0
BBX 15 17 2 -2
BITMAP
0030
03E0
7F00
0300
0300
07FC
FB00
0300
0300
031E
1FE0
F300
0300
0300
0302
0302
01FE
ENDCHAR
STARTCHAR uni2F52
ENCODING 12114
SWIDTH 940 0
DWIDTH 19 0
BBX 16 17 1 -2
BITMAP
0004
00F8
3F40
3040
3040
3040
3040
3FFF
3060
3020
3020
3020
3030
3011
3199
3F0D
E007
ENDCHAR
STARTCHAR uni2F54
ENCODING 12116
SWIDTH 940 0
DWIDTH 19 0
BBX 15 18 2 -2
BITMAP
0100
0100
0100
0100
0104
F98C
0998
09B0
19E0
1140
1160
2130
6118
410C
8106
8102
0100
0F00
ENDCHAR
STARTCHAR uni2F55
ENCODING 12117
SWIDTH 940 0
DWIDTH 19 0
BBX 15 18 2 -2
BITMAP
0100
0100
0100
0100
2104
210C
2308
6318
4310
C390
0680
04C0
0C40
0820
1830
3018
C006
8002
ENDCHAR
STARTCHAR uni2F56
ENCODING 12118
SWIDTH 940 0
DWIDTH 19 0
BBX 15 17 2 -2
BITMAP
000C
00F0
3F10
2110
2110
2110
2118
2118
2108
2108
2108
6108
410C
4104
C106
8102
8102
ENDCHAR
STARTCHAR uni2F57
ENCODING 12119
SWIDTH 940 0
DWIDTH 19 0
BBX 16 17 1 -2
BITMAP
0420
0418
080C
1406
6C01
5818
1C10
3410
0630
0360
0140
01C0
01C0
0620
0C18
300E
C001
ENDCHAR
STARTCHAR uni2F58
ENCODING 12120
SWIDTH 940 0
DWIDTH 19 0
BBX 16 18 1 -2
BITMAP
0004
300C
1E30
03E0
0770
1C1E
6402
0808
1818
3C10
2630
0360
01C0
01C0
0370
0E1C
380F
C001
ENDCHAR
STARTCHAR uni2F5A
ENCODING 12122
SWIDTH 940 0
DWIDTH 19 0
BBX 17 18 1 -2
BITMAP
004000
104000
104000
104000
104000
1FFF80
100000
100000
100000
1FF000
101000
301000
201000
201000
201000
401000
C01000
801000
ENDCHAR
STARTCHAR uni2F5B
ENCODING 12123
SWIDTH 940 0
DWIDTH 19 0
BBX 16 16 1 -2
BITMAP
3FFE
0810
0810
0810
0810
0810
7FFF
0030
0070
01D0
0390
0610
1C10
7810
E010
00F0
ENDCHAR
STARTCHAR uni2F5C
ENCODING 12124
SWIDTH 940 0
DWIDTH 19 0
BBX 16 18 1 -2
BITMAP
0080
0880
1880
1080
1FFE
3080
2080
4080
0080
FFFF
0080
0080
0080
0080
0080
0080
0080
0080
ENDCHAR
STARTCHAR uni2F5D
ENCODING 12125
SWIDTH 940 0
DWIDTH 19 0
BBX 16 18 1 -2
BITMAP
0080
0090
0098
008C
0084
0080
7FFF
0180
01C0
0140
0360
0220
0630
0C18
180C
3006
6003
C001
ENDCHAR
STARTCHAR uni2F5E
ENCODING 12126
SWIDTH 940 0
DWIDTH 19 0
BBX 16 18 1 -2
BITMAP
0080
0080
0080
7FFF
0100
0300
0218
2610
1C30
0C60
0640
0380
0188
030C
0606
0C1E
FFF3
F801
ENDCHAR
STARTCHAR uni2F5F
ENCODING 12127
SWIDTH 940 0
DWIDTH 19 0
BBX 15 15 2 -1
BITMAP
FFFC
0100
0100
0100
0100
0100
7FFC
0100
0120
0130
0110
0118
0100
0100
FFFE
ENDCHAR
STARTCHAR uni2F60
ENCODING 12128
SWIDTH 940 0
DWIDTH 19 0
BBX 15 17 2 -2
BITMAP
0078
3F90
2310
2310
2310
2310
2310
2310
2318
2308
6308
634C
4364
4326
C3F2
9E1A
8000
ENDCHAR
STARTCHAR uni2F61
ENCODING 12129
SWIDTH 940 0
DWIDTH 19 0
BBX 16 17 2 -2
BITMAP
FFFE
0800
0800
1800
1FF0
1030
1030
1220
1220
1320
1120
1120
3020
31E0
3E23
C022
003E
ENDCHAR
STARTCHAR uni2F62
ENCODING 12130
SWIDTH 940 0
DWIDTH 19 0
BBX 15 18 2 -2
BITMAP
1010
1010
1010
FFFE
1010
1010
1010
1010
1010
1FF0
1010
1010
1010
1010
1010
1FF0
1010
1010
ENDCHAR
STARTCHAR uni2F63
ENCODING 12131
SWIDTH 940 0
DWIDTH 19 0
BBX 15 18 2 -2
BITMAP
0100
3100
2100
2100
7FFC
4100
C100
8100
8100
0100
3FF8
0100
0100
0100
0100
0100
0100
FFFE
ENDCHAR
STARTCHAR uni2F64
ENCODING 12132
SWIDTH 940 0
DWIDTH 19 0
BBX 14 16 2 -2
BITMAP
7FFC
4104
4104
4104
7FFC
4104
4104
4104
4104
7FFC
4104
4104
4104
C104
8104
811C
ENDCHAR
STARTCHAR uni2F65
ENCODING 12133
SWIDTH 940 0
DWIDTH 19 0
BBX 13 16 3 -2
BITMAP
FFF8
8208
8208
8208
8208
8208
FFF8
8208
8208
8208
8208
8208
8208
FFF8
8008
8008
ENDCHAR
STARTCHAR uni2F66
ENCODING 12134
SWIDTH 940 0
DWIDTH 19 0
BBX 16 16 2 -2
BITMAP
FFFE
0106
0104
010C
0100
0100
11FC
1100
1100
3100
2100
3100
7900
4700
80FF
8000
ENDCHAR
STARTCHAR uni2F69
ENCODING 12137
SWIDTH 940 0
DWIDTH 19 0
BBX 13 18 3 -2
BITMAP
0600
0600
0400
FFF8
8018
8018
8018
8018
8018
FFF8
8018
8018
8018
8018
8018
FFF8
8018
8018
ENDCHAR
STARTCHAR uni2F6A
ENCODING 12138
SWIDTH 940 0
DWIDTH 19 0
BBX 15 18 2 -2
BITMAP
0080
0080
0080
7FFE
6086
6084
6084
6080
7FFC
6C08
6418
4630
4370
41E0
C1C0
8370
9C1C
B006
ENDCHAR
STARTCHAR uni2F6B
ENCODING 12139
SWIDTH 940 0
DWIDTH 19 0
BBX 17 14 1 -1
BITMAP
3FFE00
222200
222200
222200
222200
222200
222200
222200
222200
222200
222200
222200
222200
FFFF80
ENDCHAR
STARTCHAR uni2F6C
ENCODING 12140
SWIDTH 940 0
DWIDTH 19 0
BBX 13 16 3 -2
BITMAP
FFF8
C018
C018
C018
FFF8
C018
C018
C018
C018
FFF8
C018
C018
C018
C018
FFF8
C018
ENDCHAR
STARTCHAR uni2F6D
ENCODING 12141
SWIDTH 940 0
DWIDTH 19 0
BBX 16 17 1 -2
BITMAP
3FF8
0018
0030
0260
01C0
00C0
FFFF
0182
0386
028C
0488
0880
3080
6080
C080
0080
0380
ENDCHAR
STARTCHAR uni2F6E
ENCODING 12142
SWIDTH 940 0
DWIDTH 19 0
BBX 15 17 2 -2
BITMAP
1800
1000
3000
3FFC
6100
4100
C100
0100
FFFE
0300
0380
0680
0440
0820
3018
E00C
8002
ENDCHAR
STARTCHAR uni2F6F
ENCODING 12143
SWIDTH 940 0
DWIDTH 19 0
BBX 15 16 2 -2
BITMAP
FFFE
0400
0C00
0800
0800
1800
1000
3FFC
700C
500C
D00C
900C
100C
100C
1FFC
100C
ENDCHAR
STARTCHAR uni2F70
ENCODING 12144
SWIDTH 940 0
DWIDTH 19 0
BBX 15 17 2 -2
BITMAP
3FF8
0000
0000
0000
0000
FFFE
0100
0100
1130
1110
3118
2108
6104
4106
C102
8100
0F00
ENDCHAR
STARTCHAR uni2F72
ENCODING 12146
SWIDTH 940 0
DWIDTH 19 0
BBX 16 17 1 -2
BITMAP
001C
3FF0
0080
0080
0080
0080
FFFF
01C0
02E0
06A0
0C90
1888
3086
6083
C081
0080
0080
ENDCHAR
STARTCHAR uni2F73
ENCODING 12147
SWIDTH 940 0
DWIDTH 19 0
BBX 16 18 1 -2
BITMAP
0080
0080
7FFF
4001
4001
4001
47F1
0010
0410
0410
0C18
0808
0808
180C
3006
2002
6001
8001
ENDCHAR
STARTCHAR uni2F74
ENCODING 12148
SWIDTH 940 0
DWIDTH 19 0
BBX 16 16 1 -1
BITMAP
0080
0080
0080
7FFE
0000
0000
1808
0808
0818
0C10
0410
0430
0420
0620
0020
FFFF
ENDCHAR
STARTCHAR uni2F75
ENCODING 12149
SWIDTH 940 0
DWIDTH 19 0
BBX 16 18 2 -2
BITMAP
2060
2060
2040
6040
7FFF
5888
D988
9908
9B08
1808
1808
1808
1808
1808
1808
1808
1808
1878
ENDCHAR
STARTCHAR uni2F76
ENCODING 12150
SWIDTH 940 0
DWIDTH 19 0
BBX 15 18 2 -2
BITMAP
0100
0108
6108
2118
1110
1910
0100
FFFE
0380
0780
0540
0920
1130
6118
C106
8102
0100
0100
ENDCHAR
STARTCHAR uni2F78
ENCODING 12152
SWIDTH 940 0
DWIDTH 19 0
BBX 15 17 2 -2
BITMAP
1800
1000
3000
3FFC
4100
C100
8100
FFFE
0100
0100
4104
4104
4104
4104
4104
7FFC
4004
ENDCHAR
STARTCHAR uni2F7A
ENCODING 12154
SWIDTH 940 0
DWIDTH 19 0
BBX 16 18 1 -2
BITMAP
0818
0C10
0430
0420
7FFF
0080
0080
0080
3FFE
0080
0080
0080
FFFF
0080
0080
0080
0080
0080
ENDCHAR
STARTCHAR uni2F7B
ENCODING 12155
SWIDTH 940 0
DWIDTH 19 0
BBX 15 16 2 -2
BITMAP
FFFE
0606
0A0A
1216
2266
C2C6
8786
0606
0A0A
1A36
2266
C2C6
8386
0206
0206
1E1C
ENDCHAR
STARTCHAR uni2F7C
ENCODING 12156
SWIDTH 940 0
DWIDTH 19 0
BBX 16 18 1 -2
BITMAP
0100
0100
0102
3FF6
010C
0118
0130
FFFF
00C0
0180
0604
1C18
74E0
4700
0400
0401
0403
03FE
ENDCHAR
STARTCHAR uni2F7D
ENCODING 12157
SWIDTH 940 0
DWIDTH 19 0
BBX 15 17 2 -2
BITMAP
FFFE
0300
0200
0200
7FFC
4444
4444
4444
4444
4444
4444
4444
4444
4444
4444
4444
401C
ENDCHAR
STARTCHAR uni2F7F
ENCODING 12159
SWIDTH 940 0
DWIDTH 19 0
BBX 16 17 1 -2
BITMAP
7FFF
0808
0808
0808
0FF8
0808
0808
0808
0FF8
0808
0808
0808
08FF
FF08
0008
0008
0008
ENDCHAR
STARTCHAR uni2F80
ENCODING 12160
SWIDTH 940 0
DWIDTH 19 0
BBX 16 18 1 -2
BITMAP
0080
0080
3FFC
0084
0084
FFFF
0084
0084
3FFC
0080
0080
3FFE
0080
0080
7FFF
0080
0080
0080
ENDCHAR
STARTCHAR uni2F81
ENCODING 12161
SWIDTH 940 0
DWIDTH 19 0
BBX 14 18 2 -2
BITMAP
0100
0100
0100
FFFC
C304
C384
C684
C444
D934
F314
C304
C684
C4C4
D864
F014
C004
C004
C01C
ENDCHAR
STARTCHAR uni2F82
ENCODING 12162
SWIDTH 940 0
DWIDTH 19 0
BBX 15 17 2 -2
BITMAP
FFFE
C100
C100
C100
C100
FFFC
C00C
C00C
C00C
C00C
FFFC
C100
C100
C100
C100
FFFE
C000
ENDCHAR
STARTCHAR uni2F83
ENCODING 12163
SWIDTH 940 0
DWIDTH 19 0
BBX 13 17 3 -2
BITMAP
0200
0600
0400
FFF8
8018
8018
8018
FFF8
8018
8018
8018
FFF8
8018
8018
8018
FFF8
8018
ENDCHAR
STARTCHAR uni2F84
ENCODING 12164
SWIDTH 940 0
DWIDTH 19 0
BBX 15 17 2 -2
BITMAP
FFFC
0400
0C20
0830
1810
10F8
FF0C
0004
0100
0100
7FFC
0100
0100
0100
0100
0100
FFFE
ENDCHAR
STARTCHAR uni2F85
ENCODING 12165
SWIDTH 940 0
DWIDTH 19 0
BBX 13 17 3 -2
BITMAP
0C00
F1F8
8008
8008
8008
8008
8008
FDF8
8008
8008
8008
8008
8008
8008
FFF8
8008
8008
ENDCHAR
STARTCHAR uni2F86
ENCODING 12166
SWIDTH 940 0
DWIDTH 19 0
BBX 16 17 1 -2
BITMAP
001C
3FE0
0080
0080
0080
FFFF
0080
0080
0080
3FFC
3004
3004
3004
3004
3004
3FFC
3004
ENDCHAR
STARTCHAR uni2F87
ENCODING 12167
SWIDTH 940 0
DWIDTH 19 0
BBX 17 18 1 -2
BITMAP
100C00
100C00
100C00
3F0C00
237F00
224C00
624C00
424C00
D24C00
9E4C00
0C4C00
044C00
09FF80
180C00
100C00
300C00
600C00
400C00
ENDCHAR
STARTCHAR uni2F88
ENCODING 12168
SWIDTH 940 0
DWIDTH 19 0
BBX 15 18 2 -2
BITMAP
0300
0200
3FF8
3018
3218
3318
3118
3198
3018
FFFE
3118
2118
2118
2118
2118
6118
C018
8070
ENDCHAR
STARTCHAR uni2F89
ENCODING 12169
SWIDTH 940 0
DWIDTH 19 0
BBX 16 17 1 -2
BITMAP
1FFC
1004
1004
1004
1FFC
1004
1004
1FFC
1100
1183
1086
1058
1070
1030
100C
13C6
FC01
ENDCHAR
STARTCHAR uni2F8A
ENCODING 12170
SWIDTH 940 0
DWIDTH 19 0
BBX 16 18 1 -2
BITMAP
0600
0400
0FF0
0820
1860
30C0
7FFE
B086
3086
3086
3FFE
3000
3000
3000
3001
3001
3003
1FFE
ENDCHAR
STARTCHAR uni2F8B
ENCODING 12171
SWIDTH 940 0
DWIDTH 19 0
BBX 16 18 1 -2
BITMAP
0808
0808
0808
4B49
4B49
4B49
4B49
4B49
4B49
4B49
7F7F
5B49
5349
1008
1008
2008
6008
C008
ENDCHAR
STARTCHAR uni2F8E
ENCODING 12174
SWIDTH 940 0
DWIDTH 19 0
BBX 17 17 1 -1
BITMAP
008000
018000
010000
3FFE00
226600
226600
226600
226600
226600
226600
226600
226600
226600
226600
226600
226600
FFFF80
ENDCHAR
STARTCHAR uni2F8F
ENCODING 12175
SWIDTH 940 0
DWIDTH 19 0
BBX 17 18 1 -2
BITMAP
080000
08FF00
180000
300000
640000
4C0000
0BFF80
100C00
300C00
300C00
700C00
900C00
100C00
100C00
100C00
100C00
100C00
103800
ENDCHAR
STARTCHAR uni2F90
ENCODING 12176
SWIDTH 940 0
DWIDTH 19 0
BBX 15 17 2 -2
BITMAP
0100
0100
0100
FFFE
0300
0780
0486
088C
18D8
2870
C860
8830
0810
08D8
0F8C
3C06
6002
ENDCHAR
STARTCHAR uni2F92
ENCODING 12178
SWIDTH 940 0
DWIDTH 19 0
BBX 16 17 1 -2
BITMAP
1FFC
1004
1004
1FFC
1004
1004
1004
1FFC
1004
1004
1FFC
0260
0260
0661
0C61
3861
E03F
ENDCHAR
STARTCHAR uni2F93
ENCODING 12179
SWIDTH 940 0
DWIDTH 19 0
BBX 14 18 2 -2
BITMAP
0C00
0FE0
1060
3040
E0C0
FFFC
6104
6104
7FFC
6104
6104
6104
7FFC
6004
4004
4004
8004
803C
ENDCHAR
STARTCHAR uni2F94
ENCODING 12180
SWIDTH 940 0
DWIDTH 19 0
BBX 16 17 1 -2
BITMAP
1FFC
0000
0000
FFFF
0000
1FFC
0000
0000
1FFC
0000
0000
1FFC
1004
1004
1004
1FFC
1004
ENDCHAR
STARTCHAR uni2F95
ENCODING 12181
SWIDTH 940 0
DWIDTH 19 0
BBX 15 17 2 -2
BITMAP
0440
0820
3018
630C
8382
0680
0C40
1820
3018
E00C
BFF2
3010
3010
3010
3010
3FF0
3010
ENDCHAR
STARTCHAR uni2F96
ENCODING 12182
SWIDTH 940 0
DWIDTH 19 0
BBX 16 17 1 -2
BITMAP
7FFF
0000
0000
0000
1FFC
1004
1004
1004
1004
1FFC
0000
0C10
0410
0410
0620
0220
FFFF
ENDCHAR
STARTCHAR uni2F97
ENCODING 12183
SWIDTH 940 0
DWIDTH 19 0
BBX 15 16 2 -2
BITMAP
FFFE
0380
0684
0CC4
124C
6358
8D60
1960
61A0
C3B0
0690
0C98
388C
6086
8082
0700
ENDCHAR
STARTCHAR uni2F99
ENCODING 12185
SWIDTH 940 0
DWIDTH 19 0
BBX 15 17 2 -2
BITMAP
3FF8
2008
2008
2008
3FF8
2008
2008
2008
3FF8
2008
2008
2008
3FF8
0820
1830
600C
8002
ENDCHAR
STARTCHAR uni2F9A
ENCODING 12186
SWIDTH 940 0
DWIDTH 19 0
BBX 15 18 2 -2
BITMAP
0100
0100
0100
7FFC
0100
0100
0100
FFFE
0440
0440
2450
6448
444C
CC46
8842
1840
3040
41C0
ENDCHAR
STARTCHAR uni2F9B
ENCODING 12187
SWIDTH 940 0
DWIDTH 19 0
BBX 15 18 2 -2
BITMAP
0100
0100
0100
3FF8
0100
0100
0100
FFFE
0100
1100
1100
11F8
3100
3100
7900
4700
81FE
8000
ENDCHAR
STARTCHAR uni2F9C
ENCODING 12188
SWIDTH 940 0
DWIDTH 19 0
BBX 15 17 2 -2
BITMAP
7FF8
6008
6008
6008
6008
7FF8
0100
0100
3100
3100
21FC
2100
6100
5100
CD00
8702
81FE
ENDCHAR
STARTCHAR uni2F9D
ENCODING 12189
SWIDTH 940 0
DWIDTH 19 0
BBX 15 18 2 -2
BITMAP
0300
0200
3FF8
2018
2018
3FF8
2018
2018
3FFA
201C
2018
21F8
FE78
0198
0618
7818
C018
0070
ENDCHAR
STARTCHAR uni2F9E
ENCODING 12190
SWIDTH 940 0
DWIDTH 19 0
BBX 16 18 1 -2
BITMAP
0080
0080
7FFF
0080
0080
1FFC
1084
1084
1FFC
1084
1084
1FFC
0080
0080
FFFF
0080
0080
0080
ENDCHAR
STARTCHAR uni2F9F
ENCODING 12191
SWIDTH 940 0
DWIDTH 19 0
BBX 16 18 1 -2
BITMAP
0080
0080
7FFF
0818
0C18
0C10
0410
0430
FFFF
0080
0080
0080
7FFF
0080
0080
0080
0080
0080
ENDCHAR
STARTCHAR uni2FA0
ENCODING 12192
SWIDTH 940 0
DWIDTH 19 0
BBX 15 17 2 -2
BITMAP
7FFE
4000
4000
4FFC
4000
4000
4000
7FFE
4480
4486
44D8
4470
4420
C430
85D8
870E
B802
ENDCHAR
STARTCHAR uni2FA2
ENCODING 12194
SWIDTH 940 0
DWIDTH 19 0
BBX 14 17 3 -2
BITMAP
7FF0
4030
4030
7FF0
0000
0000
FFF8
8208
8208
8208
FFF8
8000
8000
8004
8004
8004
FFF8
ENDCHAR
STARTCHAR uni2FA3
ENCODING 12195
SWIDTH 940 0
DWIDTH 19 0
BBX 15 17 2 -2
BITMAP
FFFE
0480
0480
0480
7FFC
448C
448C
4C9C
489C
58FC
500C
7FFC
400C
400C
400C
7FFC
400C
ENDCHAR
STARTCHAR uni2FA5
ENCODING 12197
SWIDTH 940 0
DWIDTH 19 0
BBX 16 16 1 -1
BITMAP
3FFC
3084
3084
3084
3FFC
3084
3084
3FFC
0080
0080
0080
3FFE
0080
0080
0080
FFFF
ENDCHAR
STARTCHAR uni2FA6
ENCODING 12198
SWIDTH 940 0
DWIDTH 19 0
BBX 16 17 1 -2
BITMAP
0180
0140
0260
0C10
180C
7007
CFF9
0080
0080
0080
3FFE
0080
1888
0888
0898
0490
FFFF
ENDCHAR
STARTCHAR uni2FA7
ENCODING 12199
SWIDTH 940 0
DWIDTH 19 0
BBX 15 17 2 -2
BITMAP
3FFC
2000
2000
3FF8
2000
2000
3FF8
2000
FFFE
2300
2108
21B0
20E0
2060
23B0
3E0C
E006
ENDCHAR
STARTCHAR uni2FA8
ENCODING 12200
SWIDTH 940 0
DWIDTH 19 0
BBX 15 17 2 -2
BITMAP
FEFE
8682
8682
FEFE
8682
8682
FEFE
8002
8002
8002
8002
8002
8002
8002
8002
8002
801E
ENDCHAR
STARTCHAR uni2FA9
ENCODING 12201
SWIDTH 940 0
DWIDTH 19 0
BBX 16 18 1 -2
BITMAP
0180
0100
1FFC
1004
1004
1FFC
1000
1FFE
1006
1006
1FFE
0080
0080
FFFF
0080
0080
0080
0080
ENDCHAR
STARTCHAR uni2FAC
ENCODING 12204
SWIDTH 940 0
DWIDTH 19 0
BBX 15 16 2 -2
BITMAP
FFFE
0100
0100
FFFC
C104
C104
D144
D974
C514
C144
D164
D934
C514
C104
C104
C01C
ENDCHAR
STARTCHAR uni2FAD
ENCODING 12205
SWIDTH 940 0
DWIDTH 19 0
BBX 16 18 1 -2
BITMAP
0080
7FFF
0080
0080
3FFE
0080
FFFF
0000
0000
1FFC
1084
1084
1FFC
1004
1004
1004
1004
103C
ENDCHAR
STARTCHAR uni2FAE
ENCODING 12206
SWIDTH 940 0
DWIDTH 19 0
BBX 17 18 1 -2
BITMAP
022000
022000
022000
7E3F00
022000
022000
022000
7E3F00
022000
022000
022000
062000
1C3F80
E42000
0C2000
082000
302000
202000
ENDCHAR
STARTCHAR uni2FAF
ENCODING 12207
SWIDTH 940 0
DWIDTH 19 0
BBX 16 17 1 -2
BITMAP
FFFF
0180
0100
0100
3FFE
2222
2222
23E2
2222
2222
2222
23E2
2222
2222
2222
3FFE
2002
ENDCHAR
STARTCHAR uni2FB0
ENCODING 12208
SWIDTH 940 0
DWIDTH 19 0
BBX 16 18 1 -2
BITMAP
0410
0410
7FFF
0410
07F0
0080
0080
3FFE
2086
2086
3FFE
0080
0080
0080
FFFF
0080
0080
0080
ENDCHAR
STARTCHAR uni2FB1
ENCODING 12209
SWIDTH 940 0
DWIDTH 19 0
BBX 16 17 1 -2
BITMAP
0300
3FF8
0208
0208
7FFF
0000
1FFC
1004
1004
1FFC
0040
7FFE
1840
1840
FFFF
0040
0040
ENDCHAR
STARTCHAR uni2FB3
ENCODING 12211
SWIDTH 940 0
DWIDTH 19 0
BBX 15 18 2 -2
BITMAP
0100
0100
7FFC
1030
1820
0820
0860
FFFE
0000
3FF8
2008
2008
2008
3FF8
2008
2008
3FF8
2008
ENDCHAR
STARTCHAR uni2FB4
ENCODING 12212
SWIDTH 940 0
DWIDTH 19 0
BBX 16 17 1 -2
BITMAP
7FFF
0100
0100
1FFC
1004
1004
1FFC
1004
1004
1FFC
1004
1004
1FFC
0420
0C18
300E
C001
ENDCHAR
STARTCHAR uni2FB5
ENCODING 12213
SWIDTH 940 0
DWIDTH 19 0
BBX 17 17 1 -2
BITMAP
3FFC00
200400
207400
2FC400
218400
218400
2FF400
299400
299400
299400
2FF400
618400
619680
419680
47FA80
DF0B00
800300
ENDCHAR
STARTCHAR uni2FB6
ENCODING 12214
SWIDTH 940 0
DWIDTH 19 0
BBX 17 17 1 -2
BITMAP
7FF200
001600
051400
391400
711600
111A00
110900
110580
FFF300
111200
111400
111400
111600
311900
210800
610580
410300
ENDCHAR
STARTCHAR uni2FB7
ENCODING 12215
SWIDTH 940 0
DWIDTH 19 0
BBX 16 17 1 -2
BITMAP
01C0
0360
0230
0C18
1FFE
7003
DFF8
1808
1FF8
1808
1FF8
1982
18CE
1878
1838
1F8E
7803
ENDCHAR
STARTCHAR uni2FB8
ENCODING 12216
SWIDTH 940 0
DWIDTH 19 0
BBX 15 17 2 -2
BITMAP
1830
0820
0C60
FFFE
0300
0200
3FF8
2008
2008
3FF8
2008
2008
3FF8
2008
2008
3FF8
2008
ENDCHAR
STARTCHAR uni2FB9
ENCODING 12217
SWIDTH 940 0
DWIDTH 19 0
BBX 16 18 1 -2
BITMAP
003C
3FF0
0080
0080
7FFF
01C0
02A0
0C90
188C
7007
DFFD
1004
1004
1FFC
1004
1004
1FFC
1004
ENDCHAR
STARTCHAR uni2FBA
ENCODING 12218
SWIDTH 940 0
DWIDTH 19 0
BBX 15 17 2 -2
BITMAP
7FFC
4100
4100
7FF8
4100
4100
7FF8
4100
4100
4100
7FFE
0022
4926
C936
C996
8984
803C
ENDCHAR
STARTCHAR uni2FBB
ENCODING 12219
SWIDTH 940 0
DWIDTH 19 0
BBX 15 17 2 -2
BITMAP
3FF0
3010
33F0
3310
3310
FFFE
8002
BFFA
A01A
2018
3FF8
2018
3FF8
2018
2018
2018
2070
ENDCHAR
STARTCHAR uni2FBC
ENCODING 12220
SWIDTH 940 0
DWIDTH 19 0
BBX 16 18 1 -2
BITMAP
0080
0080
FFFF
0000
1FF8
1808
1808
1FF8
0000
7FFF
4003
4FF3
4C13
4C13
4FF3
4C03
4003
400E
ENDCHAR
STARTCHAR uni2FC1
ENCODING 12225
SWIDTH 940 0
DWIDTH 19 0
BBX 16 18 2 -2
BITMAP
0300
0200
7FF8
6108
6108
7FF8
6108
6108
6108
7FF8
0990
09B0
09A8
19A4
11FF
3182
C0FE
8000
ENDCHAR
STARTCHAR uni2FC2
ENCODING 12226
SWIDTH 940 0
DWIDTH 19 0
BBX 15 18 2 -2
BITMAP
0800
1800
1FC0
30C0
2180
7FF8
E108
A108
3FF8
2108
2108
2108
3FF8
200C
64C4
4446
C662
8662
ENDCHAR
STARTCHAR uni2FC3
ENCODING 12227
SWIDTH 940 0
DWIDTH 19 0
BBX 15 18 2 -2
BITMAP
0200
0600
7FF0
6010
7FF0
6010
6010
7FF0
6000
7FFE
6000
6000
7FFE
0026
4926
4934
8884
881C
ENDCHAR
STARTCHAR uni2FC4
ENCODING 12228
SWIDTH 940 0
DWIDTH 19 0
BBX 14 18 2 -2
BITMAP
0200
0200
03FC
0200
0200
FFFC
C204
D324
D964
C444
E3B4
D39C
C664
C934
D194
C084
FFFC
C004
ENDCHAR
STARTCHAR uni2FC5
ENCODING 12229
SWIDTH 940 0
DWIDTH 19 0
BBX 16 18 1 -2
BITMAP
0080
0080
3FFF
2220
2220
3FFF
2223
2223
3FFF
2000
6420
6426
47BC
4420
4421
4421
C7A1
9C3F
ENDCHAR
STARTCHAR uni2FC6
ENCODING 12230
SWIDTH 940 0
DWIDTH 19 0
BBX 16 18 1 -2
BITMAP
0080
0080
7FFF
0888
0888
189C
3DF6
62E2
4C98
318E
C3F9
0408
0E18
3B30
21C0
01F0
0E1C
3003
ENDCHAR
STARTCHAR uni2FC7
ENCODING 12231
SWIDTH 940 0
DWIDTH 19 0
BBX 17 18 1 -2
BITMAP
00C000
00C000
7FFF00
600000
660800
660800
7FFF00
660800
772A00
772A00
572A00
572A00
572A00
574A80
564A80
564B00
D64800
860800
ENDCHAR
STARTCHAR uni2FC8
ENCODING 12232
SWIDTH 940 0
DWIDTH 19 0
BBX 16 18 1 -2
BITMAP
0410
7FFF
0410
0410
07F0
0000
FFFF
0080
3FFC
3084
3084
3FFC
3084
3084
3FFC
0410
381E
E003
ENDCHAR
STARTCHAR uni2FC9
ENCODING 12233
SWIDTH 940 0
DWIDTH 19 0
BBX 16 18 1 -2
BITMAP
001C
3FE0
0080
7FFF
03E0
06F0
1C98
718E
C3C1
0770
1C98
788E
CCC9
05B0
0E98
3C8E
6083
0380
ENDCHAR
STARTCHAR uni2FCA
ENCODING 12234
SWIDTH 940 0
DWIDTH 19 0
BBX 16 17 1 -2
BITMAP
3FFE
288A
2492
2692
22A2
3FFE
0080
0080
3FFE
0080
0080
FFFF
0004
3662
2223
4221
4231
ENDCHAR
STARTCHAR uni2FCD
ENCODING 12237
SWIDTH 940 0
DWIDTH 19 0
BBX 16 17 1 -2
BITMAP
0FF0
6C13
6FF3
6C13
6FF3
6C13
6FF3
6003
6003
7E7F
0260
0260
FE7F
3264
2264
6264
4264
ENDCHAR
STARTCHAR uni2FCE
ENCODING 12238
SWIDTH 940 0
DWIDTH 19 0
BBX 16 18 1 -2
BITMAP
0818
0818
FF18
08FF
0818
7F18
0018
7EFF
4243
4262
7E22
0026
2614
2418
341C
0736
1CC3
E181
ENDCHAR
STARTCHAR uni2FCF
ENCODING 12239
SWIDTH 940 0
DWIDTH 19 0
BBX 17 17 1 -2
BITMAP
020000
3C7E00
200200
3F7E00
200200
200200
3FFE00
000000
29C400
2DB400
259400
29C400
2DA400
259400
259480
39E700
C10300
ENDCHAR
STARTCHAR uni2FD0
ENCODING 12240
SWIDTH 940 0
DWIDTH 19 0
BBX 16 18 1 -2
BITMAP
0100
1FFC
1004
1FFC
1004
1FFC
1FFC
0000
3FFE
2082
3FFE
2082
3FFE
0410
FFFF
0C10
1810
2010
ENDCHAR
STARTCHAR uni2FD1
ENCODING 12241
SWIDTH 940 0
DWIDTH 19 0
BBX 16 18 1 -2
BITMAP
0080
0080
FFFF
0262
7DDC
2496
2492
249F
5CB1
9004
1004
1FFC
1004
1FFC
3004
2004
6004
4004
ENDCHAR
STARTCHAR uni2FD2
ENCODING 12242
SWIDTH 940 0
DWIDTH 19 0
BBX 17 18 1 -2
BITMAP
00C000
08FE00
08C000
08C000
FFFF80
001000
663200
643200
6E7A00
794A00
7FFE00
661200
643200
663200
6B7A00
714E00
7FFE00
600200
ENDCHAR
STARTCHAR uni2FD3
ENCODING 12243
SWIDTH 940 0
DWIDTH 19 0
BBX 17 18 1 -2
BITMAP
084000
087F00
7F4000
224000
267F00
240100
FF0100
007F00
7E4000
427F00
424000
7E7F00
424000
7E4000
427F00
424000
424180
467F00
ENDCHAR
STARTCHAR uni2FD4
ENCODING 12244
SWIDTH 940 0
DWIDTH 19 0
BBX 16 18 1 -2
BITMAP
0600
0FE0
3060
7FFE
2142
3F7E
0140
7940
097E
FF56
0956
314A
795E
0956
FF7E
0941
7941
01FF
ENDCHAR
STARTCHAR uni3000
ENCODING 12288
SWIDTH 940 0
DWIDTH 19 0
BBX 1 1 0 0
BITMAP
00
ENDCHAR
STARTCHAR uni3001
ENCODING 12289
SWIDTH 940 0
DWIDTH 19 0
BBX 4 3 1 -3
BITMAP
C0
30
10
ENDCHAR
STARTCHAR uni3002
ENCODING 12290
SWIDTH 940 0
DWIDTH 19 0
BBX 4 4 1 -3
BITMAP
F0
90
90
F0
ENDCHAR
STARTCHAR uni3003
ENCODING 12291
SWIDTH 940 0
DWIDTH 19 0
BBX 8 6 5 3
BITMAP
33
26
64
44
48
88
ENDCHAR
STARTCHAR uni3008
ENCODING 12296
SWIDTH 467 0
DWIDTH 9 0
BBX 7 18 1 -3
BITMAP
02
02
04
08
10
10
20
40
80
80
40
20
10
10
08
04
02
02
ENDCHAR
STARTCHAR uni3009
ENCODING 12297
SWIDTH 477 0
DWIDTH 10 0
BBX 7 18 1 -3
BITMAP
80
40
20
20
10
08
04
04
02
02
04
04
08
10
20
20
40
80
ENDCHAR
STARTCHAR uni300A
ENCODING 12298
SWIDTH 464 0
DWIDTH 9 0
BBX 8 18 1 -3
BITMAP
05
0A
14
14
28
28
50
60
A0
A0
60
50
28
28
14
14
0A
05
ENDCHAR
STARTCHAR uni300B
ENCODING 12299
SWIDTH 464 0
DWIDTH 9 0
BBX 7 18 1 -3
BITMAP
A0
A0
50
50
28
14
14
0A
0A
0A
0A
14
14
28
50
50
A0
A0
ENDCHAR
STARTCHAR uni300C
ENCODING 12300
SWIDTH 351 0
DWIDTH 7 0
BBX 5 9 1 6
BITMAP
F8
80
80
80
80
80
80
80
80
ENDCHAR
STARTCHAR uni300D
ENCODING 12301
SWIDTH 351 0
DWIDTH 7 0
BBX 5 9 1 -3
BITMAP
08
08
08
08
08
08
08
08
F8
ENDCHAR
STARTCHAR uni300E
ENCODING 12302
SWIDTH 356 0
DWIDTH 7 0
BBX 5 9 1 6
BITMAP
F8
88
F8
C0
C0
C0
C0
C0
C0
ENDCHAR
STARTCHAR uni300F
ENCODING 12303
SWIDTH 356 0
DWIDTH 7 0
BBX 5 9 1 -3
BITMAP
18
18
18
18
18
18
F8
88
F8
ENDCHAR
STARTCHAR uni3010
ENCODING 12304
SWIDTH 374 0
DWIDTH 7 0
BBX 6 18 0 -3
BITMAP
FC
F8
F0
F0
E0
E0
E0
C0
C0
C0
C0
E0
E0
E0
F0
F0
F8
FC
ENDCHAR
STARTCHAR uni3011
ENCODING 12305
SWIDTH 382 0
DWIDTH 8 0
BBX 6 18 1 -3
BITMAP
FC
7C
3C
1C
1C
0C
0C
0C
0C
0C
0C
0C
0C
1C
1C
3C
7C
FC
ENDCHAR
STARTCHAR uni3012
ENCODING 12306
SWIDTH 940 0
DWIDTH 19 0
BBX 16 16 1 -2
BITMAP
FFFF
FFFF
0000
0000
0000
FFFF
FFFF
0180
0180
0180
0180
0180
0180
0180
0180
0180
ENDCHAR
STARTCHAR uni3013
ENCODING 12307
SWIDTH 940 0
DWIDTH 19 0
BBX 13 5 3 4
BITMAP
FFF8
0000
0000
0000
FFF8
ENDCHAR
STARTCHAR uni3014
ENCODING 12308
SWIDTH 344 0
DWIDTH 7 0
BBX 5 18 1 -3
BITMAP
08
30
C0
80
80
80
80
80
80
80
80
80
80
80
80
C0
30
08
ENDCHAR
STARTCHAR uni3015
ENCODING 12309
SWIDTH 358 0
DWIDTH 7 0
BBX 5 18 1 -3
BITMAP
80
60
18
08
08
08
08
08
08
08
08
08
08
08
08
18
60
80
ENDCHAR
STARTCHAR uni3016
ENCODING 12310
SWIDTH 395 0
DWIDTH 8 0
BBX 6 18 1 -3
BITMAP
FC
88
88
90
90
90
90
90
90
90
90
90
90
90
90
88
88
FC
ENDCHAR
STARTCHAR uni3017
ENCODING 12311
SWIDTH 395 0
DWIDTH 8 0
BBX 6 18 1 -3
BITMAP
FC
4C
4C
2C
2C
2C
2C
2C
2C
2C
2C
2C
2C
2C
2C
4C
4C
FC
ENDCHAR
STARTCHAR uni3018
ENCODING 12312
SWIDTH 405 0
DWIDTH 8 0
BBX 6 18 1 -3
BITMAP
0C
34
58
E0
C0
C0
C0
C0
C0
C0
C0
C0
C0
C0
E0
58
34
0C
ENDCHAR
STARTCHAR uni3019
ENCODING 12313
SWIDTH 405 0
DWIDTH 8 0
BBX 6 18 1 -3
BITMAP
C0
B0
6C
1C
0C
0C
0C
0C
0C
0C
0C
0C
0C
0C
1C
6C
B0
C0
ENDCHAR
STARTCHAR similar.dup45
ENCODING 12316
SWIDTH 940 0
DWIDTH 19 0
BBX 11 4 4 4
BITMAP
3000
DC20
8640
0180
ENDCHAR
STARTCHAR uni301E
ENCODING 12318
SWIDTH 390 0
DWIDTH 8 0
BBX 6 4 1 11
BITMAP
64
4C
88
90
ENDCHAR
STARTCHAR uni301F
ENCODING 12319
SWIDTH 390 0
DWIDTH 8 0
BBX 7 4 0 -2
BITMAP
36
24
48
88
ENDCHAR
STARTCHAR uni3020
ENCODING 12320
SWIDTH 940 0
DWIDTH 19 0
BBX 15 12 2 0
BITMAP
0700
0CE0
23BC
C0F4
889C
8900
4114
4822
2422
23C2
181C
07E0
ENDCHAR
STARTCHAR uni3036
ENCODING 12342
SWIDTH 940 0
DWIDTH 19 0
BBX 17 18 1 -3
BITMAP
07E000
081800
300400
400200
7FFD00
BFFC80
800080
800080
BFFC80
BFFC80
808080
808080
808080
408100
408200
308400
0C1800
03E000
ENDCHAR
STARTCHAR uni3041
ENCODING 12353
SWIDTH 940 0
DWIDTH 19 0
BBX 11 13 4 -2
BITMAP
0800
0900
7E00
1000
1300
1F80
3240
5460
9420
8860
B840
4980
0100
ENDCHAR
STARTCHAR uni3042
ENCODING 12354
SWIDTH 940 0
DWIDTH 19 0
BBX 13 15 3 -1
BITMAP
0C00
0C00
7F80
7C00
0800
0880
0FE0
39B0
6918
CB18
8A08
8C18
8C18
F430
00E0
ENDCHAR
STARTCHAR uni3043
ENCODING 12355
SWIDTH 940 0
DWIDTH 19 0
BBX 11 9 4 0
BITMAP
8000
8080
8080
8040
8040
8060
C000
4800
7000
ENDCHAR
STARTCHAR uni3044
ENCODING 12356
SWIDTH 940 0
DWIDTH 19 0
BBX 14 12 2 0
BITMAP
8000
C000
C030
C010
C018
400C
400C
4004
6000
2600
3C00
1800
ENDCHAR
STARTCHAR uni3045
ENCODING 12357
SWIDTH 940 0
DWIDTH 19 0
BBX 7 12 6 -1
BITMAP
18
08
00
3C
E6
82
02
02
02
04
0C
18
ENDCHAR
STARTCHAR uni3046
ENCODING 12358
SWIDTH 940 0
DWIDTH 19 0
BBX 9 16 5 -2
BITMAP
1800
0E00
0600
0000
0E00
3F00
E180
4080
0080
0080
0180
0100
0300
0700
0E00
0C00
ENDCHAR
STARTCHAR uni3047
ENCODING 12359
SWIDTH 940 0
DWIDTH 19 0
BBX 11 12 4 -1
BITMAP
0C00
0200
0000
0E00
7600
0400
0800
1E00
3200
6200
C200
01E0
ENDCHAR
STARTCHAR uni3048
ENCODING 12360
SWIDTH 940 0
DWIDTH 19 0
BBX 13 16 3 -2
BITMAP
0400
0700
0300
0000
0000
7F80
7300
0600
0600
0E00
1F00
3900
3100
6180
C1F8
0078
ENDCHAR
STARTCHAR uni3049
ENCODING 12361
SWIDTH 940 0
DWIDTH 19 0
BBX 11 12 4 -1
BITMAP
3000
1000
1C40
F020
1000
1700
39C0
5040
9040
90C0
9080
6300
ENDCHAR
STARTCHAR uni304A
ENCODING 12362
SWIDTH 940 0
DWIDTH 19 0
BBX 14 15 2 -2
BITMAP
0800
0800
0B18
7F0C
0804
0800
0BE0
0FF0
3818
6808
4818
C818
4830
78E0
1000
ENDCHAR
STARTCHAR uni304B
ENCODING 12363
SWIDTH 940 0
DWIDTH 19 0
BBX 15 14 2 -1
BITMAP
0400
0400
0C10
0F88
F8CC
5846
1846
1040
3040
20C0
60C0
6080
C780
C700
ENDCHAR
STARTCHAR uni304C
ENCODING 12364
SWIDTH 940 0
DWIDTH 19 0
BBX 15 15 2 -1
BITMAP
0006
0C0A
0C04
0800
1F90
F888
988C
1084
3080
3080
2080
6080
4180
CB00
8700
ENDCHAR
STARTCHAR uni304D
ENCODING 12365
SWIDTH 940 0
DWIDTH 19 0
BBX 10 16 4 -2
BITMAP
1800
1900
1F00
7C00
0440
07C0
7F00
6300
0180
1980
77C0
C0C0
C000
C000
7000
3E00
ENDCHAR
STARTCHAR uni304E
ENCODING 12366
SWIDTH 940 0
DWIDTH 19 0
BBX 13 17 3 -2
BITMAP
0010
3048
1A28
1E00
7800
0C80
0780
7E00
E200
0300
3180
FF80
C180
8000
C000
E000
3E00
ENDCHAR
STARTCHAR uni304F
ENCODING 12367
SWIDTH 940 0
DWIDTH 19 0
BBX 7 16 6 -2
BITMAP
08
0C
18
10
30
60
C0
C0
C0
60
30
18
18
0C
06
04
ENDCHAR
STARTCHAR uni3050
ENCODING 12368
SWIDTH 940 0
DWIDTH 19 0
BBX 11 16 4 -2
BITMAP
0800
0C00
1800
1140
30A0
6080
C000
8000
C000
6000
3000
1800
1800
0C00
0C00
0400
ENDCHAR
STARTCHAR uni3051
ENCODING 12369
SWIDTH 940 0
DWIDTH 19 0
BBX 13 16 3 -2
BITMAP
00C0
4040
C040
C048
87F8
87C0
8040
8040
8040
A040
A0C0
C0C0
C0C0
C180
0380
0100
ENDCHAR
STARTCHAR uni3052
ENCODING 12370
SWIDTH 940 0
DWIDTH 19 0
BBX 16 16 1 -2
BITMAP
0041
6045
6062
4060
4078
C7F0
C060
C060
C060
D040
E040
60C0
60C0
6180
4180
0100
ENDCHAR
STARTCHAR uni3053
ENCODING 12371
SWIDTH 940 0
DWIDTH 19 0
BBX 11 12 4 0
BITMAP
7F80
7F80
0000
0000
0000
0000
0000
0000
8000
8000
C060
7FE0
ENDCHAR
STARTCHAR uni3054
ENCODING 12372
SWIDTH 940 0
DWIDTH 19 0
BBX 14 14 2 0
BITMAP
0008
0014
3F88
3FC0
0000
0000
0000
0000
0000
0000
C000
8000
E020
7FE0
ENDCHAR
STARTCHAR uni3055
ENCODING 12373
SWIDTH 940 0
DWIDTH 19 0
BBX 10 16 4 -2
BITMAP
1800
0800
0CC0
07C0
7E00
0200
0300
0100
0180
7EC0
61C0
C000
C000
6000
3E00
0F00
ENDCHAR
STARTCHAR uni3056
ENCODING 12374
SWIDTH 940 0
DWIDTH 19 0
BBX 13 17 3 -2
BITMAP
0010
1048
1820
1880
0F80
FE00
0400
0600
0300
0300
7D80
C380
8000
8000
C000
7E00
1E00
ENDCHAR
STARTCHAR uni3057
ENCODING 12375
SWIDTH 940 0
DWIDTH 19 0
BBX 10 16 4 -2
BITMAP
C000
C000
4000
4000
4000
4000
4000
4000
4000
4000
4000
C040
40C0
4180
6300
1E00
ENDCHAR
STARTCHAR uni3058
ENCODING 12376
SWIDTH 940 0
DWIDTH 19 0
BBX 10 16 4 -2
BITMAP
C000
40C0
4140
4080
4000
4000
4000
4000
4000
4000
4000
4040
40C0
4180
6300
1E00
ENDCHAR
STARTCHAR uni3059
ENCODING 12377
SWIDTH 940 0
DWIDTH 19 0
BBX 13 16 3 -2
BITMAP
0300
0300
0300
FFF8
C300
0300
1F00
3300
3300
3300
3300
1F00
0300
0600
0E00
1C00
ENDCHAR
STARTCHAR uni305A
ENCODING 12378
SWIDTH 940 0
DWIDTH 19 0
BBX 15 17 2 -2
BITMAP
0004
030A
0108
0100
FFF8
F100
0100
0D00
1B00
3100
3100
3300
1F00
0300
0600
0E00
1C00
ENDCHAR
STARTCHAR uni305B
ENCODING 12379
SWIDTH 940 0
DWIDTH 19 0
BBX 16 14 1 -1
BITMAP
0010
0C10
0C10
0C10
0C1F
FFFF
4C10
0C10
0C10
0C70
0C00
0400
0608
03F8
ENDCHAR
STARTCHAR uni305C
ENCODING 12380
SWIDTH 940 0
DWIDTH 19 0
BBX 17 14 1 -1
BITMAP
002500
182680
082200
082000
083E00
FFFE00
C82000
082000
086000
08E000
080000
080000
0C1000
07F000
ENDCHAR
STARTCHAR uni305D
ENCODING 12381
SWIDTH 940 0
DWIDTH 19 0
BBX 11 16 4 -2
BITMAP
7F00
7F80
0200
0400
1800
3000
67E0
FFE0
C700
0C00
0C00
1800
1800
0C00
0FC0
0380
ENDCHAR
STARTCHAR uni305E
ENCODING 12382
SWIDTH 940 0
DWIDTH 19 0
BBX 14 16 2 -2
BITMAP
7F00
7F88
0214
0408
0800
1000
37E0
7FE0
C300
0600
0C00
0800
0800
0C00
0FC0
03C0
ENDCHAR
STARTCHAR uni305F
ENCODING 12383
SWIDTH 940 0
DWIDTH 19 0
BBX 13 15 3 -1
BITMAP
1000
1800
1800
1A00
FE00
D000
1000
31F0
3000
2000
2000
6000
6000
C408
C3F8
ENDCHAR
STARTCHAR uni3060
ENCODING 12384
SWIDTH 940 0
DWIDTH 19 0
BBX 15 15 2 -2
BITMAP
0800
0814
1A0A
FE00
D800
1040
11F8
3000
3000
2000
2000
6000
4608
C3F8
4000
ENDCHAR
STARTCHAR uni3061
ENCODING 12385
SWIDTH 940 0
DWIDTH 19 0
BBX 13 16 3 -2
BITMAP
0800
0800
0840
0FC0
FF00
0800
0800
1800
1880
1FF0
1810
0018
0018
0030
03E0
0380
ENDCHAR
STARTCHAR uni3062
ENCODING 12386
SWIDTH 940 0
DWIDTH 19 0
BBX 14 16 2 -2
BITMAP
0804
0814
0848
0FC0
FF00
0800
0800
1800
1880
1FF0
1C10
0018
0018
0030
03E0
0380
ENDCHAR
STARTCHAR uni3063
ENCODING 12387
SWIDTH 940 0
DWIDTH 19 0
BBX 11 8 4 0
BITMAP
1FC0
E060
8020
0020
0020
0040
0180
0700
ENDCHAR
STARTCHAR uni3064
ENCODING 12388
SWIDTH 940 0
DWIDTH 19 0
BBX 15 11 2 0
BITMAP
0060
0FF8
F80C
4004
0006
0006
0004
000C
0038
01F0
01C0
ENDCHAR
STARTCHAR uni3065
ENCODING 12389
SWIDTH 940 0
DWIDTH 19 0
BBX 16 14 1 0
BITMAP
0002
0001
0006
0002
0FF8
FC0C
6004
0006
0006
0004
000C
0018
00F0
01C0
ENDCHAR
STARTCHAR uni3066
ENCODING 12390
SWIDTH 940 0
DWIDTH 19 0
BBX 13 14 3 -1
BITMAP
0008
07F8
FEC0
C180
0300
0200
0600
0600
0600
0600
0300
0380
01F0
0060
ENDCHAR
STARTCHAR uni3067
ENCODING 12391
SWIDTH 940 0
DWIDTH 19 0
BBX 15 13 2 -1
BITMAP
07F8
FEC0
C184
0302
060A
0600
0400
0400
0600
0600
0380
01E0
0060
ENDCHAR
STARTCHAR uni3068
ENCODING 12392
SWIDTH 940 0
DWIDTH 19 0
BBX 10 14 4 -1
BITMAP
3000
3000
3000
30C0
13C0
1E00
1800
3000
6000
4000
C000
C000
6040
3FC0
ENDCHAR
STARTCHAR uni3069
ENCODING 12393
SWIDTH 940 0
DWIDTH 19 0
BBX 13 15 3 -1
BITMAP
0010
6058
2028
2020
2080
2780
3E00
3000
6000
C000
8000
8000
8000
C040
7FC0
ENDCHAR
STARTCHAR uni306A
ENCODING 12394
SWIDTH 940 0
DWIDTH 19 0
BBX 13 16 3 -2
BITMAP
0800
0800
1800
1F20
F810
3008
2080
6080
6080
C080
C080
07E0
0CB0
0890
0880
0700
ENDCHAR
STARTCHAR uni306B
ENCODING 12395
SWIDTH 940 0
DWIDTH 19 0
BBX 13 14 3 -1
BITMAP
4000
4000
C7F0
C010
C000
8000
8000
8000
8000
A000
A400
C7F8
41F8
4000
ENDCHAR
STARTCHAR uni306C
ENCODING 12396
SWIDTH 940 0
DWIDTH 19 0
BBX 15 14 2 -1
BITMAP
0300
0300
4300
4FC0
5A70
6618
6608
F40C
940C
9C0C
8CFC
9D8E
F19E
00E0
ENDCHAR
STARTCHAR uni306D
ENCODING 12397
SWIDTH 940 0
DWIDTH 19 0
BBX 15 15 2 -1
BITMAP
1000
1000
1000
1C00
79F0
F318
3C08
380C
300C
700C
50E8
91B8
911E
1136
11E0
ENDCHAR
STARTCHAR uni306E
ENCODING 12398
SWIDTH 940 0
DWIDTH 19 0
BBX 15 12 2 0
BITMAP
03E0
1F78
319C
610C
4106
C306
8206
8606
C40C
4C0C
7838
0070
ENDCHAR
STARTCHAR uni306F
ENCODING 12399
SWIDTH 940 0
DWIDTH 19 0
BBX 14 14 2 -1
BITMAP
4040
6040
4048
47F8
47C0
C040
C040
C040
C040
D0E0
63F8
646C
6444
67C0
ENDCHAR
STARTCHAR uni3070
ENCODING 12400
SWIDTH 940 0
DWIDTH 19 0
BBX 15 16 2 -1
BITMAP
0004
0012
40CA
C0C0
C0C0
80F8
8FF0
80C0
80C0
80C0
80C0
A0C0
A7F0
CCD8
CCC8
4780
ENDCHAR
STARTCHAR uni3071
ENCODING 12401
SWIDTH 940 0
DWIDTH 19 0
BBX 15 17 2 -2
BITMAP
000E
0012
40CA
C0C4
C0C0
80F8
8FF0
80C0
80C0
80C0
80C0
A0C0
A7F0
CCD8
CCC8
4780
0300
ENDCHAR
STARTCHAR uni3072
ENCODING 12402
SWIDTH 940 0
DWIDTH 19 0
BBX 14 15 2 -2
BITMAP
0860
FC30
5830
1038
302C
2024
2020
6020
6020
6060
6040
60C0
3080
1F80
0E00
ENDCHAR
STARTCHAR uni3073
ENCODING 12403
SWIDTH 940 0
DWIDTH 19 0
BBX 16 17 1 -2
BITMAP
0002
0005
0866
FC30
7830
1038
302C
202C
2020
6020
6020
6060
6040
6040
3080
1F80
0E00
ENDCHAR
STARTCHAR uni3074
ENCODING 12404
SWIDTH 940 0
DWIDTH 19 0
BBX 16 17 1 -2
BITMAP
0007
0005
0865
FC32
7830
1038
302C
2024
2020
6020
6020
6060
6040
6040
3080
1F80
0E00
ENDCHAR
STARTCHAR uni3075
ENCODING 12405
SWIDTH 940 0
DWIDTH 19 0
BBX 15 15 2 -2
BITMAP
0780
0180
0100
0000
0000
0600
0300
0180
00C8
C8C4
D046
6060
00C0
07C0
0380
ENDCHAR
STARTCHAR uni3076
ENCODING 12406
SWIDTH 940 0
DWIDTH 19 0
BBX 15 16 2 -2
BITMAP
0004
070A
0188
0100
0000
0000
0600
0300
0180
00C8
88CC
D0C6
6040
00C0
07C0
0300
ENDCHAR
STARTCHAR uni3077
ENCODING 12407
SWIDTH 940 0
DWIDTH 19 0
BBX 15 17 2 -2
BITMAP
000C
0012
0712
018C
0100
0000
0000
0600
0300
0180
00C8
88CC
D0C6
6060
00C0
07C0
0380
ENDCHAR
STARTCHAR uni3078
ENCODING 12408
SWIDTH 940 0
DWIDTH 19 0
BBX 15 8 2 2
BITMAP
0400
1E00
3300
61C0
C060
8038
000E
0002
ENDCHAR
STARTCHAR uni3079
ENCODING 12409
SWIDTH 940 0
DWIDTH 19 0
BBX 15 10 2 2
BITMAP
0008
0004
0010
1E08
3300
6180
C060
8038
000E
0006
ENDCHAR
STARTCHAR uni307A
ENCODING 12410
SWIDTH 940 0
DWIDTH 19 0
BBX 15 10 2 2
BITMAP
001C
0014
0014
1E0C
3300
6180
C060
8038
000E
0006
ENDCHAR
STARTCHAR uni307B
ENCODING 12411
SWIDTH 940 0
DWIDTH 19 0
BBX 14 14 2 -1
BITMAP
47F0
63C0
4040
4040
C058
C7F8
C040
8040
8040
D0C0
E7F8
644C
6444
67C0
ENDCHAR
STARTCHAR uni307C
ENCODING 12412
SWIDTH 940 0
DWIDTH 19 0
BBX 17 14 1 -1
BITMAP
47F000
63C100
404580
404200
C05800
C7F800
C04000
804000
804000
E1C000
E7F800
644C00
644400
67C000
ENDCHAR
STARTCHAR uni307D
ENCODING 12413
SWIDTH 940 0
DWIDTH 19 0
BBX 17 14 1 -1
BITMAP
47F300
63C480
404480
404300
C05800
C7F800
C04000
804000
804000
D1C000
E7F800
644C00
644400
67C000
ENDCHAR
STARTCHAR uni307E
ENCODING 12414
SWIDTH 940 0
DWIDTH 19 0
BBX 11 16 4 -2
BITMAP
0C00
0C00
0C40
FFC0
F400
0400
0480
7F80
0400
0400
0400
7F00
C5C0
8CE0
CC00
7800
ENDCHAR
STARTCHAR uni307F
ENCODING 12415
SWIDTH 940 0
DWIDTH 19 0
BBX 15 14 2 -1
BITMAP
0300
3F00
0300
0200
0218
0610
1F90
7DF0
C838
982C
9066
F060
E0C0
0080
ENDCHAR
STARTCHAR uni3080
ENCODING 12416
SWIDTH 940 0
DWIDTH 19 0
BBX 15 15 2 -2
BITMAP
0C00
0C00
7F18
0C0C
0806
0800
7800
C800
8800
C800
F808
6818
0818
0C30
07E0
ENDCHAR
STARTCHAR uni3081
ENCODING 12417
SWIDTH 940 0
DWIDTH 19 0
BBX 15 14 2 -1
BITMAP
0180
0180
2180
2FE0
3938
330C
7206
D606
9C06
8C06
8C06
9E0C
7238
0030
ENDCHAR
STARTCHAR uni3082
ENCODING 12418
SWIDTH 940 0
DWIDTH 19 0
BBX 11 16 4 -2
BITMAP
1800
1800
1800
7800
7E00
1000
1000
9000
FE00
3C60
3060
3060
3060
3040
18C0
0F00
ENDCHAR
STARTCHAR uni3083
ENCODING 12419
SWIDTH 940 0
DWIDTH 19 0
BBX 13 12 3 -1
BITMAP
0200
2200
6340
23B0
3D98
3018
F810
08F0
0C00
0400
0400
0600
ENDCHAR
STARTCHAR uni3084
ENCODING 12420
SWIDTH 940 0
DWIDTH 19 0
BBX 15 15 2 -1
BITMAP
0100
0100
6180
60B8
31FC
37C6
1C46
7806
E806
0C7C
0430
0600
0200
0300
0300
ENDCHAR
STARTCHAR uni3085
ENCODING 12421
SWIDTH 940 0
DWIDTH 19 0
BBX 11 13 4 -2
BITMAP
0200
C200
C700
8AC0
9260
A260
C260
C260
CAC0
C780
0600
0C00
0800
ENDCHAR
STARTCHAR uni3086
ENCODING 12422
SWIDTH 940 0
DWIDTH 19 0
BBX 13 16 3 -2
BITMAP
0180
8180
C180
C7E0
8DB0
9998
B198
A198
C198
C198
CDB0
C7E0
C300
0300
0600
0400
ENDCHAR
STARTCHAR uni3087
ENCODING 12423
SWIDTH 940 0
DWIDTH 19 0
BBX 8 12 5 -1
BITMAP
08
08
09
0F
08
08
08
08
7E
8B
99
70
ENDCHAR
STARTCHAR uni3088
ENCODING 12424
SWIDTH 940 0
DWIDTH 19 0
BBX 11 15 4 -2
BITMAP
0C00
0C00
0C00
0FC0
0400
0400
0400
0400
0400
1C00
7F80
8CC0
8C60
FC00
3000
ENDCHAR
STARTCHAR uni3089
ENCODING 12425
SWIDTH 940 0
DWIDTH 19 0
BBX 9 16 5 -2
BITMAP
2000
3800
1800
0000
C000
C000
C000
8000
8400
BF00
C180
0080
0080
0180
1F00
1C00
ENDCHAR
STARTCHAR uni308A
ENCODING 12426
SWIDTH 940 0
DWIDTH 19 0
BBX 9 15 5 -2
BITMAP
4100
C180
C180
C180
8180
B180
E180
E180
C100
C100
0300
0300
0600
0E00
0400
ENDCHAR
STARTCHAR uni308B
ENCODING 12427
SWIDTH 940 0
DWIDTH 19 0
BBX 11 15 4 -2
BITMAP
7F00
3200
0600
0C00
0800
1F80
38C0
6060
C020
8020
1E20
1360
11C0
1F80
0700
ENDCHAR
STARTCHAR uni308C
ENCODING 12428
SWIDTH 940 0
DWIDTH 19 0
BBX 15 15 2 -2
BITMAP
1000
1000
1C00
39E0
FB30
B430
3830
3020
7020
5020
D022
9022
1026
103C
1000
ENDCHAR
STARTCHAR uni308D
ENCODING 12429
SWIDTH 940 0
DWIDTH 19 0
BBX 11 15 4 -2
BITMAP
7F00
3A00
0600
0C00
0800
1F80
38C0
6060
C020
8020
0020
0060
00C0
0780
0200
ENDCHAR
STARTCHAR uni308E
ENCODING 12430
SWIDTH 940 0
DWIDTH 19 0
BBX 11 12 4 -1
BITMAP
2000
2000
3800
F380
AC40
3060
6020
6020
A020
A040
21C0
2000
ENDCHAR
STARTCHAR uni308F
ENCODING 12431
SWIDTH 940 0
DWIDTH 19 0
BBX 14 16 2 -2
BITMAP
1000
1800
1800
1E00
1C60
F9F8
1E0C
1C0C
1804
3804
7804
580C
580C
1838
1830
1800
ENDCHAR
STARTCHAR uni3090
ENCODING 12432
SWIDTH 940 0
DWIDTH 19 0
BBX 14 14 2 -1
BITMAP
0380
1F80
0180
0100
0300
0FF0
1A18
360C
6404
4C04
C9EC
C93C
7918
71F0
ENDCHAR
STARTCHAR uni3091
ENCODING 12433
SWIDTH 940 0
DWIDTH 19 0
BBX 13 16 3 -2
BITMAP
0180
1F80
1100
0200
07C0
1C60
3020
2420
0920
0540
0780
1800
31C0
6B30
C618
8610
ENDCHAR
STARTCHAR uni3092
ENCODING 12434
SWIDTH 940 0
DWIDTH 19 0
BBX 12 16 3 -2
BITMAP
0C00
0C00
0B00
7F00
1000
1000
3E00
3130
61E0
C380
0780
0D80
1800
1800
0FC0
07C0
ENDCHAR
STARTCHAR uni3093
ENCODING 12435
SWIDTH 940 0
DWIDTH 19 0
BBX 13 14 3 -1
BITMAP
0300
0600
0600
0400
0C00
0800
1800
1600
3E00
3100
6108
4198
C1B0
80F0
ENDCHAR
STARTCHAR uni30A1
ENCODING 12449
SWIDTH 940 0
DWIDTH 19 0
BBX 10 11 4 -1
BITMAP
FFC0
0040
00C0
0980
0F00
0C00
0800
0800
1800
1000
2000
ENDCHAR
STARTCHAR uni30A2
ENCODING 12450
SWIDTH 940 0
DWIDTH 19 0
BBX 13 14 3 -1
BITMAP
FFF0
FFF8
0030
0030
0460
05C0
0700
0400
0400
0C00
0C00
1800
3800
3000
ENDCHAR
STARTCHAR uni30A3
ENCODING 12451
SWIDTH 940 0
DWIDTH 19 0
BBX 9 11 5 -1
BITMAP
0180
0300
0600
1C00
3C00
EC00
8C00
0C00
0C00
0C00
0C00
ENDCHAR
STARTCHAR uni30A4
ENCODING 12452
SWIDTH 940 0
DWIDTH 19 0
BBX 11 15 4 -2
BITMAP
0060
00E0
01C0
0300
0600
1E00
3E00
E600
8600
0600
0600
0600
0600
0600
0600
ENDCHAR
STARTCHAR uni30A5
ENCODING 12453
SWIDTH 940 0
DWIDTH 19 0
BBX 9 12 5 -1
BITMAP
0800
0800
FF80
8080
8080
8180
0180
0100
0300
0600
0C00
1800
ENDCHAR
STARTCHAR uni30A6
ENCODING 12454
SWIDTH 940 0
DWIDTH 19 0
BBX 12 16 3 -2
BITMAP
0600
0600
0600
FFF0
C030
C030
C030
C030
0030
0060
0060
00C0
0180
0300
0600
0400
ENDCHAR
STARTCHAR uni30A7
ENCODING 12455
SWIDTH 940 0
DWIDTH 19 0
BBX 11 8 4 0
BITMAP
7FC0
0400
0400
0400
0400
0400
0400
FFE0
ENDCHAR
STARTCHAR uni30A8
ENCODING 12456
SWIDTH 940 0
DWIDTH 19 0
BBX 13 10 3 1
BITMAP
7FF0
7FF0
0600
0600
0600
0600
0600
0600
0600
FFF8
ENDCHAR
STARTCHAR uni30A9
ENCODING 12457
SWIDTH 940 0
DWIDTH 19 0
BBX 11 11 4 -1
BITMAP
0300
0300
7FE0
0700
0700
0B00
1B00
6300
C300
0300
0E00
ENDCHAR
STARTCHAR uni30AA
ENCODING 12458
SWIDTH 940 0
DWIDTH 19 0
BBX 13 14 3 -1
BITMAP
0080
0080
0080
7FF8
0380
0380
0680
0C80
1880
7080
E080
0080
0180
0780
ENDCHAR
STARTCHAR uni30AB
ENCODING 12459
SWIDTH 940 0
DWIDTH 19 0
BBX 11 14 4 -1
BITMAP
0C00
0C00
0C00
FFE0
0C20
0C20
0C20
0820
1820
1820
3060
6060
C060
81C0
ENDCHAR
STARTCHAR uni30AC
ENCODING 12460
SWIDTH 940 0
DWIDTH 19 0
BBX 15 15 2 -1
BITMAP
0004
0C1A
0C04
0C00
FFF0
FFF0
0C30
0C30
0C20
0820
1820
3020
7060
E060
C1C0
ENDCHAR
STARTCHAR uni30AD
ENCODING 12461
SWIDTH 940 0
DWIDTH 19 0
BBX 12 16 3 -2
BITMAP
0C00
0C00
0400
0460
1FE0
7E00
0600
0600
02F0
3FF0
FA00
0300
0300
0300
0300
0100
ENDCHAR
STARTCHAR uni30AE
ENCODING 12462
SWIDTH 940 0
DWIDTH 19 0
BBX 14 16 2 -2
BITMAP
0414
0C18
0400
0460
1FE0
7E00
0600
0600
06F0
3FF0
FA00
0300
0300
0300
0300
0300
ENDCHAR
STARTCHAR uni30AF
ENCODING 12463
SWIDTH 940 0
DWIDTH 19 0
BBX 12 15 4 -2
BITMAP
0C00
0800
1FC0
3030
6060
C060
80C0
0180
0180
0300
0600
1C00
3800
6000
4000
ENDCHAR
STARTCHAR uni30B0
ENCODING 12464
SWIDTH 940 0
DWIDTH 19 0
BBX 15 15 2 -1
BITMAP
0004
0C0A
0C04
1FE0
3030
6060
C060
80C0
00C0
0180
0300
0600
0C00
3800
7000
ENDCHAR
STARTCHAR uni30B1
ENCODING 12465
SWIDTH 940 0
DWIDTH 19 0
BBX 15 15 2 -1
BITMAP
0400
0600
0C00
0FFE
1FFE
3040
6040
C0C0
00C0
00C0
0080
0180
0300
0600
0E00
ENDCHAR
STARTCHAR uni30B2
ENCODING 12466
SWIDTH 940 0
DWIDTH 19 0
BBX 16 16 1 -1
BITMAP
0002
0405
0402
0C00
0800
1FFC
3040
6040
C0C0
00C0
00C0
0080
0180
0300
0600
0E00
ENDCHAR
STARTCHAR uni30B3
ENCODING 12467
SWIDTH 940 0
DWIDTH 19 0
BBX 11 11 4 0
BITMAP
FFE0
0060
0060
0060
0060
0060
0060
0060
0060
FFE0
0060
ENDCHAR
STARTCHAR uni30B4
ENCODING 12468
SWIDTH 940 0
DWIDTH 19 0
BBX 14 15 2 0
BITMAP
0008
0014
0008
0000
FFE0
FFE0
0060
0060
0060
0060
0060
0060
0060
FFE0
0060
ENDCHAR
STARTCHAR uni30B5
ENCODING 12469
SWIDTH 940 0
DWIDTH 19 0
BBX 14 15 2 -2
BITMAP
0820
0820
0820
FFFC
FFFC
0820
0820
0860
0860
0040
00C0
0080
0180
0700
0200
ENDCHAR
STARTCHAR uni30B6
ENCODING 12470
SWIDTH 940 0
DWIDTH 19 0
BBX 17 15 1 -1
BITMAP
000100
186480
186200
186000
FFFC00
FFFC00
186000
186000
186000
184000
00C000
00C000
018000
030000
060000
ENDCHAR
STARTCHAR uni30B7
ENCODING 12471
SWIDTH 940 0
DWIDTH 19 0
BBX 13 14 3 -1
BITMAP
2000
1800
0800
0000
8000
6018
2030
0060
00C0
0380
0E00
3C00
7000
4000
ENDCHAR
STARTCHAR uni30B8
ENCODING 12472
SWIDTH 940 0
DWIDTH 19 0
BBX 13 14 3 -1
BITMAP
2010
3828
0820
0000
8000
6018
2030
0060
00C0
0380
0E00
3C00
7000
4000
ENDCHAR
STARTCHAR uni30B9
ENCODING 12473
SWIDTH 940 0
DWIDTH 19 0
BBX 13 12 3 0
BITMAP
7F80
7FC0
00C0
00C0
0180
0300
0380
06C0
0C60
3830
E038
4000
ENDCHAR
STARTCHAR uni30BA
ENCODING 12474
SWIDTH 940 0
DWIDTH 19 0
BBX 14 14 3 0
BITMAP
0008
002C
0010
7F80
0180
0180
0300
0300
0700
0D80
18C0
3060
E030
8020
ENDCHAR
STARTCHAR uni30BB
ENCODING 12475
SWIDTH 940 0
DWIDTH 19 0
BBX 13 14 3 -1
BITMAP
1800
1800
1800
18F0
1FD8
FC30
D830
1860
18C0
1800
1800
1800
1C38
0FF0
ENDCHAR
STARTCHAR uni30BC
ENCODING 12476
SWIDTH 940 0
DWIDTH 19 0
BBX 15 15 2 -1
BITMAP
0006
100A
1000
1000
10F0
1FD8
FC30
D030
1060
10C0
1000
1000
1000
1830
1FF0
ENDCHAR
STARTCHAR uni30BD
ENCODING 12477
SWIDTH 940 0
DWIDTH 19 0
BBX 13 13 3 -1
BITMAP
C018
6030
6030
3020
0060
0040
00C0
0180
0180
0300
0600
1C00
1800
ENDCHAR
STARTCHAR uni30BE
ENCODING 12478
SWIDTH 940 0
DWIDTH 19 0
BBX 16 16 1 -1
BITMAP
0003
0005
0002
C010
6030
6030
3020
2060
0040
00C0
0180
0180
0300
0600
1C00
1800
ENDCHAR
STARTCHAR uni30BF
ENCODING 12479
SWIDTH 940 0
DWIDTH 19 0
BBX 12 15 3 -2
BITMAP
0600
0C00
0FF0
1830
3030
E020
4460
06C0
0380
0380
07C0
0EE0
1C40
7000
2000
ENDCHAR
STARTCHAR uni30C0
ENCODING 12480
SWIDTH 940 0
DWIDTH 19 0
BBX 15 17 2 -2
BITMAP
0004
0002
0C0A
0C00
1FE0
3030
6060
C060
88C0
0D80
0780
0300
0780
1DC0
3880
E000
4000
ENDCHAR
STARTCHAR uni30C1
ENCODING 12481
SWIDTH 940 0
DWIDTH 19 0
BBX 14 16 2 -2
BITMAP
0010
01F0
1F80
0180
0180
0180
FFFC
FFFC
0180
0100
0300
0300
0600
0C00
1C00
1000
ENDCHAR
STARTCHAR uni30C2
ENCODING 12482
SWIDTH 940 0
DWIDTH 19 0
BBX 16 16 1 -2
BITMAP
0020
03F0
3F01
0306
0302
0300
FFFC
FFFC
0300
0300
0300
0600
0600
0C00
1800
3000
ENDCHAR
STARTCHAR uni30C3
ENCODING 12483
SWIDTH 940 0
DWIDTH 19 0
BBX 11 11 4 -1
BITMAP
0800
8860
CC60
4040
00C0
0180
0100
0300
0600
0C00
1800
ENDCHAR
STARTCHAR uni30C4
ENCODING 12484
SWIDTH 940 0
DWIDTH 19 0
BBX 13 14 3 -1
BITMAP
0400
8408
C618
C210
6030
4020
0060
00C0
00C0
0180
0300
0600
1C00
1800
ENDCHAR
STARTCHAR uni30C5
ENCODING 12485
SWIDTH 940 0
DWIDTH 19 0
BBX 16 15 1 -1
BITMAP
0005
0002
0400
C618
4218
6030
4030
0060
0060
00C0
0180
0300
0700
0E00
0800
ENDCHAR
STARTCHAR uni30C6
ENCODING 12486
SWIDTH 940 0
DWIDTH 19 0
BBX 13 15 3 -2
BITMAP
3FE0
0000
0000
0000
FFF8
FFF8
0200
0200
0600
0600
0600
0C00
1800
3800
2000
ENDCHAR
STARTCHAR uni30C7
ENCODING 12487
SWIDTH 940 0
DWIDTH 19 0
BBX 16 17 1 -2
BITMAP
0002
0005
1FE2
1FE0
0000
0000
FFFC
FFFC
0300
0300
0300
0300
0200
0600
0C00
1800
1000
ENDCHAR
STARTCHAR uni30C8
ENCODING 12488
SWIDTH 940 0
DWIDTH 19 0
BBX 7 14 6 -1
BITMAP
C0
C0
C0
C0
C0
F0
DC
C6
C0
C0
C0
C0
C0
C0
ENDCHAR
STARTCHAR uni30C9
ENCODING 12489
SWIDTH 940 0
DWIDTH 19 0
BBX 9 15 5 -1
BITMAP
0300
C580
C200
C000
C000
C000
F000
DC00
C400
C000
C000
C000
C000
C000
C000
ENDCHAR
STARTCHAR uni30CA
ENCODING 12490
SWIDTH 940 0
DWIDTH 19 0
BBX 14 14 2 -1
BITMAP
0100
0100
0100
FFFC
FFFC
0100
0100
0100
0300
0300
0200
0600
0C00
1800
ENDCHAR
STARTCHAR uni30CB
ENCODING 12491
SWIDTH 940 0
DWIDTH 19 0
BBX 13 10 3 1
BITMAP
3FE0
0000
0000
0000
0000
0000
0000
0000
FFF8
FFF8
ENDCHAR
STARTCHAR uni30CC
ENCODING 12492
SWIDTH 940 0
DWIDTH 19 0
BBX 11 14 4 -1
BITMAP
7FC0
7FE0
0060
00C0
00C0
3980
1D80
0700
0700
0D80
18C0
3060
E040
4000
ENDCHAR
STARTCHAR uni30CD
ENCODING 12493
SWIDTH 940 0
DWIDTH 19 0
BBX 13 16 3 -2
BITMAP
0600
0600
0600
7FC0
0060
00C0
0180
0300
0E60
3E30
F618
8600
0600
0600
0600
0600
ENDCHAR
STARTCHAR uni30CE
ENCODING 12494
SWIDTH 940 0
DWIDTH 19 0
BBX 11 14 4 -1
BITMAP
0040
0060
00C0
00C0
0180
0180
0300
0200
0600
0C00
1800
3000
E000
4000
ENDCHAR
STARTCHAR uni30CF
ENCODING 12495
SWIDTH 940 0
DWIDTH 19 0
BBX 14 10 2 1
BITMAP
0020
0C20
0C30
0818
1818
300C
300C
6004
C004
4000
ENDCHAR
STARTCHAR uni30D0
ENCODING 12496
SWIDTH 940 0
DWIDTH 19 0
BBX 16 12 1 1
BITMAP
0001
0004
0022
0430
0C30
0818
1808
180C
300C
6006
E006
4000
ENDCHAR
STARTCHAR uni30D1
ENCODING 12497
SWIDTH 940 0
DWIDTH 19 0
BBX 15 13 2 1
BITMAP
0006
000A
000A
0006
0860
1820
1830
3010
3018
6018
C00C
C00C
8000
ENDCHAR
STARTCHAR uni30D2
ENCODING 12498
SWIDTH 940 0
DWIDTH 19 0
BBX 11 14 4 -1
BITMAP
C000
C000
C000
C1C0
C700
FC00
E000
C000
C000
C000
C000
C000
E3E0
7FC0
ENDCHAR
STARTCHAR uni30D3
ENCODING 12499
SWIDTH 940 0
DWIDTH 19 0
BBX 13 15 3 -1
BITMAP
0050
C028
C020
C000
C180
C780
FC00
F000
C000
C000
C000
C000
C000
C1C0
7FC0
ENDCHAR
STARTCHAR uni30D4
ENCODING 12500
SWIDTH 940 0
DWIDTH 19 0
BBX 13 16 3 -1
BITMAP
0030
0048
C048
C030
C000
C180
C780
FE00
F000
C000
C000
C000
C000
C000
C1C0
7FC0
ENDCHAR
STARTCHAR uni30D5
ENCODING 12501
SWIDTH 940 0
DWIDTH 19 0
BBX 12 13 3 -1
BITMAP
FFE0
0010
0030
0030
0060
0060
00C0
00C0
0180
0300
0E00
3C00
1000
ENDCHAR
STARTCHAR uni30D6
ENCODING 12502
SWIDTH 940 0
DWIDTH 19 0
BBX 15 16 2 -1
BITMAP
0004
0012
0008
FFE0
FFF0
0030
0060
0060
0040
00C0
0180
0300
0700
0E00
3800
3000
ENDCHAR
STARTCHAR uni30D7
ENCODING 12503
SWIDTH 940 0
DWIDTH 19 0
BBX 15 16 2 -1
BITMAP
000E
0012
000E
FFE0
FFF0
0030
0060
0060
00C0
00C0
0180
0300
0700
0C00
3800
3000
ENDCHAR
STARTCHAR uni30D8
ENCODING 12504
SWIDTH 940 0
DWIDTH 19 0
BBX 15 8 2 2
BITMAP
0800
1E00
3300
61C0
C060
8038
001C
0006
ENDCHAR
STARTCHAR uni30D9
ENCODING 12505
SWIDTH 940 0
DWIDTH 19 0
BBX 15 10 2 2
BITMAP
0008
0004
0810
1E08
3300
6180
C0E0
8030
001C
0006
ENDCHAR
STARTCHAR uni30DA
ENCODING 12506
SWIDTH 940 0
DWIDTH 19 0
BBX 15 10 2 2
BITMAP
001C
0014
0814
1E08
3300
6180
C0E0
8030
001C
0006
ENDCHAR
STARTCHAR uni30DB
ENCODING 12507
SWIDTH 940 0
DWIDTH 19 0
BBX 13 15 3 -2
BITMAP
0200
0200
0200
FFF8
0200
0200
0220
2230
6210
C218
C208
8200
0200
0E00
0800
ENDCHAR
STARTCHAR uni30DC
ENCODING 12508
SWIDTH 940 0
DWIDTH 19 0
BBX 15 17 2 -2
BITMAP
0008
0016
0308
0300
0300
7FF8
0300
0300
0300
3330
3318
630C
C30C
4300
0300
0F00
0400
ENDCHAR
STARTCHAR uni30DD
ENCODING 12509
SWIDTH 940 0
DWIDTH 19 0
BBX 15 17 2 -2
BITMAP
000C
0012
0312
030C
0300
7FF8
0300
0300
0300
1330
3318
630C
C30C
4300
0300
0F00
0400
ENDCHAR
STARTCHAR uni30DE
ENCODING 12510
SWIDTH 940 0
DWIDTH 19 0
BBX 13 11 3 0
BITMAP
FFF0
0018
0030
0030
0060
10C0
0D80
0700
0300
0380
0100
ENDCHAR
STARTCHAR uni30DF
ENCODING 12511
SWIDTH 940 0
DWIDTH 19 0
BBX 8 14 5 -1
BITMAP
30
1E
06
00
40
78
0E
00
00
40
F8
1E
07
01
ENDCHAR
STARTCHAR uni30E0
ENCODING 12512
SWIDTH 940 0
DWIDTH 19 0
BBX 15 13 2 0
BITMAP
0200
0300
0300
0600
0600
0400
0C00
0C30
1818
1008
300C
BFFC
FF86
ENDCHAR
STARTCHAR uni30E1
ENCODING 12513
SWIDTH 940 0
DWIDTH 19 0
BBX 11 12 4 0
BITMAP
0060
0060
00C0
18C0
0F80
0300
0780
0EC0
1CC0
3800
7000
C000
ENDCHAR
STARTCHAR uni30E2
ENCODING 12514
SWIDTH 940 0
DWIDTH 19 0
BBX 13 14 3 -1
BITMAP
7FE0
7FE0
0400
0400
0400
FFF8
FFF8
0400
0400
0400
0400
0400
0730
03F0
ENDCHAR
STARTCHAR uni30E3
ENCODING 12515
SWIDTH 940 0
DWIDTH 19 0
BBX 11 12 4 -1
BITMAP
1000
3000
1040
17E0
7C60
D8C0
1880
0800
0800
0800
0C00
0C00
ENDCHAR
STARTCHAR uni30E4
ENCODING 12516
SWIDTH 940 0
DWIDTH 19 0
BBX 13 15 3 -2
BITMAP
1800
1800
1830
1FF8
7F18
FC30
0C30
0C60
0C00
0400
0600
0600
0600
0600
0200
ENDCHAR
STARTCHAR uni30E5
ENCODING 12517
SWIDTH 940 0
DWIDTH 19 0
BBX 11 8 4 0
BITMAP
7F80
0180
0180
0180
0100
0100
0100
FFE0
ENDCHAR
STARTCHAR uni30E6
ENCODING 12518
SWIDTH 940 0
DWIDTH 19 0
BBX 15 10 2 1
BITMAP
3FF0
0030
0030
0020
0060
0060
0060
0060
0060
FFFE
ENDCHAR
STARTCHAR uni30E7
ENCODING 12519
SWIDTH 940 0
DWIDTH 19 0
BBX 9 10 5 -1
BITMAP
FF80
0180
0180
0180
FF80
0180
0180
0180
FF80
0180
ENDCHAR
STARTCHAR uni30E8
ENCODING 12520
SWIDTH 940 0
DWIDTH 19 0
BBX 11 13 4 -1
BITMAP
FFE0
FFE0
0060
0060
0060
FFE0
FFE0
0060
0060
0060
FFE0
FFE0
0060
ENDCHAR
STARTCHAR uni30E9
ENCODING 12521
SWIDTH 940 0
DWIDTH 19 0
BBX 11 15 4 -2
BITMAP
7F80
0000
0000
0000
FFC0
0060
0060
0040
00C0
0180
0380
0700
0E00
1800
1000
ENDCHAR
STARTCHAR uni30EA
ENCODING 12522
SWIDTH 940 0
DWIDTH 19 0
BBX 9 15 5 -2
BITMAP
C180
C180
C180
C180
C180
C180
C180
C100
0300
0300
0600
0600
0C00
3800
1000
ENDCHAR
STARTCHAR uni30EB
ENCODING 12523
SWIDTH 940 0
DWIDTH 19 0
BBX 15 14 2 -1
BITMAP
0180
1180
1180
1180
1180
1180
1182
3186
318C
3198
21B0
61E0
C1C0
8080
ENDCHAR
STARTCHAR uni30EC
ENCODING 12524
SWIDTH 940 0
DWIDTH 19 0
BBX 12 14 3 -1
BITMAP
C000
C000
C000
C000
C000
C000
C010
C030
C0E0
C1C0
C700
DE00
7800
2000
ENDCHAR
STARTCHAR uni30ED
ENCODING 12525
SWIDTH 940 0
DWIDTH 19 0
BBX 11 11 4 0
BITMAP
FFE0
C060
C060
C060
C060
C060
C060
C060
C060
FFE0
C060
ENDCHAR
STARTCHAR uni30EE
ENCODING 12526
SWIDTH 940 0
DWIDTH 19 0
BBX 9 11 5 -2
BITMAP
FF80
8080
8080
8180
8180
0100
0100
0300
0600
0C00
0800
ENDCHAR
STARTCHAR uni30EF
ENCODING 12527
SWIDTH 940 0
DWIDTH 19 0
BBX 12 14 3 -1
BITMAP
FFF0
FFF0
C030
C030
C030
C030
0030
0020
0060
0060
00C0
0180
0700
0200
ENDCHAR
STARTCHAR uni30F0
ENCODING 12528
SWIDTH 940 0
DWIDTH 19 0
BBX 15 16 2 -2
BITMAP
0040
0040
0040
0040
7FF8
1840
1840
1840
1840
1840
FFFE
0040
0040
0040
0040
0040
ENDCHAR
STARTCHAR uni30F1
ENCODING 12529
SWIDTH 940 0
DWIDTH 19 0
BBX 15 12 2 0
BITMAP
3FF8
000C
0018
0038
0370
03E0
0380
0300
0300
0300
0300
FFFE
ENDCHAR
STARTCHAR uni30F2
ENCODING 12530
SWIDTH 940 0
DWIDTH 19 0
BBX 11 14 4 -1
BITMAP
FFC0
FFE0
0060
0060
0060
FFC0
FFC0
0180
0180
0300
0600
1C00
3800
2000
ENDCHAR
STARTCHAR uni30F3
ENCODING 12531
SWIDTH 940 0
DWIDTH 19 0
BBX 13 12 3 0
BITMAP
C000
6000
3000
0018
0030
0060
00C0
0180
0700
1C00
7800
E000
ENDCHAR
STARTCHAR uni30F4
ENCODING 12532
SWIDTH 940 0
DWIDTH 19 0
BBX 15 16 2 -1
BITMAP
0004
0412
0408
0400
FFF0
8030
8030
8020
8060
0060
0060
00C0
01C0
0380
0700
0E00
ENDCHAR
STARTCHAR uni30F5
ENCODING 12533
SWIDTH 940 0
DWIDTH 19 0
BBX 9 11 5 -1
BITMAP
1800
1800
FF80
1880
1080
1080
1080
3080
6080
C180
8700
ENDCHAR
STARTCHAR uni30F6
ENCODING 12534
SWIDTH 940 0
DWIDTH 19 0
BBX 11 12 4 -2
BITMAP
1800
1000
3FE0
6300
C300
8300
0200
0200
0600
0C00
1800
1000
ENDCHAR
STARTCHAR periodcentered.dup46
ENCODING 12539
SWIDTH 290 0
DWIDTH 6 0
BBX 2 2 2 6
BITMAP
C0
C0
ENDCHAR
STARTCHAR uni30FC
ENCODING 12540
SWIDTH 940 0
DWIDTH 19 0
BBX 17 1 1 6
BITMAP
FFFF80
ENDCHAR
STARTCHAR uni3131
ENCODING 12593
SWIDTH 940 0
DWIDTH 19 0
BBX 9 9 5 2
BITMAP
FF80
0080
0080
0080
0080
0080
0080
0080
0080
ENDCHAR
STARTCHAR uni3132
ENCODING 12594
SWIDTH 940 0
DWIDTH 19 0
BBX 12 9 3 2
BITMAP
FDF0
0410
0410
0410
0410
0410
0410
0410
0410
ENDCHAR
ENDFONT
